<svg width="530" height="543" viewBox="0 0 530 543" fill="none" xmlns="http://www.w3.org/2000/svg">
<path d="M364.915 196.145V202.746H270.13V196.145C270.13 192.898 271.419 189.784 273.713 187.486C276.007 185.189 279.119 183.896 282.366 183.891H352.662C355.912 183.891 359.029 185.182 361.327 187.48C363.624 189.778 364.915 192.895 364.915 196.145Z" stroke="#191A19" stroke-miterlimit="10"/>
<path d="M367.258 235.875V202.747H267.754V247.687" stroke="#191A19" stroke-miterlimit="10"/>
<path d="M251.054 124.27C251.054 124.27 254.958 113.85 264.767 115.513C274.577 117.176 267.075 125.373 262.357 126.103C262.34 126.103 261.644 123.235 251.054 124.27Z" fill="white" stroke="#191A19" stroke-linecap="round" stroke-linejoin="round"/>
<path d="M244.555 130.177C243.265 131.466 240.159 131.568 242.246 128.768C243.962 126.521 246.281 124.809 248.933 123.829C253.583 121.759 255.399 122.132 259.608 121.25C263.817 120.367 264.598 122.047 266.057 122.845C269.537 124.746 270.368 125.068 271.234 126.986C272.099 128.904 273.067 131.382 270.368 131.382C267.67 131.382 267.738 127.308 265.277 127.461C262.816 127.614 261.696 131.382 260.016 131.382H259.388C257.945 131.382 257.877 130.194 258.743 128.31C259.608 126.426 260.576 124.746 260.576 124.746C259.162 125.498 258.03 126.689 257.351 128.14C256.197 130.584 255.993 131.534 253.957 131.534C251.92 131.534 251.988 129.973 254.093 126.443C252.869 127.164 251.857 128.194 251.156 129.43C250.138 131.382 249.595 131.246 248.237 131.246C246.54 131.246 246.54 128.327 249.731 126.409C249.731 126.545 249.035 125.696 244.555 130.177Z" fill="white" stroke="#191A19" stroke-linecap="round" stroke-linejoin="round"/>
<path d="M256.842 123.184C256.842 123.184 255.603 123.184 254.839 125.204L256.842 123.184Z" fill="white"/>
<path d="M256.842 123.184C256.842 123.184 255.603 123.184 254.839 125.204" stroke="#191A19" stroke-linecap="round" stroke-linejoin="round"/>
<path d="M281.62 258.735L288.408 270.598H294.212L296.758 267L290.479 251.726L281.62 258.735Z" fill="white" stroke="#191A19" stroke-linecap="round" stroke-linejoin="round"/>
<path d="M297.709 156.024L290.7 158.655C290.7 158.655 240.77 173.114 238.58 185.368C236.391 197.621 282.57 261.62 282.57 261.62C282.57 261.62 288.137 262.435 292.465 255.052C292.465 255.052 276.172 205.988 268.705 196.365C268.705 196.365 323.488 186.725 326.119 179.716C328.75 172.707 321.452 155.345 321.452 155.345L297.709 156.024Z" fill="#191A19" stroke="#191A19" stroke-linecap="round" stroke-linejoin="round"/>
<path d="M284.708 270.36C284.827 270.146 284.999 269.965 285.206 269.835C285.414 269.704 285.651 269.628 285.896 269.614C287.991 269.482 290.027 268.866 291.844 267.815C293.661 266.764 295.209 265.306 296.367 263.555C296.574 263.26 296.882 263.051 297.233 262.97C297.584 262.888 297.953 262.94 298.268 263.114C300.855 264.635 303.028 266.768 304.599 269.325C305.164 270.223 305.361 271.305 305.149 272.345C304.938 273.385 304.333 274.303 303.462 274.909L281.806 289.47C280.653 290.247 279.293 290.661 277.903 290.658H272.523C272.221 290.659 271.923 290.588 271.655 290.45C271.386 290.311 271.155 290.111 270.98 289.865C270.806 289.618 270.693 289.334 270.651 289.035C270.609 288.736 270.64 288.431 270.741 288.147C270.956 287.49 271.333 286.899 271.837 286.428C272.342 285.956 272.957 285.619 273.626 285.448C277.19 284.583 283.995 271.803 284.708 270.36Z" fill="#191A19"/>
<mask id="mask0_740_623" style="mask-type:luminance" maskUnits="userSpaceOnUse" x="270" y="262" width="36" height="29">
<path d="M284.709 270.361C284.828 270.147 285 269.966 285.207 269.835C285.415 269.705 285.652 269.629 285.897 269.614C287.992 269.483 290.028 268.867 291.845 267.816C293.662 266.764 295.21 265.306 296.368 263.555C296.575 263.26 296.883 263.052 297.234 262.97C297.585 262.889 297.954 262.94 298.269 263.114C300.856 264.636 303.029 266.769 304.6 269.326C305.165 270.224 305.362 271.305 305.15 272.345C304.939 273.385 304.334 274.304 303.463 274.909L281.807 289.471C280.654 290.248 279.294 290.662 277.904 290.659H272.524C272.222 290.66 271.924 290.588 271.656 290.45C271.387 290.312 271.156 290.111 270.981 289.865C270.807 289.619 270.694 289.334 270.652 289.035C270.61 288.736 270.641 288.432 270.742 288.147C270.957 287.491 271.334 286.9 271.838 286.428C272.343 285.956 272.958 285.62 273.627 285.449C277.191 284.583 283.996 271.804 284.709 270.361Z" fill="white"/>
</mask>
<g mask="url(#mask0_740_623)">
<path d="M284.709 270.361C284.828 270.147 285 269.966 285.207 269.835C285.415 269.705 285.652 269.629 285.897 269.614C287.992 269.483 290.028 268.867 291.845 267.816C293.662 266.764 295.21 265.306 296.368 263.555C296.575 263.26 296.883 263.052 297.234 262.97C297.585 262.889 297.954 262.94 298.269 263.114C300.856 264.636 303.029 266.769 304.6 269.326C305.165 270.224 305.362 271.305 305.15 272.345C304.939 273.385 304.334 274.304 303.463 274.909L281.807 289.471C280.654 290.248 279.294 290.662 277.904 290.659H272.524C272.222 290.66 271.924 290.588 271.656 290.45C271.387 290.312 271.156 290.111 270.981 289.865C270.807 289.619 270.694 289.334 270.652 289.035C270.61 288.736 270.641 288.432 270.742 288.147C270.957 287.491 271.334 286.9 271.838 286.428C272.343 285.956 272.958 285.62 273.627 285.449C277.191 284.583 283.996 271.804 284.709 270.361Z" fill="#BFBFBF" stroke="#191A19" stroke-linecap="round" stroke-linejoin="round"/>
</g>
<path d="M284.708 270.36C284.827 270.146 284.999 269.965 285.206 269.835C285.414 269.704 285.651 269.628 285.896 269.614C287.991 269.482 290.027 268.866 291.844 267.815C293.661 266.764 295.209 265.306 296.367 263.555C296.574 263.26 296.882 263.051 297.233 262.97C297.584 262.888 297.953 262.94 298.268 263.114C300.855 264.635 303.028 266.768 304.599 269.325C305.164 270.223 305.361 271.305 305.149 272.345C304.938 273.385 304.333 274.303 303.462 274.909L281.806 289.47C280.653 290.247 279.293 290.661 277.903 290.658H272.523C272.221 290.659 271.923 290.588 271.655 290.45C271.386 290.311 271.155 290.111 270.98 289.865C270.806 289.618 270.693 289.334 270.651 289.035C270.609 288.736 270.64 288.431 270.741 288.147C270.956 287.49 271.333 286.899 271.837 286.428C272.342 285.956 272.957 285.619 273.626 285.448C277.19 284.583 283.995 271.803 284.708 270.36Z" stroke="#191A19" stroke-linecap="round" stroke-linejoin="round"/>
<path d="M278.667 261.62L276.359 278.88L286.627 280.645L291.905 263.674L278.667 261.62Z" fill="white" stroke="#191A19" stroke-linecap="round" stroke-linejoin="round"/>
<path d="M314.136 160.64C314.764 163.016 313.678 170.823 311.489 171.926C303.003 176.424 288.985 188.372 285.879 201.151C281.942 217.342 277.563 266.848 277.563 266.848C277.563 266.848 281.076 272.533 290.275 269.902C290.275 269.902 307.348 228.73 308.655 208.585C317.494 202.722 326.891 197.748 336.708 193.735C344.991 190.612 349.505 185.419 351.151 180.972C355.53 169.092 346.773 149.88 346.773 149.88L314.357 156.397L314.136 160.64Z" fill="#191A19" stroke="#191A19" stroke-linecap="round" stroke-linejoin="round"/>
<path d="M275.917 274.62C275.732 274.459 275.507 274.349 275.266 274.301C275.025 274.253 274.776 274.27 274.543 274.348C271.607 275.35 260.796 278.829 254.55 278.54C250.002 278.32 248.576 280.899 248.152 282.868C248.096 283.14 248.096 283.42 248.152 283.691C248.208 283.963 248.319 284.22 248.477 284.447C248.636 284.675 248.84 284.867 249.076 285.013C249.312 285.158 249.575 285.255 249.849 285.295L284.963 290.607C286.009 290.772 287.078 290.528 287.948 289.924C288.817 289.32 289.42 288.403 289.63 287.366C290.271 284.424 290.178 281.37 289.359 278.472C289.249 278.128 289.013 277.837 288.699 277.658C288.384 277.479 288.014 277.424 287.662 277.505C285.614 277.964 283.488 277.943 281.45 277.442C279.413 276.942 277.519 275.976 275.917 274.62Z" fill="#191A19"/>
<mask id="mask1_740_623" style="mask-type:luminance" maskUnits="userSpaceOnUse" x="248" y="274" width="43" height="17">
<path d="M275.917 274.62C275.731 274.459 275.507 274.349 275.266 274.301C275.024 274.253 274.775 274.27 274.542 274.348C271.606 275.35 260.795 278.829 254.55 278.54C250.001 278.32 248.576 280.899 248.152 282.868C248.095 283.14 248.095 283.42 248.151 283.691C248.207 283.963 248.318 284.22 248.477 284.447C248.636 284.675 248.839 284.867 249.075 285.013C249.311 285.158 249.574 285.255 249.849 285.295L284.963 290.607C286.008 290.772 287.078 290.528 287.947 289.924C288.817 289.32 289.42 288.403 289.63 287.366C290.271 284.424 290.178 281.37 289.358 278.472C289.248 278.128 289.013 277.837 288.698 277.658C288.384 277.479 288.014 277.424 287.661 277.505C285.614 277.964 283.488 277.943 281.45 277.442C279.412 276.942 277.518 275.976 275.917 274.62Z" fill="white"/>
</mask>
<g mask="url(#mask1_740_623)">
<path d="M275.917 274.62C275.731 274.459 275.507 274.349 275.266 274.301C275.024 274.253 274.775 274.27 274.542 274.348C271.606 275.35 260.795 278.829 254.55 278.54C250.001 278.32 248.576 280.899 248.152 282.868C248.095 283.14 248.095 283.42 248.151 283.691C248.207 283.963 248.318 284.22 248.477 284.447C248.636 284.675 248.839 284.867 249.075 285.013C249.311 285.158 249.574 285.255 249.849 285.295L284.963 290.607C286.008 290.772 287.078 290.528 287.947 289.924C288.817 289.32 289.42 288.403 289.63 287.366C290.271 284.424 290.178 281.37 289.358 278.472C289.248 278.128 289.013 277.837 288.698 277.658C288.384 277.479 288.014 277.424 287.661 277.505C285.614 277.964 283.488 277.943 281.45 277.442C279.412 276.942 277.518 275.976 275.917 274.62Z" fill="#BFBFBF" stroke="#191A19" stroke-linecap="round" stroke-linejoin="round"/>
</g>
<path d="M275.917 274.62C275.732 274.459 275.507 274.349 275.266 274.301C275.025 274.253 274.776 274.27 274.543 274.348C271.607 275.35 260.796 278.829 254.55 278.54C250.002 278.32 248.576 280.899 248.152 282.868C248.096 283.14 248.096 283.42 248.152 283.691C248.208 283.963 248.319 284.22 248.477 284.447C248.636 284.675 248.84 284.867 249.076 285.013C249.312 285.158 249.575 285.255 249.849 285.295L284.963 290.607C286.009 290.772 287.078 290.528 287.948 289.924C288.817 289.32 289.42 288.403 289.63 287.366C290.271 284.424 290.178 281.37 289.359 278.472C289.249 278.128 289.013 277.837 288.699 277.658C288.384 277.479 288.014 277.424 287.662 277.505C285.614 277.964 283.488 277.943 281.45 277.442C279.413 276.942 277.519 275.976 275.917 274.62Z" stroke="#191A19" stroke-linecap="round" stroke-linejoin="round"/>
<path d="M351.593 156.906C324.863 164.357 290.7 158.604 290.7 158.604C291.281 153.643 291.15 148.626 290.309 143.703H321.74C322.862 143.707 323.974 143.489 325.011 143.06C326.048 142.632 326.99 142.003 327.782 141.208C329.352 139.616 330.23 137.469 330.226 135.234H288.731C287.611 130.142 286.083 124.338 284.132 117.923C282.416 111.896 281.279 105.718 280.737 99.4751L270.045 118.789C270.045 118.789 268.688 123.49 261.848 123.625C255.009 123.761 255.789 121.283 261.712 101.987C265.435 90.8211 271.285 80.4819 278.938 71.5401C279.255 71.167 279.684 70.9053 280.16 70.7933C280.16 70.6406 280.16 70.5557 280.16 70.5557C316 63 329.5 67.9997 329.5 67.9997C317.23 103.64 351.593 156.906 351.593 156.906Z" fill="white" stroke="#191A19" stroke-linecap="round" stroke-linejoin="round"/>
<path d="M290.378 126.731C290.378 126.731 284.573 130.244 286.253 131.059C289.071 132.434 295.197 128.106 295.197 128.106C295.197 128.106 301.867 127.665 298.473 126.137L295.079 124.61L290.378 126.731Z" fill="white"/>
<mask id="mask2_740_623" style="mask-type:luminance" maskUnits="userSpaceOnUse" x="285" y="124" width="15" height="8">
<path d="M290.378 126.731C290.378 126.731 284.573 130.244 286.253 131.059C289.071 132.434 295.197 128.106 295.197 128.106C295.197 128.106 301.867 127.665 298.473 126.137L295.079 124.61L290.378 126.731Z" fill="white"/>
</mask>
<g mask="url(#mask2_740_623)">
<path opacity="0.2" d="M290.378 126.731C290.378 126.731 284.573 130.244 286.253 131.059C289.071 132.434 295.197 128.106 295.197 128.106C295.197 128.106 301.867 127.665 298.473 126.137L295.079 124.61L290.378 126.731Z" fill="#191A19"/>
</g>
<path d="M290.378 126.731C290.378 126.731 284.573 130.244 286.253 131.059C289.071 132.434 295.197 128.106 295.197 128.106C295.197 128.106 301.867 127.665 298.473 126.137L295.079 124.61L290.378 126.731Z" stroke="#191A19" stroke-linecap="round" stroke-linejoin="round"/>
<path d="M297.981 74.1197C297.981 74.1197 301.375 89.5638 305.618 89.5638C309.861 89.5638 318.703 66.3298 318.703 66.3298L312.831 62.3076L297.981 74.1197Z" fill="white"/>
<path d="M297.981 74.1197C297.981 74.1197 303.757 76 308 76C312.243 76 318.703 66.3298 318.703 66.3298L312.831 62.3076L297.981 74.1197Z" stroke="#191A19" stroke-linecap="round" stroke-linejoin="round"/>
<path d="M286.253 44.7767C286.253 44.7767 286.253 58.7951 289.07 64.4975C291.887 70.1999 299.25 79 303 77.5C312.5 73.7 316.5 55 319.5 51C319.839 49.201 322.47 47.5769 318.567 46.7963C314.341 45.9816 314.375 52.0574 314.375 52.0574L308.163 36.24L293.805 33.8301L289.002 36.0194L286.253 44.7767Z" fill="white" stroke="#191A19" stroke-linecap="round" stroke-linejoin="round"/>
<path d="M295.316 58.4209C296 63.5 292.757 64.1306 293.5 65.5C294.043 66.5026 297 65 297.5 67" stroke="#191A19" stroke-linecap="round" stroke-linejoin="round"/>
<path d="M297.326 70.2528C297.326 70.2528 298.777 71.7037 301.679 69.5273" stroke="#191A19" stroke-linecap="round" stroke-linejoin="round"/>
<path d="M288.833 54.0594C288.959 53.7824 289.139 53.533 289.362 53.3257C289.585 53.1184 289.847 52.9572 290.132 52.8515C290.418 52.7459 290.721 52.6977 291.026 52.7098C291.33 52.722 291.629 52.7942 291.905 52.9223" stroke="#191A19" stroke-linecap="round" stroke-linejoin="round"/>
<path d="M298.319 51.9381C298.319 51.9381 301.018 50.0034 304.633 52.7019" stroke="#191A19" stroke-linecap="round" stroke-linejoin="round"/>
<path d="M291.786 58.3369C291.888 59.0836 291.684 59.7625 291.294 59.8134C290.903 59.8643 290.513 59.2873 290.394 58.5236C290.275 57.7599 290.513 57.098 290.886 57.0471C291.26 56.9962 291.667 57.5732 291.786 58.3369Z" fill="#191A19"/>
<path d="M301.527 57.7593C301.645 58.523 301.425 59.1849 301.051 59.2358C300.678 59.2867 300.254 58.7097 300.152 57.9629C300.05 57.2162 300.254 56.5203 300.644 56.4694C301.035 56.4185 301.374 56.9956 301.527 57.7593Z" fill="#191A19"/>
<path d="M333.145 12.2889C333.256 13.22 331.815 13.765 330.688 14.0011C346.59 20.4075 338.442 37.2593 326.786 33.8135C330.089 48.1991 317 58.9999 315.5 60.5C320 49.5 315.5 47 314.5 52.0001C313.5 57.0001 313.5 51.5001 312.5 48.5001C312.266 47.7987 305 52.9999 305 46.4999C297.794 47.7842 288.5 43.7782 286.5 52C269.5 38.5 283.5 8.00007 316.008 21.6095C310.955 8.17417 332.723 8.75449 333.145 12.2889Z" fill="#191A19" stroke="#191A19"/>
<path d="M317.209 121.962L301.442 122.743C301.442 122.743 288.187 119.501 283.69 119.773C280.191 120.187 276.789 121.191 273.626 122.743C272.199 123.804 271.099 125.245 270.452 126.901C270.321 127.716 270.321 128.547 270.452 129.362C270.451 129.792 270.614 130.207 270.907 130.522C271.2 130.837 271.601 131.029 272.031 131.059C275.051 131.28 280.058 131.551 281.246 130.058C281.246 130.058 280.262 131.229 282.044 131.229C283.826 131.229 286.253 128.411 286.253 128.411L291.582 128.191C291.582 128.191 293.873 131.042 300.78 131.229C301.901 131.066 303 130.775 304.056 130.363L316.869 132.06L318.566 129.871V122.454L317.209 121.962Z" fill="white" stroke="#191A19" stroke-linecap="round" stroke-linejoin="round"/>
<path d="M272.863 129.854C272.863 129.854 274.34 124.559 276.037 123.507C277.532 122.764 279.067 122.107 280.636 121.538" stroke="#191A19" stroke-linecap="round" stroke-linejoin="round"/>
<path d="M276.529 129.854C276.704 128.606 277.071 127.393 277.615 126.256C279.009 124.698 280.754 123.493 282.706 122.743C283.897 122.629 285.096 122.629 286.287 122.743" stroke="#191A19" stroke-linecap="round" stroke-linejoin="round"/>
<path d="M281.603 128.87C281.603 128.87 282.078 126.613 282.672 126.137C283.774 125.484 284.988 125.04 286.253 124.831C287.19 124.76 288.132 124.76 289.07 124.831" stroke="#191A19" stroke-linecap="round" stroke-linejoin="round"/>
<path d="M314.442 132.264C314.442 132.264 335.744 131.264 341 128.5C347.568 128.822 341.662 98.7978 341 85C337.5 68 329.5 68 329.5 68C319.962 87.8227 331.5 116 331.5 116L315.885 121.436C315.885 121.436 317.939 128.327 314.442 132.264Z" fill="white" stroke="#191A19" stroke-linecap="round" stroke-linejoin="round"/>
<path d="M283.403 82.0288C282.126 88.3154 281.439 94.7074 281.349 101.122" stroke="#191A19" stroke-linecap="round" stroke-linejoin="round"/>
<path d="M263.444 91.2104H256.655L266.007 135.234H272.795C273.245 135.252 273.693 135.162 274.102 134.973C274.511 134.784 274.869 134.5 275.147 134.146C275.426 133.792 275.616 133.376 275.703 132.934C275.789 132.492 275.77 132.036 275.646 131.603L267.823 94.8254C267.584 93.8292 267.028 92.9376 266.238 92.2855C265.448 91.6333 264.467 91.256 263.444 91.2104Z" fill="#191A19"/>
<path d="M263.444 91.2104H256.655L266.007 135.234H272.795C273.245 135.252 273.693 135.162 274.102 134.973C274.511 134.784 274.869 134.5 275.147 134.146C275.426 133.792 275.616 133.376 275.703 132.934C275.789 132.492 275.77 132.036 275.646 131.603L267.823 94.8254C267.584 93.8292 267.028 92.9376 266.238 92.2855C265.448 91.6333 264.467 91.256 263.444 91.2104Z" fill="#439037" stroke="#191A19" stroke-linecap="round" stroke-linejoin="round"/>
<path d="M275.663 131.602H311.303V133.299C311.303 133.562 311.251 133.823 311.15 134.066C311.05 134.309 310.902 134.529 310.716 134.715C310.53 134.901 310.309 135.049 310.066 135.149C309.824 135.25 309.563 135.302 309.3 135.302H277.614C277.351 135.302 277.091 135.25 276.848 135.149C276.605 135.049 276.384 134.901 276.198 134.715C276.012 134.529 275.865 134.309 275.764 134.066C275.664 133.823 275.612 133.562 275.612 133.299V131.602H275.663Z" fill="#191A19"/>
<mask id="mask3_740_623" style="mask-type:luminance" maskUnits="userSpaceOnUse" x="275" y="131" width="37" height="5">
<path d="M275.663 131.602H311.303V133.299C311.303 133.562 311.251 133.823 311.15 134.066C311.05 134.309 310.902 134.529 310.716 134.715C310.53 134.901 310.309 135.049 310.066 135.149C309.824 135.25 309.563 135.302 309.3 135.302H277.614C277.351 135.302 277.091 135.25 276.848 135.149C276.605 135.049 276.384 134.901 276.198 134.715C276.012 134.529 275.865 134.309 275.764 134.066C275.664 133.823 275.612 133.562 275.612 133.299V131.602H275.663Z" fill="white"/>
</mask>
<g mask="url(#mask3_740_623)">
<path opacity="0.2" d="M275.663 131.602H311.303V133.299C311.303 133.562 311.251 133.823 311.15 134.066C311.05 134.309 310.902 134.529 310.716 134.715C310.53 134.901 310.309 135.049 310.066 135.149C309.824 135.25 309.563 135.302 309.3 135.302H277.614C277.351 135.302 277.091 135.25 276.848 135.149C276.605 135.049 276.384 134.901 276.198 134.715C276.012 134.529 275.865 134.309 275.764 134.066C275.664 133.823 275.612 133.562 275.612 133.299V131.602H275.663Z" fill="white"/>
</g>
<path d="M275.663 131.602H311.303V133.299C311.303 133.562 311.251 133.823 311.15 134.066C311.05 134.309 310.902 134.529 310.716 134.715C310.53 134.901 310.309 135.049 310.066 135.149C309.824 135.25 309.563 135.302 309.3 135.302H277.614C277.351 135.302 277.091 135.25 276.848 135.149C276.605 135.049 276.384 134.901 276.198 134.715C276.012 134.529 275.865 134.309 275.764 134.066C275.664 133.823 275.612 133.562 275.612 133.299V131.602H275.663Z" stroke="#191A19" stroke-linecap="round" stroke-linejoin="round"/>
<path d="M270.181 135.234H214.99C213.962 135.188 212.977 134.809 212.184 134.154C211.391 133.498 210.833 132.603 210.594 131.602L202.787 94.8248C202.663 94.3925 202.643 93.9367 202.73 93.4953C202.817 93.0538 203.007 92.6393 203.286 92.2861C203.564 91.9328 203.923 91.651 204.332 91.4639C204.741 91.2767 205.189 91.1897 205.638 91.2099H260.83C261.854 91.2527 262.836 91.629 263.626 92.2816C264.417 92.9342 264.972 93.8273 265.208 94.8248L273.032 131.602C273.156 132.035 273.175 132.492 273.088 132.934C273.002 133.376 272.811 133.791 272.533 134.145C272.255 134.5 271.897 134.783 271.488 134.972C271.079 135.162 270.631 135.251 270.181 135.234Z" fill="#191A19"/>
<mask id="mask4_740_623" style="mask-type:luminance" maskUnits="userSpaceOnUse" x="202" y="91" width="72" height="45">
<path d="M270.181 135.234H214.99C213.962 135.189 212.977 134.809 212.184 134.154C211.391 133.499 210.833 132.603 210.594 131.602L202.787 94.8253C202.663 94.393 202.643 93.9372 202.73 93.4957C202.817 93.0543 203.007 92.6398 203.286 92.2866C203.564 91.9333 203.923 91.6515 204.332 91.4644C204.741 91.2772 205.189 91.1902 205.638 91.2104H260.83C261.854 91.2532 262.836 91.6295 263.626 92.2821C264.417 92.9347 264.972 93.8278 265.208 94.8253L273.032 131.602C273.156 132.036 273.175 132.492 273.088 132.934C273.002 133.376 272.811 133.791 272.533 134.146C272.255 134.5 271.897 134.784 271.488 134.973C271.079 135.162 270.631 135.252 270.181 135.234Z" fill="white"/>
</mask>
<g mask="url(#mask4_740_623)">
<path d="M270.181 135.234H214.99C213.962 135.189 212.977 134.809 212.184 134.154C211.391 133.499 210.833 132.603 210.594 131.602L202.787 94.8253C202.663 94.393 202.643 93.9372 202.73 93.4957C202.817 93.0543 203.007 92.6398 203.286 92.2866C203.564 91.9333 203.923 91.6515 204.332 91.4644C204.741 91.2772 205.189 91.1902 205.638 91.2104H260.83C261.854 91.2532 262.836 91.6295 263.626 92.2821C264.417 92.9347 264.972 93.8278 265.208 94.8253L273.032 131.602C273.156 132.036 273.175 132.492 273.088 132.934C273.002 133.376 272.811 133.791 272.533 134.146C272.255 134.5 271.897 134.784 271.488 134.973C271.079 135.162 270.631 135.252 270.181 135.234Z" fill="#BFBFBF" stroke="#191A19" stroke-linecap="round" stroke-linejoin="round"/>
</g>
<path d="M270.181 135.234H214.99C213.962 135.188 212.977 134.809 212.184 134.154C211.391 133.498 210.833 132.603 210.594 131.602L202.787 94.8248C202.663 94.3925 202.643 93.9367 202.73 93.4953C202.817 93.0538 203.007 92.6393 203.286 92.2861C203.564 91.9328 203.923 91.651 204.332 91.4639C204.741 91.2767 205.189 91.1897 205.638 91.2099H260.83C261.854 91.2527 262.836 91.629 263.626 92.2816C264.417 92.9342 264.972 93.8273 265.208 94.8248L273.032 131.602C273.156 132.035 273.175 132.492 273.088 132.934C273.002 133.376 272.811 133.791 272.533 134.145C272.255 134.5 271.897 134.783 271.488 134.972C271.079 135.162 270.631 135.251 270.181 135.234Z" stroke="#191A19" stroke-linecap="round" stroke-linejoin="round"/>
<path d="M209.067 224.844V135.217H330.226C330.228 136.34 330.007 137.453 329.576 138.49C329.145 139.527 328.512 140.468 327.714 141.259C326.922 142.054 325.98 142.683 324.943 143.112C323.906 143.54 322.794 143.758 321.672 143.754H221.609V238.166" stroke="#191A19" stroke-linecap="round" stroke-linejoin="round"/>
<path d="M398.893 438.633C470.605 366.921 470.605 250.652 398.893 178.94C327.181 107.227 210.912 107.227 139.199 178.94C67.4869 250.652 67.4869 366.921 139.199 438.633C210.912 510.346 327.181 510.346 398.893 438.633Z" fill="#EEF8ED"/>
<path d="M175.576 200.538C173.454 198.943 163.288 202.405 163.254 199.384C163.254 197.382 170.043 191.747 171.384 189.201C173.285 185.485 172.3 180.308 174.065 176.812C175.537 173.798 177.479 171.036 179.819 168.632C190.137 159.909 205.887 150.456 219.023 149.794C223.741 149.556 230.207 157.668 231.276 163.999C231.904 167.749 231.276 178.9 227.882 182.803C222.892 188.692 211.929 188.76 206.107 193.342C199.319 198.671 196.026 211.247 188.219 215.405C186.047 216.559 181.923 214.285 180.514 213.097C177.901 210.942 177.935 202.354 175.576 200.538Z" fill="#439037"/>
<path d="M388.397 389.532C387.18 389.243 385.905 389.319 384.731 389.753C381.693 391.45 377.264 398.119 375.702 401.378C373.903 405.095 371.748 413.156 371.918 416.652C372.019 418.604 373.14 422.474 374.752 422.677C375.974 422.83 379.198 420.42 380.335 419.062C386.208 412.036 393.234 401.106 392.708 392.4C392.64 391.076 389.721 389.854 388.397 389.532Z" fill="#439037"/>
<path d="M277.064 221.498C279.271 221.277 284.141 220.089 285.55 218.104C287.722 214.896 288.554 205.239 286.297 202.507C285.329 201.37 281.765 201.607 280.543 202.609C278.965 203.916 279.389 209.397 277.811 210.857C276.233 212.316 271.769 210.28 270.411 211.824C269.054 213.369 268.714 218.443 269.716 220.005C270.717 221.566 275.129 221.685 277.064 221.498Z" fill="#439037"/>
<path d="M386.598 167.733C384.831 169.096 383.648 171.08 383.288 173.282C383.203 174.776 386.241 179.086 385.868 180.41C384.917 183.652 377.382 185.943 373.479 183.906C372.308 183.278 371.289 179.714 370.169 178.934C365.434 175.641 356.422 177.865 351.84 177.593C349.655 177.66 347.468 177.529 345.306 177.203C337.55 174.827 329.489 166.799 321.546 166.477C317.626 166.324 308.749 171.958 305.983 176.099C302.14 181.972 300.018 188.804 299.856 195.82C299.856 198.739 302.504 204.934 304.812 206.495C307.12 208.057 313.586 208.379 315.708 206.495C317.184 205.222 316.336 199.843 317.541 198.298C318.746 196.754 323.65 193.801 325.093 195.141C329.489 199.266 330.541 210.687 327.893 215.677C325.059 221.023 313.264 226.539 307.154 223.687C304.897 222.635 306.764 214.2 304.846 212.181C302.928 210.161 297.158 208.786 295.291 210.484C293.017 212.639 296.886 220.989 295.037 223.62C292.966 226.539 284.769 225.622 281.969 227.828C279.898 229.526 276.402 234.244 276.147 236.925C275.927 239.216 280.95 243.12 279.711 245.071C278.014 247.889 269.257 242.678 267.102 245.224C264.233 248.618 266.304 259.616 269.528 262.365C271.938 264.436 279.813 264.283 282.41 262.365C284.277 260.94 283.14 254.694 285.023 253.32C287.501 251.521 294.052 254.83 296.903 254.1C299.178 253.523 302.606 248.754 304.88 249.162C307.935 249.705 312.347 255.865 312.924 259.039C313.366 261.398 308.02 266.439 309.768 268.068C311.923 270.053 319.153 265.861 320.222 263.163C321.58 259.769 313.909 252.607 315.131 249.179C315.65 248.415 316.353 247.793 317.173 247.369C317.994 246.945 318.908 246.733 319.832 246.752C324.261 247.804 326.96 260.329 331.423 261.585C334.58 262.484 340.079 256.035 343.303 256.799C347.071 257.698 353.147 264.572 354.318 268.339C355.132 270.97 354.114 277.266 352.264 278.913C345.917 284.564 334.088 285.888 325.398 285.345C321.257 285.073 312.84 281.696 309.802 278.743C307.697 276.689 307.256 269.425 304.897 268.051C298.753 264.487 288.978 265.064 282.223 267.287C270.343 271.224 255.782 282.561 249.078 293.593C246.668 297.598 249.078 308.324 246.685 312.261C245.921 313.5 242.493 314.196 241.831 315.486C239.794 319.406 240.338 329.538 242.527 333.34C247.33 340.942 254.462 346.788 262.859 350.006C271.192 352.857 282.664 348.309 291.489 350.26C294.29 350.888 300.315 354.147 301.859 356.845C303.879 360.392 300.756 369.71 302.674 373.291C304.235 376.244 312.857 376.142 314.028 379.01C318.372 389.363 308.003 403.296 309.581 414.345C310.124 418.078 315.894 423.883 316.37 427.413C317.371 433.964 313.739 442.84 316.285 448.729C317.982 452.581 327.791 454.126 331.474 452.123C339.434 447.965 348.174 437.918 351.84 429.907C355.234 422.593 352.332 411.239 356.032 404.79C359.036 399.698 368.659 397.17 371.849 391.976C376.601 384.288 372.936 370.151 377.399 362.124C380.895 355.861 391.061 352.212 394.37 345.627C395.694 343.031 395.032 335.224 393.148 333.747C388.532 329.98 377.654 332.61 373.241 328.452C371.306 326.636 374.14 318.49 372.936 315.52C371.731 312.55 365.875 309.478 364.891 306.644C363.907 303.81 363.33 295.884 365.689 293.661C366.741 292.693 370.254 292.999 371.442 293.661C377.823 297.242 383.186 305.116 385.325 312.194C386.054 314.603 382.745 320.493 384.12 322.648C385.121 324.226 389.466 325.262 391.333 324.973C399.513 323.7 413.548 317.573 414.872 311.192C416.569 303.368 395.219 294.509 397.493 285.735C398.206 282.952 409.034 283.054 412.19 285.09C414.397 286.516 414.21 292.71 415.805 294.594C420.15 299.686 426.939 303.165 433.065 306.338C435.95 307.815 443.622 308.239 445.234 310.887C447.338 314.281 441.178 323.463 442.366 327.044C444.109 331.78 446.633 336.192 449.833 340.095C455.339 308.342 452.395 275.7 441.295 245.446C430.195 215.192 411.332 188.39 386.598 167.733Z" fill="#439037"/>
<path d="M172.944 427.481C166.155 420.964 158.128 410.645 157.381 402.431C156.515 392.927 175.065 388.616 176.05 377.992C176.406 374.156 167.173 364.109 167.92 360.087C168.667 356.065 178.952 351.992 178.493 347.647C177.577 338.771 168.158 328.775 160.758 324.006C156.77 321.426 145.229 324.634 141.767 321.29C140.07 319.695 142.769 314.502 141.088 313.025C138.933 311.124 132.297 313.942 129.599 312.856C126.476 311.6 123.183 304.913 120.196 303.929C110.098 300.534 95.3503 308.867 85.439 304.913C85.439 306.203 85.439 307.493 85.439 308.782V309.682C87.1804 310.543 88.6273 311.902 89.597 313.585C89.8673 315.041 89.8127 316.538 89.4372 317.969C89.0617 319.401 88.3744 320.732 87.4246 321.867C86.9766 322.149 86.46 322.301 85.9311 322.309C86.3045 327.553 86.9155 332.729 87.7301 337.837C92.8216 341.045 99.4404 343.183 102.75 347.596C104.769 350.295 100.459 356.506 102.75 359.137C107.315 364.313 117.6 364.754 122.657 369.32C134.537 380.029 136.421 401.684 149.727 413.92C152.052 416.059 157.619 418.112 159.91 420.319C163.117 423.441 164.441 429.263 167.886 432.199C173.792 437.29 183.789 445.776 189.27 445.301C190.255 445.216 186.487 436.815 183.33 433.421C180.971 431.011 175.439 429.772 172.944 427.481Z" fill="#439037"/>
<path d="M92.2276 275.772C93.8255 276.314 95.568 276.242 97.1154 275.569C99.4405 273.753 97.3869 267.762 99.3217 265.691C107.519 256.9 124.032 257.511 131.72 248.024C133.876 245.36 130.583 238.469 133.417 236.45C142.599 230.119 157.177 243.374 165.222 237.553C169.974 234.158 174.2 222.278 172.01 216.932C171.603 215.931 166.444 218.324 165.408 217.577C163.321 216.067 166.8 206.784 164.899 206.139C159.418 204.272 150.287 209.109 144.534 212.248C142.955 213.131 140.172 216.627 138.628 217.119C135.352 218.154 128.937 215.914 130.651 213.555C134.486 208.311 144.415 206.936 149.88 202.727C154.683 199.011 163.151 191.289 163.049 187.334C162.897 181.937 139.968 188.013 134.198 190.898C130.804 192.595 123.506 199.639 120.044 201.319C105 222.092 94.4987 245.801 89.2236 270.902C90.1401 272.887 90.819 275.178 92.2276 275.772Z" fill="#439037"/>
<path d="M489.337 330.516H434.214C432.979 330.513 431.794 330.032 430.905 329.175C430.016 328.318 429.493 327.151 429.445 325.917L425.66 224.224C425.635 223.556 425.75 222.891 425.999 222.271C426.248 221.65 426.625 221.09 427.106 220.625C427.586 220.161 428.16 219.803 428.788 219.575C429.416 219.347 430.085 219.254 430.752 219.302L495.243 223.851C496.484 223.93 497.645 224.49 498.479 225.413C499.313 226.335 499.753 227.547 499.707 228.789L494.106 325.951C494.049 327.179 493.523 328.338 492.635 329.188C491.747 330.037 490.566 330.513 489.337 330.516Z" fill="white" stroke="#191A19" stroke-linecap="round" stroke-linejoin="round"/>
<path d="M450.235 269.826C450.63 268.45 450.903 267.042 451.05 265.617C451.05 264.701 450.541 262.664 449.76 262.223C448.979 261.782 444.957 262.512 444.957 262.512C444.957 262.512 445.907 259.372 445.262 258.659C444.618 257.946 442.564 258.235 441.766 258.659C440.46 259.253 438.881 261.867 437.999 263.004C436.929 264.395 435.063 267.365 434.061 268.791C433.586 269.504 432.093 271.608 432.093 271.608L419.822 275.987L420.484 288.41L434.316 280.06C434.316 280.06 446.722 280.06 449.336 277.26C450.608 275.8 449.947 271.642 450.235 269.826Z" fill="white" stroke="#191A19" stroke-linecap="round" stroke-linejoin="round"/>
<path d="M430.277 244.674C429.581 254.518 428.105 264.853 425.101 270.793H430.192C430.192 270.793 425.576 279.058 428.495 286.865C428.495 286.865 414.477 296.285 411.354 290.26C408.231 284.235 411.846 259.881 415.054 248.17C418.261 236.46 419.245 218.47 430.684 219.319" fill="white"/>
<path d="M430.277 244.674C429.581 254.518 428.105 264.853 425.101 270.793H430.192C430.192 270.793 425.576 279.058 428.495 286.865C428.495 286.865 414.477 296.284 411.354 290.26C408.231 284.235 411.846 259.881 415.054 248.17C418.261 236.46 419.245 218.47 430.684 219.319" stroke="#191A19" stroke-linecap="round" stroke-linejoin="round"/>
<path d="M422.997 271.609C420.668 272.518 418.676 274.124 417.294 276.208" stroke="#191A19" stroke-linecap="round" stroke-linejoin="round"/>
<path d="M450.371 239.634L452.679 239.329C453.056 239.276 453.439 239.299 453.807 239.395C454.175 239.491 454.521 239.66 454.824 239.89C455.126 240.12 455.381 240.408 455.572 240.737C455.763 241.066 455.887 241.43 455.937 241.807L458.534 260.866C458.587 261.243 458.564 261.628 458.468 261.997C458.372 262.366 458.204 262.713 457.974 263.017C457.744 263.321 457.456 263.577 457.127 263.77C456.798 263.963 456.434 264.089 456.056 264.141L453.748 264.447L450.371 239.634Z" fill="white" stroke="#191A19" stroke-linecap="round" stroke-linejoin="round"/>
<path d="M446.445 265.456L454.063 264.418C455.874 264.171 457.142 262.503 456.895 260.692L454.406 242.429C454.16 240.618 452.491 239.35 450.68 239.597L443.063 240.635C441.252 240.882 439.984 242.55 440.23 244.361L442.719 262.623C442.966 264.434 444.634 265.702 446.445 265.456Z" fill="#439037"/>
<path d="M446.445 265.456L454.063 264.418C455.874 264.171 457.142 262.503 456.895 260.692L454.406 242.429C454.16 240.618 452.491 239.35 450.68 239.597L443.063 240.635C441.252 240.882 439.984 242.55 440.23 244.361L442.719 262.623C442.966 264.434 444.634 265.702 446.445 265.456Z" stroke="#191A19" stroke-linecap="round" stroke-linejoin="round"/>
<path d="M441.987 243.758C442.006 243.895 442.052 244.027 442.122 244.147C442.192 244.266 442.285 244.37 442.395 244.454C442.505 244.537 442.631 244.598 442.765 244.633C442.899 244.668 443.038 244.677 443.175 244.658C443.312 244.639 443.444 244.593 443.564 244.523C443.683 244.453 443.787 244.36 443.871 244.25C443.954 244.14 444.015 244.014 444.05 243.88C444.085 243.746 444.094 243.607 444.075 243.47C444.033 243.195 443.885 242.947 443.663 242.779C443.441 242.611 443.163 242.536 442.887 242.57C442.749 242.589 442.617 242.634 442.498 242.704C442.378 242.774 442.274 242.867 442.19 242.977C442.107 243.088 442.046 243.214 442.011 243.348C441.976 243.481 441.968 243.621 441.987 243.758Z" fill="white" stroke="#191A19" stroke-linecap="round" stroke-linejoin="round"/>
<path d="M443.922 262.546C443.684 261.133 443.57 259.702 443.583 258.269C443.752 257.352 444.414 255.384 445.28 254.976C446.145 254.569 450.032 255.808 450.032 255.808C450.032 255.808 449.421 252.567 450.151 251.939C450.88 251.311 452.883 251.82 453.545 252.261C454.784 252.991 456.057 255.774 456.803 256.996C457.703 258.507 459.23 261.646 460.062 263.191C460.469 263.954 461.759 266.195 461.759 266.195L472.723 271.218L467.631 280.434L458.636 274.358C458.636 274.358 446.298 272.949 444.007 269.894C442.887 268.418 444.007 264.43 443.922 262.546Z" fill="white" stroke="#191A19" stroke-linecap="round" stroke-linejoin="round"/>
<path d="M494.276 229.078C494.548 227.856 494.836 226.651 495.159 225.463C495.225 225.155 495.375 224.872 495.592 224.644C495.81 224.417 496.087 224.254 496.391 224.175C496.696 224.096 497.017 224.103 497.317 224.196C497.618 224.288 497.888 224.463 498.095 224.699L498.519 225.157C500.767 227.552 502.382 230.468 503.22 233.643C506.207 244.963 512.673 273.407 508.091 294.282C507.828 295.454 507.16 296.496 506.203 297.223C505.246 297.95 504.064 298.315 502.864 298.253C494.463 297.744 479.766 295.64 463.694 279.721C463.694 279.721 467.088 271.761 471.076 269.029L493.309 278.007C492.255 270.052 491.756 262.033 491.816 254.009" fill="white"/>
<path d="M494.276 229.078C494.548 227.856 494.836 226.651 495.159 225.463C495.225 225.155 495.375 224.872 495.592 224.644C495.81 224.417 496.087 224.254 496.391 224.175C496.696 224.096 497.017 224.103 497.317 224.196C497.618 224.288 497.888 224.463 498.095 224.699L498.519 225.157C500.767 227.552 502.382 230.468 503.22 233.643C506.207 244.963 512.673 273.407 508.091 294.282C507.828 295.454 507.16 296.496 506.203 297.223C505.246 297.95 504.064 298.315 502.864 298.253C494.463 297.744 479.766 295.64 463.694 279.721C463.694 279.721 467.088 271.761 471.076 269.029L493.309 278.007C492.255 270.052 491.756 262.033 491.816 254.009" stroke="#191A19" stroke-linecap="round" stroke-linejoin="round"/>
<path d="M495.227 279.449C496.146 279.945 496.957 280.619 497.613 281.432C498.269 282.245 498.756 283.181 499.046 284.184" stroke="#191A19" stroke-linecap="round" stroke-linejoin="round"/>
<path d="M465.306 206.404L479.749 183.238C479.749 183.238 487.233 180.132 483.228 176.144C483.228 176.144 489.66 165.011 481.31 165.011C481.31 165.011 480.241 155.965 472.162 159.614C472.162 159.614 465.136 151.264 460.435 157.357C460.435 157.357 450.795 152.656 448.317 158.562C448.317 158.562 441.274 158.562 441.529 163.789C441.529 163.789 437.099 169.695 442.937 170.391C442.937 170.391 441.393 175.092 448.3 175.092C455.208 175.092 463.727 183.578 463.727 183.578L465.425 192.267L465.306 206.404Z" fill="#191A19" stroke="#191A19" stroke-linecap="round" stroke-linejoin="round"/>
<path d="M474.708 222.697C474.708 222.697 459.009 231.318 447.554 220.27C447.554 220.27 450.439 214.839 451.44 201.346L468.089 198.376C467.609 202.965 467.78 207.599 468.598 212.14C469.701 217.283 472.705 222.001 474.708 222.697Z" fill="white"/>
<path d="M474.708 222.697C474.708 222.697 459.009 231.318 447.554 220.27C447.554 220.27 450.439 214.839 451.44 201.346L468.089 198.376C467.609 202.965 467.78 207.599 468.598 212.14C469.701 217.283 472.705 222.001 474.708 222.697Z" stroke="#191A19" stroke-linecap="round" stroke-linejoin="round"/>
<path d="M444.295 172.648L441.665 181.032C441.374 181.918 441.292 182.859 441.427 183.781L441.8 186.259L440.426 191.775C440.358 192.06 440.307 192.349 440.273 192.64C439.984 195.542 438.864 211.02 447.062 213.006C454.308 214.703 463.133 206.896 466.324 203.723C467.118 202.935 467.752 202.002 468.191 200.973L470.024 196.798C471.071 196.954 472.14 196.779 473.083 196.298C474.026 195.818 474.796 195.055 475.285 194.117C476.982 190.723 479.188 188.805 475.913 186.463C472.637 184.121 470.567 188.873 470.567 188.873C470.567 188.873 470.669 182.899 469.888 181.1C469.107 179.301 466.409 177.213 465.713 175.652C465.372 174.443 465.144 173.204 465.034 171.952C465.034 171.952 453.833 172.258 445.874 169.22L444.295 172.648Z" fill="white" stroke="#191A19" stroke-linecap="round" stroke-linejoin="round"/>
<path d="M444.295 172.648L441.665 181.032C441.374 181.918 441.292 182.859 441.427 183.781L441.8 186.259L440.426 191.775C440.358 192.06 440.307 192.349 440.273 192.64C439.984 195.542 438.864 211.02 447.062 213.006C454.308 214.703 463.133 206.896 466.324 203.723C467.118 202.935 467.752 202.002 468.191 200.973L470.024 196.798C471.071 196.954 472.14 196.779 473.083 196.298C474.026 195.818 474.796 195.055 475.285 194.117C476.982 190.723 479.188 188.805 475.913 186.463C472.637 184.121 470.567 188.873 470.567 188.873C470.567 188.873 470.669 182.899 469.888 181.1C469.107 179.301 466.409 177.213 465.713 175.652C465.372 174.443 465.144 173.204 465.034 171.952C465.034 171.952 453.833 172.258 445.874 169.22L444.295 172.648Z" fill="white" stroke="#191A19" stroke-linecap="round" stroke-linejoin="round"/>
<path d="M449.506 189.212L445.399 195.814C445.283 196.034 445.217 196.278 445.206 196.527C445.195 196.775 445.239 197.024 445.334 197.254C445.43 197.484 445.575 197.69 445.759 197.857C445.943 198.025 446.162 198.15 446.4 198.224L450.015 199.072" stroke="#191A19" stroke-linecap="round" stroke-linejoin="round"/>
<path d="M455.479 202.857C452.967 204.86 449.777 205.148 448.232 203.739" stroke="#191A19" stroke-linecap="round" stroke-linejoin="round"/>
<path d="M455.039 191.452C454.886 192.436 454.377 193.149 453.901 193.149C453.426 193.149 453.189 192.216 453.358 191.248C453.528 190.281 454.02 189.551 454.495 189.551C454.971 189.551 455.242 190.519 455.039 191.452Z" fill="#191A19"/>
<path d="M445.89 189.976C445.721 190.96 445.212 191.673 444.753 191.673C444.295 191.673 444.041 190.74 444.193 189.772C444.346 188.805 444.872 188.075 445.33 188.075C445.789 188.075 446.043 189.009 445.89 189.976Z" fill="#191A19"/>
<path d="M442.055 184.052C442.18 183.637 442.397 183.255 442.689 182.934C442.981 182.614 443.342 182.363 443.744 182.2C444.146 182.037 444.58 181.966 445.013 181.993C445.446 182.02 445.868 182.144 446.247 182.355" stroke="#191A19" stroke-linecap="round" stroke-linejoin="round"/>
<path d="M453.07 182.966C454.124 182.98 455.149 183.312 456.012 183.917C456.875 184.523 457.535 185.374 457.907 186.361" stroke="#191A19" stroke-linecap="round" stroke-linejoin="round"/>
<path d="M468.377 171.816C468.377 171.816 459.196 178.503 458.11 173.666C458.11 173.666 450.473 175.499 449.963 172.936C449.963 172.936 442.326 175.991 441.478 173.615C440.629 171.239 447.57 164.926 447.57 164.926L463.71 166.979L468.377 171.816Z" fill="#191A19" stroke="#191A19" stroke-linecap="round" stroke-linejoin="round"/>
<path d="M420.824 533.308C419.236 533.82 417.78 534.673 416.557 535.808C415.335 536.942 414.375 538.331 413.747 539.876C413.624 540.146 413.574 540.444 413.602 540.74C413.631 541.035 413.736 541.318 413.908 541.561C414.079 541.803 414.312 541.996 414.581 542.12C414.851 542.244 415.148 542.296 415.444 542.269H440.409C440.889 542.274 441.355 542.105 441.72 541.793C442.085 541.481 442.325 541.047 442.395 540.572C442.803 537.441 442.382 534.257 441.173 531.34L442.548 515.963H427.969L426.849 530.678L420.824 533.308Z" fill="white" stroke="#191A19" stroke-linecap="round" stroke-linejoin="round"/>
<path d="M436.726 533.156C439.34 536.805 438.695 531.34 441.105 531.34C442.314 534.257 442.736 537.441 442.327 540.572C442.257 541.048 442.018 541.481 441.652 541.793C441.287 542.105 440.822 542.275 440.341 542.269H415.376C415.081 542.296 414.783 542.245 414.513 542.12C414.244 541.996 414.011 541.803 413.84 541.561C413.668 541.319 413.563 541.036 413.535 540.74C413.506 540.445 413.556 540.147 413.679 539.876C414.308 538.331 415.267 536.943 416.49 535.808C417.712 534.673 419.169 533.82 420.756 533.309L426.713 530.678C426.713 530.678 434.13 529.507 436.726 533.156Z" fill="#191A19" stroke="#191A19" stroke-linecap="round" stroke-linejoin="round"/>
<path d="M431.091 328.361L426 525.23H443.99C443.99 525.23 449.556 476.013 450.201 459.448C450.49 452.049 452 439.083 452.509 431.615C453.409 418.225 455.496 403.307 460.639 377.307C461.47 373.115 466.511 365.868 467.58 361.71C469.668 353.614 470.55 328.31 470.55 328.31L431.091 328.361Z" fill="#191A19" stroke="#191A19" stroke-linecap="round" stroke-linejoin="round"/>
<path d="M508.533 533.308C510.858 534.326 514.439 535.837 515.797 540.402C515.854 540.623 515.859 540.853 515.814 541.076C515.768 541.299 515.672 541.509 515.532 541.689C515.393 541.869 515.215 542.015 515.011 542.115C514.806 542.216 514.582 542.269 514.354 542.269H489.389C488.795 542.269 488.222 542.052 487.778 541.658C487.334 541.263 487.05 540.72 486.979 540.131C486.68 537.139 487.123 534.119 488.269 531.34L486.877 515.963H501.473L502.576 530.678L508.533 533.308Z" fill="white" stroke="#191A19" stroke-linecap="round" stroke-linejoin="round"/>
<path d="M515.796 540.402C515.853 540.623 515.858 540.853 515.813 541.076C515.767 541.299 515.671 541.509 515.531 541.689C515.392 541.869 515.214 542.015 515.01 542.116C514.805 542.216 514.581 542.269 514.353 542.269H489.388C488.794 542.269 488.221 542.052 487.777 541.658C487.333 541.264 487.049 540.72 486.978 540.131C486.679 537.139 487.122 534.119 488.268 531.34C490.61 530.949 489.1 536.024 492.952 532.901C496.805 529.778 502.575 530.678 502.575 530.678L508.532 533.308C510.857 534.276 514.438 535.837 515.796 540.402Z" fill="#191A19" stroke="#191A19" stroke-linecap="round" stroke-linejoin="round"/>
<path d="M492.375 328.395C492.375 328.395 494.92 347.963 495.294 354.531C495.497 358.418 495.158 366.224 495.294 370.111C495.769 385.08 497.636 415 499.112 429.884C499.876 437.725 502.778 453.254 503.304 461.112C504.391 477.116 503.304 525.298 503.304 525.298H485.23C485.23 525.298 477.898 470.989 475.997 452.762C475.318 446.296 467.817 382.042 462.709 368.04C461.741 365.359 459.535 360.861 458.618 358.163C456.79 352.503 455.461 346.693 454.647 340.801C454.376 337.712 454.189 328.429 454.189 328.429L492.375 328.395Z" fill="#191A19" stroke="#191A19" stroke-linecap="round" stroke-linejoin="round"/>
<path d="M476.321 200.838H522.449C526.064 200.838 529 205.03 529 210.206V225.803C529 230.894 526.064 235.154 522.449 235.154H485.655L470.805 245.032L476.321 235.154C472.706 235.154 469.787 230.962 469.787 225.803V210.206C469.787 205.03 472.706 200.838 476.321 200.838Z" fill="white" stroke="#191A19" stroke-linecap="round" stroke-linejoin="round"/>
<path d="M518.596 210.41H479.579" stroke="#191A19" stroke-linecap="round" stroke-linejoin="round"/>
<path d="M518.596 217.333H482.583" stroke="#191A19" stroke-linecap="round" stroke-linejoin="round"/>
<path d="M518.596 224.275H479.579" stroke="#191A19" stroke-linecap="round" stroke-linejoin="round"/>
<path d="M9.37402 326.818H51.9215C53.8503 326.972 55.6636 327.799 57.0442 329.155C58.4248 330.511 59.2848 332.309 59.4737 334.234L69.5039 424.675C69.8848 428.171 71.5442 431.402 74.1631 433.749C76.782 436.095 80.1757 437.391 83.692 437.387" stroke="#191A19" stroke-linecap="round" stroke-linejoin="round"/>
<path d="M125 448.774V457.107H24.0203C20.4327 457.106 16.9772 455.754 14.3417 453.319C11.7062 450.885 10.0841 447.548 9.79827 443.972L1.02403 335.439C0.936085 334.306 1.09015 333.168 1.476 332.099C1.86185 331.03 2.47066 330.056 3.262 329.24C4.05333 328.425 5.00908 327.787 6.06578 327.37C7.12249 326.952 8.25597 326.764 9.39096 326.818C11.3179 326.972 13.1291 327.8 14.5068 329.156C15.8846 330.512 16.7411 332.31 16.9263 334.234L26.9564 424.675C27.3452 428.174 29.0116 431.405 31.636 433.751C34.2605 436.097 37.6585 437.391 41.1785 437.387H113.63C116.647 437.391 119.539 438.593 121.671 440.728C123.803 442.863 125 445.757 125 448.774Z" fill="#439037" stroke="#191A19" stroke-linecap="round" stroke-linejoin="round"/>
<mask id="mask5_740_623" style="mask-type:luminance" maskUnits="userSpaceOnUse" x="63" y="457" width="15" height="29">
<path d="M77.2255 483.617V457.107H63.9199V485.297" fill="white"/>
</mask>
<g mask="url(#mask5_740_623)">
<path d="M103.022 537.332H77.2252V454.172H63.9196V537.332H38.123C35.9849 537.332 33.9345 538.181 32.4227 539.693C30.9109 541.205 30.0615 543.255 30.0615 545.393H111.083C111.085 544.334 110.878 543.285 110.474 542.306C110.07 541.327 109.476 540.437 108.727 539.688C107.978 538.939 107.088 538.345 106.109 537.941C105.13 537.537 104.081 537.33 103.022 537.332Z" stroke="#191A19" stroke-linecap="round" stroke-linejoin="round"/>
</g>
<path d="M77.226 483.617V457.108H63.9204V485.298" stroke="#191A19" stroke-linecap="round" stroke-linejoin="round"/>
<path d="M124.05 514.149L125.34 532.495L139.205 532.087L138.442 512.282L124.05 514.149Z" fill="white" stroke="#191A19" stroke-linecap="round" stroke-linejoin="round"/>
<path d="M124.322 539.317C124.322 539.317 146.605 540.216 153.954 539.317C156.245 539.045 161.591 538.995 162.898 537.094C163.543 536.177 162.388 532.664 162.388 532.664L150.763 529.134L142.736 524.722C142.114 524.376 141.4 524.234 140.693 524.316C139.987 524.398 139.324 524.701 138.798 525.18L137.882 526.011C137.504 526.355 137.209 526.779 137.018 527.252C136.827 527.725 136.745 528.235 136.779 528.744V529.134L135.455 528.218C134.883 527.818 134.201 527.605 133.503 527.607H123.914C122.239 530.364 121.446 533.568 121.64 536.788C121.671 537.476 121.968 538.124 122.468 538.596C122.969 539.068 123.634 539.327 124.322 539.317Z" fill="#191A19" stroke="#191A19" stroke-linecap="round" stroke-linejoin="round"/>
<path d="M79.2796 493.002L70.0811 508.175L81.2483 516.389L91.7875 500.402L79.2796 493.002Z" fill="white" stroke="#191A19" stroke-linecap="round" stroke-linejoin="round"/>
<path d="M117.889 425.608C117.889 425.608 102.716 432.669 74.7984 497.907C76.3294 500.418 78.394 502.562 80.8458 504.187C83.2977 505.812 86.0769 506.878 88.9865 507.309C88.9865 507.309 155.718 425.065 147.199 410.572C139.205 396.995 64.938 402.086 64.938 402.086L65.9054 434.671C65.9054 434.671 110.574 432.397 117.889 425.608Z" fill="white" stroke="#191A19" stroke-linecap="round" stroke-linejoin="round"/>
<path d="M83.8786 249.971C83.8786 249.971 70.539 239.941 57.488 248.63C44.4369 257.32 36.1718 277.855 43.1471 285.968C45.255 288.36 47.8762 290.245 50.815 291.483C53.7538 292.72 56.9342 293.277 60.1185 293.113C60.1185 293.113 73.3393 303.295 78.7871 301.598C84.235 299.901 93.4675 285.747 93.8748 273.069C94.2821 260.392 98.3892 251.04 83.8786 249.971Z" fill="#191A19" stroke="#191A19" stroke-linecap="round" stroke-linejoin="round"/>
<path d="M70.6065 294.928C70.6065 294.928 66.9067 300.02 67.0934 304.364L49.6807 298.323C49.6807 298.323 56.9614 287.749 58.6925 277.397C60.4236 267.044 70.6065 294.928 70.6065 294.928Z" fill="white"/>
<path d="M70.6065 294.928C70.6065 294.928 66.9067 300.02 67.0934 304.364L49.6807 298.323C49.6807 298.323 56.9614 287.749 58.6925 277.397C60.4236 267.044 70.6065 294.928 70.6065 294.928Z" stroke="#191A19" stroke-linecap="round" stroke-linejoin="round"/>
<path d="M32.3701 404.088C32.3701 404.088 19.4718 432.244 41.2122 436.928C62.9527 441.612 108.877 431.396 108.877 431.396C108.877 431.396 112.611 467.748 123.201 520.53C128.974 521.078 134.798 520.613 140.41 519.155C140.41 519.155 139.748 420.89 130.889 408.84C122.03 396.791 55.7059 397.724 32.3701 404.088Z" fill="white" stroke="#191A19" stroke-linecap="round" stroke-linejoin="round"/>
<path d="M29.1113 404.123C29.1113 404.123 32.3189 407.721 53.6011 400.525L80.416 399.489C80.416 399.489 90.4292 354.142 87.2046 337.255C85.4025 327.449 82.9994 317.762 80.0087 308.251C65.8109 302.876 50.5784 300.793 35.4587 302.158C34.6397 302.24 33.8865 302.643 33.3646 303.279C32.8427 303.916 32.5948 304.733 32.6753 305.553C33.9991 318.179 37.9195 359.42 29.1113 404.123Z" fill="#191A19" stroke="#191A19" stroke-linecap="round" stroke-linejoin="round"/>
<path d="M80.1441 308.251C80.1441 308.251 91.2773 310.729 91.2773 324.001C91.2773 337.273 89.9875 358.826 89.9875 358.826L104.379 378.327C104.379 378.327 98.2187 381.721 97.2852 387.474C97.2852 387.474 75.7654 369.773 74.5435 363.714C73.3216 357.655 80.1441 308.251 80.1441 308.251Z" fill="#191A19" stroke="#191A19" stroke-linecap="round" stroke-linejoin="round"/>
<path d="M82.4531 355.449L83.5223 359.403L80.5523 356.586L71.6593 341.617C71.5099 341.362 71.4672 341.059 71.5403 340.773C71.6133 340.487 71.7964 340.241 72.0496 340.089C72.3043 339.94 72.6076 339.897 72.8937 339.97C73.1797 340.044 73.4253 340.227 73.5771 340.48L82.4531 355.449Z" fill="white" stroke="#191A19" stroke-linecap="round" stroke-linejoin="round"/>
<path d="M59.2526 357.909C61.8548 356.105 64.1864 353.939 66.1769 351.477C68.9772 347.811 69.9106 345.656 72.1169 346.385C74.3232 347.115 82.2998 349.237 81.1118 351.782C81.1501 352.872 80.7946 353.938 80.1105 354.786C79.5531 355.934 78.7403 356.938 77.7345 357.722C76.1561 358.876 75.647 358.384 75.647 358.384C75.647 358.384 74.5438 359.301 73.831 359.063C73.831 359.063 72.1339 362.033 66.4485 363.17L51.1742 369.687L49.6128 359.878L59.2526 357.909Z" fill="white" stroke="#191A19" stroke-linecap="round" stroke-linejoin="round"/>
<path d="M70.0129 349.695C70.6873 350.322 71.4141 350.89 72.1852 351.392C73.2205 352.037 76.8524 353.938 76.7336 355.143C76.6148 356.348 74.1369 358.69 73.3393 358.537C72.5416 358.385 69.6904 357.315 69.7583 356.671C69.4983 357.172 69.3152 357.71 69.2152 358.266C69.2122 359.015 69.0607 359.757 68.7694 360.447C68.4781 361.137 68.0528 361.763 67.5181 362.288" stroke="#191A19" stroke-linecap="round" stroke-linejoin="round"/>
<path d="M80.1111 354.804C79.9278 354.156 79.5104 353.6 78.9401 353.242C77.1375 352.212 75.4332 351.019 73.8486 349.678" stroke="#191A19" stroke-linecap="round" stroke-linejoin="round"/>
<path d="M81.1128 351.8C80.7125 351.403 80.2617 351.061 79.772 350.782C77.9141 349.53 75.9491 348.445 73.8999 347.54" stroke="#191A19" stroke-linecap="round" stroke-linejoin="round"/>
<path d="M70.5728 355.924C70.5728 355.924 71.7777 355.5 72.2699 355.924C72.7621 356.348 72.6942 356.942 73.2373 357.519" stroke="#191A19" stroke-linecap="round" stroke-linejoin="round"/>
<path d="M72.2189 355.89C71.4731 355.384 70.838 354.731 70.3521 353.972" stroke="#191A19" stroke-linecap="round" stroke-linejoin="round"/>
<path d="M36.9692 340.938C36.7486 345.181 34.4914 362.458 34.4914 362.458C41.9761 360.028 49.6769 358.323 57.4877 357.366C57.4877 357.366 56.2997 361.915 59.7788 368.415C59.7788 368.415 27.7707 380.974 21.1857 379.633C14.6008 378.292 15.67 364.087 18.1988 332.537C20.7275 300.987 35.5945 302.175 35.5945 302.175" fill="#191A19"/>
<path d="M36.9692 340.938C36.7486 345.181 34.4914 362.458 34.4914 362.458C41.9761 360.028 49.6769 358.323 57.4877 357.366C57.4877 357.366 56.2997 361.915 59.7788 368.415C59.7788 368.415 27.7707 380.974 21.1857 379.633C14.6008 378.292 15.67 364.087 18.1988 332.537C20.7275 300.987 35.5945 302.175 35.5945 302.175" stroke="#191A19" stroke-linecap="round" stroke-linejoin="round"/>
<path d="M45.7275 301.717C45.7275 301.717 49.4782 299.425 49.4782 296.387C49.4782 293.35 66.229 302.192 70.0646 301.683C73.9001 301.173 71.7617 304.483 71.3544 305.416C70.3871 308.505 67.6037 312.324 45.7275 301.717Z" fill="#191A19" stroke="#191A19" stroke-linecap="round" stroke-linejoin="round"/>
<path d="M89.3936 268.012L87.6965 278.551C87.6965 278.551 87.985 282.76 80.6194 291.958C73.2538 301.157 69.9274 297.05 64.8699 291.958C59.8124 286.867 58.7262 284.661 58.7602 277.38C58.7602 277.38 56.1635 277.006 54.5682 272.288C52.9729 267.57 58.7941 265.737 60.2706 268.741L68.977 264.38L74.4078 257.846L77.5136 253.705L83.8779 256.081L90.6665 260.154L89.3936 268.012Z" fill="white" stroke="#191A19" stroke-linecap="round" stroke-linejoin="round"/>
<path d="M81.6051 278.89C81.6051 278.89 78.8896 281.673 81.1638 284.355C84.2357 288.004 77.7695 286.884 77.7695 287.97" stroke="#191A19" stroke-linecap="round" stroke-linejoin="round"/>
<path d="M76.9546 290.663C76.9546 290.663 75.5036 292.114 74.0527 289.212" stroke="#191A19" stroke-linecap="round" stroke-linejoin="round"/>
<path d="M75.5465 278.314C75.1562 279.213 74.5452 279.824 74.1888 279.671C73.8324 279.519 73.8664 278.653 74.1888 277.754C74.5113 276.854 75.1901 276.243 75.5465 276.396C75.9029 276.549 75.9369 277.397 75.5465 278.314Z" fill="#191A19"/>
<path d="M83.5045 281.928C83.165 282.743 82.6219 283.286 82.2995 283.15C81.977 283.014 81.994 282.234 82.2995 281.453C82.605 280.672 83.182 280.078 83.5045 280.231C83.8269 280.384 83.8609 281.114 83.5045 281.928Z" fill="#191A19"/>
<path d="M79.8741 271.558C79.022 270.935 77.9937 270.599 76.938 270.599C75.8823 270.599 74.854 270.935 74.002 271.558" stroke="#191A19" stroke-linecap="round" stroke-linejoin="round"/>
<path d="M85.3555 274.665C85.7779 274.809 86.156 275.059 86.4532 275.392C86.7505 275.725 86.957 276.129 87.0526 276.565" stroke="#191A19" stroke-linecap="round" stroke-linejoin="round"/>
<path d="M60.6961 264.38C60.6961 264.38 56.8775 274.087 62.1556 278.296C62.1556 278.296 66.5343 265.788 75.597 264.38C84.6598 262.971 88.3765 260.154 88.3765 260.154C88.3765 260.154 87.2903 272.509 89.7682 275.547C92.246 278.585 92.1951 261.325 92.1951 261.325L89.7682 255.402L76.6323 250.226L65.3802 255.504L60.6961 264.38Z" fill="#191A19" stroke="#191A19" stroke-linecap="round" stroke-linejoin="round"/>
<path d="M58.3701 279.01C58.3701 279.01 56.5712 289.804 60.6952 290.89C64.8193 291.976 54.7891 292.18 49.5959 289.787C44.4026 287.394 56.4693 277.669 56.4693 277.669L58.3701 279.01Z" fill="#191A19" stroke="#191A19" stroke-linecap="round" stroke-linejoin="round"/>
<path d="M81.9954 354.838H83.9471L77.464 395.807H75.5123C75.2577 395.812 75.0053 395.76 74.7736 395.654C74.542 395.549 74.3371 395.392 74.1741 395.197C74.0111 395.001 73.8942 394.771 73.8321 394.524C73.77 394.278 73.7641 394.02 73.8151 393.77L79.6533 356.874C79.7563 356.32 80.0438 355.817 80.4691 355.448C80.8944 355.078 81.4323 354.863 81.9954 354.838Z" fill="white" stroke="#191A19" stroke-linecap="round" stroke-linejoin="round"/>
<path d="M76.8531 395.806H100.613C101.181 395.791 101.726 395.58 102.156 395.209C102.586 394.838 102.874 394.329 102.972 393.77L108.81 356.874C108.861 356.624 108.855 356.367 108.793 356.12C108.731 355.873 108.614 355.643 108.451 355.448C108.288 355.252 108.083 355.096 107.852 354.99C107.62 354.884 107.368 354.832 107.113 354.837H83.421C82.8541 354.855 82.3106 355.068 81.8812 355.438C81.4519 355.809 81.1627 356.316 81.062 356.874L75.2238 393.77C75.174 394.014 75.1784 394.265 75.2367 394.507C75.2951 394.749 75.4059 394.975 75.5614 395.17C75.7168 395.364 75.9131 395.522 76.1363 395.632C76.3596 395.742 76.6043 395.801 76.8531 395.806Z" fill="white" stroke="#191A19" stroke-linecap="round" stroke-linejoin="round"/>
<path d="M101.835 362.068H103.99C104.352 362.057 104.699 361.921 104.971 361.682C105.244 361.444 105.425 361.118 105.484 360.761L105.84 358.606C105.871 358.446 105.865 358.281 105.823 358.123C105.782 357.966 105.705 357.82 105.599 357.696C105.493 357.572 105.36 357.473 105.211 357.408C105.062 357.342 104.9 357.311 104.737 357.316H102.582C102.221 357.329 101.876 357.463 101.601 357.697C101.327 357.931 101.14 358.252 101.071 358.606L100.732 360.761C100.698 360.923 100.702 361.089 100.742 361.249C100.783 361.409 100.859 361.557 100.965 361.683C101.071 361.809 101.205 361.909 101.356 361.976C101.506 362.043 101.67 362.074 101.835 362.068Z" stroke="#191A19" stroke-linecap="round" stroke-linejoin="round"/>
<path d="M102.428 359.691C102.408 359.797 102.411 359.906 102.439 360.01C102.466 360.114 102.517 360.211 102.587 360.293C102.658 360.374 102.745 360.439 102.844 360.482C102.943 360.525 103.05 360.544 103.158 360.54C103.392 360.526 103.616 360.436 103.794 360.282C103.972 360.129 104.094 359.921 104.142 359.691C104.163 359.585 104.159 359.475 104.131 359.37C104.104 359.265 104.053 359.168 103.983 359.085C103.913 359.002 103.826 358.936 103.727 358.891C103.628 358.846 103.521 358.824 103.413 358.826C103.176 358.84 102.95 358.933 102.772 359.09C102.594 359.247 102.473 359.458 102.428 359.691Z" stroke="#191A19" stroke-linecap="round" stroke-linejoin="round"/>
<path d="M104.041 382.162C104.041 382.162 106.298 375.577 107.978 377.071C109.302 378.275 107.044 382.162 107.044 382.162H104.041Z" fill="white" stroke="#191A19" stroke-linecap="round" stroke-linejoin="round"/>
<path d="M109.54 384.707C109.93 383.961 111.237 382.247 110.728 381.534C109.896 380.21 106.01 380.533 104.516 380.974C103.549 381.171 102.638 381.582 101.852 382.179C101.631 382.484 101.326 383.384 101.58 383.655C101.835 383.927 103.515 383.435 104.16 383.418C105.303 383.511 106.437 383.687 107.554 383.944C106.289 384.341 104.995 384.642 103.685 384.843C102.327 384.843 97.3544 384.012 98.5933 386.897C98.5933 386.897 96.7604 387.457 97.8126 388.832C98.8648 390.206 102.429 390.087 102.429 390.087C101.616 390.315 100.778 390.44 99.934 390.461C98.5084 390.461 97.4053 389.375 97.2695 390.138C97.0659 391.309 98.135 392.294 99.6455 392.854C100.386 393.17 101.182 393.334 101.988 393.334C102.793 393.334 103.589 393.17 104.33 392.854C106.858 391.937 108.454 386.863 109.54 384.707Z" fill="white" stroke="#191A19" stroke-linecap="round" stroke-linejoin="round"/>
<path d="M99.73 387.338C101.045 387.625 102.377 387.824 103.718 387.932C104.645 387.951 105.565 387.772 106.417 387.406" stroke="#191A19" stroke-linecap="round" stroke-linejoin="round"/>
<path d="M63.7672 511.637C63.7672 511.637 78.8548 527.98 84.6591 532.529C86.475 533.954 90.2766 537.62 92.5168 537.298C93.62 537.111 95.2662 533.818 95.2662 533.818L89.5808 523.126L87.0011 514.369C86.8043 513.691 86.4011 513.091 85.8475 512.653C85.2938 512.215 84.6174 511.961 83.9123 511.925H82.6734C82.1714 511.902 81.6704 511.99 81.2067 512.184C80.743 512.377 80.3281 512.672 79.9919 513.045L79.7204 513.351L79.4319 511.756C79.3065 511.073 78.9747 510.445 78.4814 509.957L71.6929 503.168C68.5861 503.923 65.7849 505.611 63.6654 508.005C63.208 508.505 62.963 509.164 62.982 509.841C63.001 510.519 63.2825 511.163 63.7672 511.637Z" fill="#191A19" stroke="#191A19" stroke-linecap="round" stroke-linejoin="round"/>
<path d="M110.812 427.509C110.812 427.509 115.597 420.924 118.228 419.617" stroke="#191A19" stroke-linecap="round" stroke-linejoin="round"/>
</svg>
