<svg width="34" height="42" viewBox="0 0 34 42" fill="none" xmlns="http://www.w3.org/2000/svg">
<path d="M25 5C26.8599 5 27.7899 5 28.5529 5.20444C30.6235 5.75925 32.2408 7.37653 32.7956 9.44709C33 10.2101 33 11.1401 33 13V31.4C33 34.7603 33 36.4405 32.346 37.7239C31.7708 38.8529 30.8529 39.7708 29.7239 40.346C28.4405 41 26.7603 41 23.4 41H10.6C7.23969 41 5.55953 41 4.27606 40.346C3.14708 39.7708 2.2292 38.8529 1.65396 37.7239C1 36.4405 1 34.7603 1 31.4V13C1 11.1401 1 10.2101 1.20445 9.44709C1.75925 7.37653 3.37653 5.75925 5.44709 5.20444C6.21008 5 7.14006 5 9 5M11 27L15 31L24 22M12.2 9H21.8C22.9201 9 23.4802 9 23.908 8.78201C24.2843 8.59027 24.5903 8.28431 24.782 7.90798C25 7.48016 25 6.92011 25 5.8V4.2C25 3.0799 25 2.51984 24.782 2.09202C24.5903 1.71569 24.2843 1.40973 23.908 1.21799C23.4802 1 22.9201 1 21.8 1H12.2C11.0799 1 10.5198 1 10.092 1.21799C9.71569 1.40973 9.40973 1.71569 9.21799 2.09202C9 2.51984 9 3.0799 9 4.2V5.8C9 6.92011 9 7.48016 9.21799 7.90798C9.40973 8.28431 9.71569 8.59027 10.092 8.78201C10.5198 9 11.0799 9 12.2 9Z" stroke="#191A19" stroke-width="2" stroke-linecap="round" stroke-linejoin="round"/>
</svg>
