<svg width="42" height="42" viewBox="0 0 42 42" fill="none" xmlns="http://www.w3.org/2000/svg">
<path d="M2.3735 28.2902L6.18989 26.0871C6.39661 25.9678 6.63919 25.9263 6.87381 25.9702L14.3828 27.3756C14.9999 27.491 15.5696 27.016 15.5668 26.3882L15.5375 19.8089C15.5367 19.6301 15.5839 19.4544 15.674 19.3001L19.4635 12.8124C19.6607 12.4748 19.643 12.0532 19.4182 11.7332L13.0378 2.65137M35.0004 6.7181C24.0004 12.0001 30.0001 19.0001 32.0004 20.0001C35.7546 21.8768 40.9753 22 40.9753 22C40.9916 21.6687 41 21.3353 41 21C41 9.9543 32.0457 1 21 1C9.9543 1 1 9.9543 1 21C1 32.0457 9.9543 41 21 41C21.3353 41 21.6687 40.9917 22 40.9754M30.5156 40.8796L24.182 24.182L40.8796 30.5156L33.4753 33.4753L30.5156 40.8796Z" stroke="#191A19" stroke-width="2" stroke-linecap="round" stroke-linejoin="round"/>
</svg>
