<svg width="41" height="42" viewBox="0 0 41 42" fill="none" xmlns="http://www.w3.org/2000/svg">
<path d="M11 41V19M1 23V37C1 39.2091 2.79086 41 5 41H31.8525C34.8139 41 37.3324 38.8393 37.7827 35.9123L39.9366 21.9123C40.4957 18.2778 37.6836 15 34.0063 15H27C25.8954 15 25 14.1046 25 13V5.93168C25 3.20799 22.792 1 20.0683 1C19.4187 1 18.83 1.38259 18.5661 1.97625L11.5279 17.8123C11.2069 18.5345 10.4906 19 9.70025 19H5C2.79086 19 1 20.7909 1 23Z" stroke="#191A19" stroke-width="2" stroke-linecap="round" stroke-linejoin="round"/>
</svg>
