<svg width="128" height="24" viewBox="0 0 128 24" fill="none" xmlns="http://www.w3.org/2000/svg">
<path fill-rule="evenodd" clip-rule="evenodd" d="M84.8434 18.1649C83.4919 18.1649 82.3171 17.75 81.3497 16.9366L81.3476 16.9407C80.4809 16.2178 79.8339 15.2237 79.4252 13.9872C79.1438 13.1348 79 12.2229 79 11.2801C79 10.3374 79.1438 9.42545 79.4252 8.57307C79.8359 7.33661 80.4829 6.34251 81.3497 5.61748C82.315 4.80413 83.5022 4.39129 84.8434 4.39129C86.1846 4.39129 87.343 4.93352 88.3002 6.00977V2.37228H85.2994C84.9646 2.37228 84.6791 2.2511 84.4511 2.01284C84.2293 1.79102 84.1143 1.5199 84.1143 1.18717C84.1143 0.854431 84.2293 0.570987 84.4573 0.343001C84.6853 0.115016 84.9687 0 85.3014 0H89.4873C89.8077 0 90.0912 0.112962 90.3253 0.33684C90.5574 0.568933 90.6724 0.852375 90.6724 1.18511V15.7947H93.0591C93.3918 15.7947 93.6753 15.9097 93.9033 16.1377C94.1333 16.378 94.2463 16.6614 94.2463 16.9818C94.2463 17.3022 94.1312 17.5857 93.9074 17.8198C93.6753 18.0519 93.3918 18.1669 93.0591 18.1669H89.4853C89.1649 18.1669 88.8814 18.0519 88.6473 17.828C88.4131 17.5836 88.3002 17.3002 88.3002 16.9798V16.5464C87.3451 17.6206 86.1949 18.1649 84.8434 18.1649ZM87.9921 9.31659C87.4231 7.5954 86.3941 6.75946 84.8434 6.75946L84.8455 6.76151C83.2865 6.76151 82.2534 7.59746 81.6845 9.31659C81.4791 9.93071 81.3743 10.5818 81.3743 11.276C81.3743 11.9703 81.477 12.6275 81.6824 13.2355C82.2514 14.9567 83.2927 15.7926 84.8434 15.7926C86.3941 15.7926 87.4231 14.9567 87.9921 13.2355C88.1954 12.6275 88.3002 11.962 88.3002 11.276C88.3002 10.59 88.1975 9.93071 87.9921 9.31659Z" fill="#111111"/>
<path fill-rule="evenodd" clip-rule="evenodd" d="M13.408 8.68777C13.0116 7.49444 12.3851 6.53527 11.5451 5.83488C10.5982 5.04617 9.45831 4.64566 8.15407 4.64566C6.84983 4.64566 5.85368 5.08519 4.95817 6.01767V1.67157C4.95817 1.33679 4.8185 1.04513 4.58846 0.815092L4.5823 0.808931C4.34199 0.578892 4.05239 0.463867 3.72171 0.463867H2.47498C2.14429 0.463867 1.82594 0.580945 1.58357 0.808931L1.57741 0.815092C1.34737 1.04513 1.25495 1.345 1.25495 1.67979C1.25495 2.01458 1.37613 2.30213 1.60822 2.53217C1.84648 2.77042 2.14635 2.89572 2.47498 2.89572H2.50168V15.5171H1.22003C0.889349 15.5171 0.57099 15.6341 0.328627 15.8621L0.322466 15.8683C0.0924264 16.0983 0 16.3982 0 16.733C0 17.0678 0.121182 17.3553 0.353275 17.5854C0.59153 17.8236 0.891403 17.9489 1.22003 17.9489L3.67858 17.9633C3.73103 17.9633 3.7885 17.9647 3.84903 17.9663C4.17007 17.9743 4.57732 17.9846 4.77948 17.7928L4.7918 17.7805C4.98248 17.5813 4.97136 17.2127 4.96197 16.9018C4.96003 16.8376 4.95817 16.7759 4.95817 16.7186V16.5358C5.85368 17.4683 6.9135 17.9407 8.15407 17.9407C9.45831 17.9407 10.5982 17.5402 11.5451 16.7515C12.3851 16.0511 13.0116 15.0919 13.408 13.8986C13.6791 13.077 13.8167 12.2 13.8167 11.2921C13.8167 10.3843 13.6791 9.50934 13.406 8.68572L13.408 8.68777ZM11.0891 13.1304C10.5592 14.7304 9.60003 15.5068 8.15407 15.5068C6.70811 15.5068 5.75304 14.7304 5.23134 13.1345V13.1304C5.03827 12.5615 4.95817 11.9576 4.95817 11.3065C4.95817 10.6554 5.03827 10.031 5.23134 9.45183C5.75304 7.85594 6.71016 7.07956 8.15407 7.07956C9.59798 7.07956 10.5592 7.85593 11.0891 9.45594C11.2822 10.0331 11.3787 10.6513 11.3787 11.2942C11.3787 11.9371 11.2801 12.5635 11.0891 13.1325V13.1304Z" fill="#111111"/>
<path d="M124.097 4.97965C124.537 4.52984 125.081 4.2998 125.71 4.2998C126.336 4.2998 126.878 4.52779 127.322 4.97965C127.774 5.42125 128.002 5.97375 128.002 6.59198C128.002 7.21021 127.778 7.75039 127.336 8.20226L127.246 8.29467H127.227C126.802 8.6767 126.293 8.87183 125.71 8.87183C125.083 8.87183 124.541 8.64795 124.097 8.2043L124.05 8.14474C123.637 7.70109 123.43 7.1794 123.43 6.59198C123.43 5.96553 123.654 5.4233 124.097 4.97965Z" fill="#111111"/>
<path d="M104.55 4.65648C104.778 4.42849 105.057 4.31348 105.382 4.31348L105.378 4.31758C105.71 4.31758 105.994 4.4326 106.222 4.66059C106.458 4.89679 106.577 5.18023 106.577 5.50475V9.01695C106.577 9.10116 106.573 9.17921 106.563 9.2511C106.478 9.80771 106.127 10.163 105.575 10.2575L105.544 10.2616C105.238 10.2801 104.959 10.2123 104.71 10.0583C104.427 9.8529 104.262 9.59206 104.209 9.26959C104.11 8.63493 103.72 8.04956 103.048 7.52376C102.352 6.97741 101.607 6.69603 100.83 6.68781H100.797C99.7108 6.68781 98.8317 7.04724 98.1067 7.78665C97.3016 8.59795 96.8867 9.72555 96.8723 11.1345V11.2044C96.8723 12.5189 97.2872 13.5726 98.1416 14.427C98.5524 14.8378 99.0371 15.1582 99.5814 15.3821C100.12 15.6059 100.695 15.7189 101.292 15.7189C102.533 15.7189 103.589 15.267 104.515 14.3407C104.743 14.1127 105.022 13.9977 105.347 13.9977C105.671 13.9977 105.955 14.1168 106.191 14.353C106.419 14.581 106.534 14.8645 106.534 15.1849C106.534 15.5053 106.419 15.7887 106.195 16.0229C104.813 17.3969 103.165 18.0912 101.292 18.0912C100.399 18.0912 99.5218 17.9186 98.6859 17.5756C97.8397 17.2224 97.0941 16.7233 96.4656 16.0865C95.1614 14.7823 94.5 13.1392 94.5 11.2023V11.1181C94.5247 9.06009 95.1696 7.37586 96.4163 6.1127C97.5932 4.91937 99.0679 4.31348 100.797 4.31348C101.699 4.31348 102.599 4.61129 103.472 5.19666C103.753 5.40616 103.995 5.62387 104.195 5.84775V5.50064C104.195 5.17612 104.314 4.89268 104.55 4.65648Z" fill="#111111"/>
<path d="M114.801 6.6837C113.715 6.6837 112.836 7.04314 112.111 7.78255L112.107 7.78666C111.302 8.59796 110.887 9.72556 110.872 11.1346V11.2044C110.872 12.5189 111.287 13.5726 112.142 14.427C112.552 14.8378 113.037 15.1582 113.581 15.3821C114.12 15.6059 114.695 15.7189 115.292 15.7189C116.533 15.7189 117.589 15.267 118.515 14.3407C118.743 14.1127 119.022 13.9977 119.347 13.9977C119.671 13.9977 119.955 14.1168 120.191 14.353C120.419 14.581 120.534 14.8645 120.534 15.1849C120.534 15.5053 120.419 15.7887 120.195 16.0229C118.813 17.397 117.165 18.0912 115.292 18.0912C114.399 18.0912 113.522 17.9187 112.686 17.5756C111.84 17.2224 111.094 16.7233 110.466 16.0866C109.161 14.7823 108.5 13.1392 108.5 11.2023V11.1181C108.525 9.06009 109.17 7.37588 110.416 6.11271C111.593 4.91939 113.068 4.31348 114.797 4.31348C115.699 4.31348 116.599 4.61129 117.472 5.19666C117.753 5.40616 117.995 5.62388 118.195 5.84776V5.50064C118.195 5.17612 118.314 4.89268 118.55 4.65648C118.778 4.42849 119.049 4.31348 119.382 4.31348C119.714 4.31348 119.998 4.42849 120.226 4.65648C120.462 4.89268 120.581 5.17612 120.581 5.50064V9.01285C120.581 9.09706 120.577 9.17511 120.567 9.24699C120.483 9.80361 120.131 10.1589 119.579 10.2534L119.548 10.2575C119.242 10.276 118.963 10.2082 118.714 10.0542C118.431 9.84879 118.266 9.58795 118.213 9.26549C118.114 8.63082 117.724 8.04546 117.053 7.51965C116.356 6.97331 115.611 6.69192 114.834 6.6837H114.801Z" fill="#111111"/>
<path d="M125.71 12.5C125.081 12.5 124.537 12.73 124.097 13.1798C123.654 13.6235 123.43 14.1657 123.43 14.7942C123.43 15.3816 123.637 15.9033 124.05 16.347L124.097 16.4066C124.541 16.8502 125.083 17.0741 125.71 17.0741C126.293 17.0741 126.802 16.879 127.227 16.4969H127.246L127.336 16.4045C127.778 15.9526 128.002 15.4125 128.002 14.7942C128.002 14.176 127.774 13.6235 127.322 13.1798C126.878 12.728 126.336 12.5 125.71 12.5Z" fill="#111111"/>
<path fill-rule="evenodd" clip-rule="evenodd" d="M23.0088 18.1768C22.3022 18.1768 21.5998 18.0721 20.9055 17.8626V17.8667C19.5828 17.4662 18.4922 16.735 17.6624 15.6957C16.6929 14.4736 16.2 12.9763 16.2 11.2448C16.2 9.7085 16.5738 8.35497 17.3091 7.22737C17.9808 6.20862 18.9009 5.44251 20.0429 4.94751C20.8727 4.58808 21.7559 4.40527 22.6678 4.40527C23.5797 4.40527 24.465 4.58808 25.303 4.94751C26.445 5.44251 27.3651 6.20862 28.0368 7.22531C28.7721 8.35497 29.1459 9.70645 29.1459 11.2448C29.1459 11.5714 29.0247 11.8528 28.7864 12.0808C28.5687 12.3088 28.2832 12.4299 27.9484 12.4299H18.6914C18.8393 13.1119 19.1186 13.7095 19.5253 14.2128C20.0532 14.8741 20.7515 15.3424 21.6018 15.6033C22.4398 15.8579 23.3086 15.8764 24.1795 15.6587C25.2496 15.3876 26.1225 14.8043 26.7736 13.9211C26.9543 13.6644 27.2131 13.5041 27.5356 13.4487H27.5459C27.8642 13.4056 28.162 13.4816 28.427 13.6726C28.6879 13.8677 28.846 14.1224 28.8994 14.4346C28.9446 14.7653 28.8686 15.0631 28.6776 15.328C27.6896 16.6672 26.3731 17.5524 24.7628 17.9612C24.1774 18.1049 23.5921 18.1768 23.0088 18.1768ZM24.3623 7.11851C23.8406 6.88847 23.2717 6.7714 22.6678 6.7714V6.76934C22.0722 6.76934 21.5073 6.88641 20.9877 7.11645C19.7286 7.65869 18.9749 8.61787 18.6894 10.0392H26.6483C26.369 8.61787 25.6193 7.66074 24.3623 7.11851Z" fill="#111111"/>
<path d="M31.1851 6.76115H33.4485L37.4681 16.9958L36.3898 20.0007C36.1002 20.7977 35.8722 21.1427 35.7325 21.2906C35.5189 21.5165 35.2026 21.6274 34.7651 21.6274C34.3276 21.6274 33.9867 21.4796 33.6868 21.1797C33.389 20.8757 33.2452 20.5224 33.2452 20.0952C33.2452 19.7686 33.124 19.4872 32.896 19.2695C32.668 19.0313 32.3867 18.9101 32.0601 18.9101C31.7335 18.9101 31.4398 19.0313 31.2221 19.2593C30.9838 19.4873 30.8626 19.7686 30.8626 20.0952C30.8626 21.1694 31.2488 22.0978 32.0108 22.8495C32.7646 23.6136 33.693 23.9997 34.7672 23.9997C35.8414 23.9997 36.7697 23.6403 37.4434 22.9317C37.8871 22.4695 38.2711 21.7733 38.6183 20.7997L39.8157 17.4477L39.8167 17.4455C39.8329 17.4112 39.851 17.3727 39.8691 17.3224L43.6586 6.7591H45.9672C46.2999 6.7591 46.5834 6.64408 46.8114 6.41609C47.0476 6.17989 47.1667 5.89645 47.1667 5.57193C47.1667 5.24741 47.0476 4.96397 46.8114 4.72777C46.5834 4.49978 46.2999 4.38477 45.9672 4.38477H40.5531C40.2203 4.38477 39.9369 4.49978 39.7048 4.73393C39.4809 4.96808 39.3679 5.25152 39.3679 5.57193C39.3679 5.89234 39.4809 6.17578 39.7109 6.41609C39.9389 6.64408 40.2224 6.7591 40.5551 6.7591H41.1405L38.6901 13.6089L36.0036 6.7591H36.6116C36.932 6.7591 37.2154 6.64613 37.4598 6.41199C37.6837 6.17784 37.7967 5.89439 37.7967 5.57398C37.7967 5.25357 37.6837 4.97013 37.4496 4.72571C37.2154 4.50183 36.932 4.38682 36.6116 4.38682H31.1851C30.8626 4.38682 30.5813 4.49978 30.3368 4.73598C30.113 4.97013 30 5.25357 30 5.57398C30 5.89439 30.113 6.17784 30.3471 6.42225C30.5813 6.64613 30.8647 6.76115 31.1851 6.76115Z" fill="#111111"/>
<path fill-rule="evenodd" clip-rule="evenodd" d="M59.2628 16.0763C57.9257 17.4134 56.2846 18.0912 54.3889 18.0912C52.491 18.0912 50.852 17.4134 49.5149 16.0763C48.1778 14.7392 47.5 13.1002 47.5 11.2023C47.5 9.30451 48.1778 7.66548 49.5149 6.32837C50.852 4.99127 52.4931 4.31348 54.3889 4.31348C56.2846 4.31348 57.9257 4.99127 59.2628 6.32837C60.5999 7.66548 61.2777 9.30451 61.2777 11.2023C61.2777 13.1002 60.5999 14.7392 59.2628 16.0763ZM57.5765 8.0167C56.6872 7.12119 55.6459 6.68576 54.3889 6.68576C53.1319 6.68576 52.0905 7.12119 51.2032 8.01465C50.3077 8.90194 49.8723 9.94533 49.8723 11.2023C49.8723 12.4593 50.3077 13.5027 51.2012 14.388C52.0885 15.2835 53.1319 15.7189 54.3889 15.7189C55.6459 15.7189 56.6893 15.2835 57.5745 14.39C58.47 13.5007 58.9054 12.4593 58.9054 11.2023C58.9054 9.94533 58.47 8.90399 57.5765 8.0167Z" fill="#111111"/>
<path d="M63.6851 15.7924C63.3626 15.7924 63.0813 15.9054 62.8368 16.1395C62.613 16.3737 62.5 16.6571 62.5 16.9775C62.5 17.2979 62.613 17.5814 62.8471 17.8258C63.0813 18.0497 63.3647 18.1647 63.6851 18.1647H69.3991C69.7319 18.1647 70.0153 18.0497 70.2474 17.8176C70.4713 17.5834 70.5842 17.3 70.5842 16.9796C70.5842 16.6591 70.4713 16.3757 70.2412 16.1354C70.0132 15.9074 69.7298 15.7924 69.3971 15.7924H67.7313V11.6578C67.793 9.42934 68.6679 7.94847 70.4035 7.12895C70.8492 6.9215 71.3072 6.79622 71.7632 6.75925C72.1822 6.73255 72.5663 6.77773 72.8969 6.89686C73.5419 7.14127 73.8418 7.60751 73.8418 8.36541V15.7924H72.2376C71.9049 15.7924 71.6215 15.9074 71.3935 16.1354C71.1573 16.3716 71.0382 16.655 71.0382 16.9796C71.0382 17.3041 71.1573 17.5875 71.3935 17.8217C71.6215 18.0497 71.9049 18.1647 72.2376 18.1647H77.506C77.8387 18.1647 78.1221 18.0497 78.3542 17.8176C78.5781 17.5834 78.6931 17.3 78.6931 16.9796C78.6931 16.6591 78.5802 16.3757 78.3501 16.1354C78.1221 15.9074 77.8387 15.7924 77.506 15.7924H76.214V8.36541C76.214 6.53947 75.374 5.29685 73.7144 4.67246C73.0654 4.43421 72.3506 4.34178 71.5907 4.40134C70.8492 4.45269 70.1118 4.64781 69.3991 4.98466C68.785 5.27631 68.2284 5.75283 67.7334 6.40597V5.57619C67.7334 5.25167 67.6143 4.96822 67.3781 4.73408C67.1501 4.50609 66.8708 4.39108 66.5462 4.39108H63.72C63.3976 4.39108 63.1162 4.50404 62.8718 4.73818C62.6479 4.97233 62.5329 5.25577 62.5329 5.57619C62.5329 5.8966 62.6458 6.18004 62.88 6.42446C63.1141 6.64833 63.3976 6.76335 63.718 6.76335H65.3591V15.7944H63.6831L63.6851 15.7924Z" fill="#111111"/>
</svg>
