<svg width="530" height="581" viewBox="0 0 530 581" fill="none" xmlns="http://www.w3.org/2000/svg">
<path d="M133.908 492.733C-118.832 261.465 8.29101 203.109 330.613 24.7102C536.174 -89.0637 568.827 215.293 491.861 423.5C491.861 423.5 386.648 724 133.908 492.733Z" fill="#EEF8ED"/>
<path d="M287.319 30.2214L160.628 73.6776L155.907 75.2968L18.2036 122.53L2.7906 118.813C2.01943 118.627 1.34909 119.37 1.61317 120.118L17.0451 163.831L32.8537 208.612C32.9482 208.879 33.3113 208.917 33.4585 208.674L42.9705 192.995C42.9954 192.954 43.0476 192.939 43.0908 192.96L43.0141 193.006L180.823 145.804L185.544 144.187L312.663 100.647C326.481 95.9095 338.073 86.2628 345.234 73.5423L360.91 45.6987L331.162 32.2745C317.343 26.0382 301.662 25.3039 287.319 30.2214Z" fill="white"/>
<path d="M18.2036 122.53L155.907 75.2968L180.823 145.804L43.0141 193.006L43.0908 192.96L18.2036 122.53Z" fill="#EEF8ED"/>
<path d="M160.657 73.7581L259.584 39.7854L284.5 110.293L185.468 144.234L185.544 144.187L160.657 73.7581Z" fill="#EEF8ED"/>
<path d="M18.2036 122.53L43.0908 192.96M18.2036 122.53L155.907 75.2968M18.2036 122.53L43.0141 193.006M18.2036 122.53L2.7906 118.813C2.01943 118.627 1.34909 119.37 1.61317 120.118L17.0451 163.831L32.8537 208.612C32.9482 208.879 33.3113 208.917 33.4585 208.674L42.9705 192.995C42.9954 192.954 43.0476 192.939 43.0908 192.96V192.96M43.0908 192.96L43.0141 193.006M180.823 145.804L185.544 144.187M180.823 145.804L155.907 75.2968M180.823 145.804L43.0141 193.006M155.907 75.2968L160.628 73.6776M185.544 144.187L160.628 73.6776M185.544 144.187L312.663 100.647C326.481 95.9095 338.073 86.2628 345.234 73.5423L360.91 45.6987L331.162 32.2745C317.343 26.0382 301.662 25.3039 287.319 30.2214L160.628 73.6776M185.544 144.187L160.657 73.7581L259.584 39.7854L284.5 110.293L185.468 144.234L185.544 144.187Z" stroke="#191A19"/>
<path d="M260.537 117.785C258.223 110.511 254.806 111.503 252.933 112.495C233.888 118.05 237.724 135.088 242.022 142.913L247.643 156.469L264.174 148.864L263.182 138.945C264.284 138.504 265.761 137.094 266.819 134.978C267.877 132.862 266.379 128.255 265.497 126.381C266.819 121.752 267.414 118.092 266.158 118.777C262.521 120.761 261.015 119.286 260.537 117.785Z" fill="white" stroke="#191A19"/>
<path d="M256.9 118.446C257.011 117.895 257.429 116.66 258.223 116.131" stroke="#191A19"/>
<path d="M258.885 118.446L260.538 120.43" stroke="#191A19"/>
<path d="M242.353 147.211L238.386 157.791L271.779 142.582L260.538 140.598L242.353 147.211Z" fill="#CCCDCB" stroke="#191A19"/>
<path d="M253.925 281.447L240.369 226.232L289.964 213.006C300.544 243.094 297.899 239.457 287.649 284.753L318.729 329.058C326.333 333.687 325.672 337.324 323.688 343.275C321.704 349.226 324.68 353.855 321.704 358.153C318.729 362.452 308.81 365.758 305.503 364.766C302.858 363.973 306.606 357.162 308.81 353.855L311.124 340.299L287.649 315.502L293.931 345.92C300.809 349.094 300.103 354.076 298.891 356.17C296.356 360.909 290.559 370.916 287.649 373.032C284.012 375.677 274.094 375.677 271.118 374.024C268.737 372.701 274.534 368.844 277.73 367.081L283.021 356.17L253.925 281.447Z" fill="#191A19" stroke="#191A19"/>
<path d="M193.089 163.412L183.831 176.306L197.056 177.959L211.273 167.379L218.878 166.718L226.482 154.815L242.683 157.791L244.337 154.815L225.16 148.864L212.596 160.105L193.089 163.412Z" fill="#439037" stroke="#191A19"/>
<path d="M240.7 226.893L231.111 187.878C231.111 187.878 219.605 199.847 215.902 198.789C212.199 197.731 208.408 193.389 207.306 191.184C207.041 188.539 205.873 157.571 205.653 142.913C203.228 144.125 200.032 145.888 194.742 146.549C189.452 147.211 186.256 145.558 183.17 144.896L197.708 140.931L197.718 140.929C195.073 140.929 191.105 140.929 191.766 139.569C192.488 138.083 200.363 137.622 206.645 135.304C208.892 134.475 210.282 137.291 210.943 139.569L218.642 164.734L220.531 161.428L281.367 135.969L294.593 139.276L289.308 125.048L287.69 120.691L285.996 116.131C285.004 113.486 284.938 111.436 285.996 109.849C287.319 107.865 289.964 107.535 293.27 105.882C297.473 103.78 299.422 100.411 300.544 101.253C301.867 102.245 298.67 105 297.238 106.873C301.536 103.898 303.189 101.915 305.503 100.261C308.131 98.3842 308.81 98.938 308.479 100.261C307.487 103.126 305.737 107.029 302.858 109.188C298.891 112.163 290.956 112.163 291.948 113.486L314.761 145.558C316.194 147.431 319.258 151.84 320.051 154.485C320.258 156.344 319.721 161.097 317.406 161.097L287.649 161.428L290.625 208.708C292.212 211.353 291.286 213.998 290.625 214.99L244.998 229.538L240.7 226.893Z" fill="white"/>
<path d="M231.111 187.878L240.7 226.893L244.998 229.538L290.625 214.99C291.286 213.998 292.212 211.353 290.625 208.708L287.649 161.428L317.406 161.097C319.721 161.097 320.258 156.344 320.051 154.485C319.258 151.84 316.194 147.431 314.761 145.558M231.111 187.878C231.111 187.878 219.605 199.847 215.902 198.789C212.199 197.731 208.408 193.389 207.306 191.184M231.111 187.878L221.854 174.653M294.593 139.276L285.996 116.131C285.004 113.486 284.938 111.436 285.996 109.849C287.319 107.865 289.964 107.535 293.27 105.882C297.473 103.78 299.422 100.411 300.544 101.253C301.867 102.245 298.67 105 297.238 106.873M294.593 139.276L281.367 135.969L220.531 161.428L218.642 164.734M294.593 139.276L314.761 145.558M297.238 106.873C301.536 103.898 303.189 101.915 305.503 100.261C308.131 98.3842 308.81 98.938 308.479 100.261C307.487 103.126 305.737 107.029 302.858 109.188C298.891 112.163 290.956 112.163 291.948 113.486L314.761 145.558M297.238 106.873C295.915 109.254 294.262 110.07 293.601 110.18M218.642 164.734L207.306 191.184M218.642 164.734L210.943 139.569C210.282 137.291 208.892 134.475 206.645 135.304C200.363 137.622 192.488 138.083 191.766 139.569C191.105 140.929 195.073 140.929 197.718 140.929L183.17 144.896C186.256 145.558 189.452 147.211 194.742 146.549C200.032 145.888 203.228 144.125 205.653 142.913C205.873 157.571 207.041 188.539 207.306 191.184M287.649 120.76C288.531 119.217 291.154 116.66 294.593 117.454M289.303 125.059C290.625 122.413 293.799 120.298 297.238 121.091M205.983 148.533C206.975 147.321 210.083 145.624 213.257 147.211M206.314 153.162C207.306 151.619 212.596 149.525 214.58 151.84M197.387 140.929C199.371 140.929 201.685 141.259 203.008 140.598M261.53 206.063L278.061 164.734" stroke="#191A19"/>
<path d="M240.7 144.896C246.651 148.864 256.129 139.165 257.562 134.647C245.99 134.647 249.296 123.38 255.247 127.042C257.816 128.623 255.137 122.083 253.594 120.76C260.868 102.245 256.239 92.9873 236.071 106.543C215.902 120.099 228.743 136.925 240.7 144.896Z" fill="#191A19" stroke="#191A19"/>
<path d="M137.211 301.617L134.566 262.602L158.041 299.633C167.849 317.156 188.062 354.054 190.443 361.461C193.418 370.718 187.798 370.718 202.345 373.033C213.984 374.885 216.893 372.261 216.893 370.718C212.661 369.925 202.566 361.13 198.047 356.832C180.854 290.176 157.6 234.939 148.122 215.652C142.17 204.411 121.98 186.435 111.422 214.991C96.8747 254.335 107.786 261.94 116.712 300.625C112.084 315.502 111.422 330.38 110.099 339.308C108.545 349.797 108.115 356.171 105.14 372.702C104.783 374.681 106.462 375.678 110.76 377C112.025 377.389 115.279 376.119 117.373 375.347C123.324 375.678 126.631 374.025 126.631 372.371C126.631 371.049 123.324 371.71 121.34 368.735C119.026 364.436 118.696 361.791 116.712 359.477L137.211 301.617Z" fill="#191A19" stroke="#191A19"/>
<path d="M118.368 152.83L119.69 159.442L133.577 161.426L134.568 154.813C136.552 155.254 141.247 155.541 142.834 154.483C144.421 153.425 144.928 148.862 145.149 146.548C147.794 145.49 149.006 143.682 149.116 142.911L145.149 138.282C145.809 130.678 143.054 126.822 142.172 125.72C117.705 111.834 106.133 135.306 118.368 152.83Z" fill="white" stroke="#191A19"/>
<path d="M122.333 156.137C115.456 157.724 109.99 162.97 108.116 165.395L138.865 163.081C136.22 160.105 126.301 155.222 122.333 156.137Z" fill="#CCCDCB" stroke="#191A19"/>
<path d="M112.415 215.982L104.149 192.244C104.149 192.244 85.3023 219.288 83.6493 221.272C82.3782 222.798 78.9569 219.631 78.3454 215.982L72.8058 188.927C71.4278 189.841 67.8062 191.524 63.9031 191.655C58.8596 191.824 53.6394 189.334 53.3665 188.325C53.0935 187.317 60.7938 188.162 62.1724 187.248C61.2553 187.063 60.4037 185.777 62.0859 185.322C63.431 184.959 65.0767 186.551 72.7291 183.425C75.8502 182.15 77.3725 184.446 77.7635 186.832L81.874 194.33L84.4994 199.12L97.5362 168.702L110.761 163.081L137.212 161.097L148.123 163.081C148.123 163.081 152.961 167.435 158.345 172.27L157.839 166.88L157.05 158.452C156.058 156.248 156.058 153.493 159.364 152.831C167.469 151.209 167.962 148.973 169.284 148.533C170.937 147.982 170.938 149.525 170.276 150.186C171.93 150.186 177.881 145.227 178.211 146.219C178.541 147.211 175.565 152.17 171.268 154.815C167.942 156.862 163.993 157.46 162.34 157.46L174.566 188.522C176.314 192.34 176.016 195.993 175.565 197.797C174.904 200.443 171.267 201.104 167.961 199.451L150.926 190.524L148.123 215.982C131.724 218.892 117.484 217.194 112.415 215.982Z" fill="white"/>
<path d="M99.52 178.951L112.415 215.982C117.484 217.194 131.724 218.892 148.123 215.982L150.926 190.524M152.09 179.943L150.926 190.524M104.149 192.244C104.149 192.244 85.3023 219.288 83.6493 221.272C82.3782 222.798 78.9569 219.631 78.3454 215.982M158.372 172.565L157.05 158.452C156.058 156.248 156.058 153.493 159.364 152.831C167.469 151.209 167.962 148.973 169.284 148.533C170.937 147.982 170.938 149.525 170.276 150.186C171.93 150.186 177.881 145.227 178.211 146.219C178.541 147.211 175.565 152.17 171.268 154.815C167.942 156.862 163.993 157.46 162.34 157.46L174.573 188.539M84.4994 199.12L77.7635 186.832C77.3725 184.446 75.8502 182.15 72.7291 183.425C65.0767 186.551 63.431 184.959 62.0859 185.322C60.4037 185.777 61.2553 187.063 62.1724 187.248C60.7938 188.162 53.0935 187.317 53.3665 188.325C53.6394 189.334 58.8596 191.824 63.9031 191.655C67.8062 191.524 71.4278 189.841 72.8058 188.927L78.3454 215.982M84.4994 199.12C90.079 186.101 97.5362 168.702 97.5362 168.702L110.761 163.081L137.212 161.097L148.123 163.081C148.123 163.081 164.654 177.96 170.606 183.25C176.557 188.54 176.226 195.152 175.565 197.797C174.904 200.443 171.267 201.104 167.961 199.451L150.926 190.524M84.4994 199.12C81.6886 205.678 79.3542 211.125 78.6898 212.676C78.2315 213.745 78.1616 214.886 78.3454 215.982M157.711 167.049C158.483 165.947 161.084 164.073 165.316 165.396M81.962 194.363C80.7101 193.871 77.507 193.746 74.71 197.186M163.993 154.154C167.299 154.154 166.969 152.501 170.275 150.187M69.6013 187.086C66.8454 188.912 66.2077 187.352 62.1731 187.249M116.051 170.024C120.019 174.102 128.88 183.051 132.583 186.225" stroke="#191A19"/>
<path d="M126.301 145.227C125.97 147.872 127.822 149.988 132.583 147.872" stroke="#191A19"/>
<path d="M141.841 134.977L145.147 134.646" stroke="#191A19"/>
<path d="M143.494 138.945V136.631" stroke="#191A19"/>
<path d="M90.5887 121.753C90.9361 122.624 92.4623 122.415 93.5644 122.084C82.6565 135.309 97.8658 146.22 106.459 137.624C110.43 151.84 124.648 160.767 125.966 147.873C126.338 144.239 125.966 140.929 128.615 140.267C131.264 139.606 131.107 143.816 132.252 143.243C132.913 142.912 131.591 141.259 131.26 140.598C138.203 138.284 139.853 134.647 139.853 127.374C160.356 118.115 125.966 102.906 110.096 121.753C108.116 107.536 89.27 118.447 90.5887 121.753Z" fill="#191A19" stroke="#191A19"/>
<path d="M403.373 364.68C407.34 283.742 414.616 231.656 417.922 215.896L464.211 213.913L466.856 239.371L497.604 367.987C499.588 371.293 500.95 374.832 499.588 376.583C497.274 379.559 489.339 379.559 488.347 377.244L440.736 257.887C432.801 288.966 418.253 350.463 418.253 365.672C418.253 377.359 417.551 378.208 415.937 378.567C412.961 379.228 385.057 378.369 384.528 374.93C383.999 371.491 395.436 372.616 403.373 364.68Z" fill="#191A19" stroke="#191A19"/>
<path d="M430.814 111.75C426.516 113.073 424.965 113.734 425.194 114.726C425.194 116.048 429.161 122.661 430.814 125.637C432.137 128.017 431.586 135.886 431.145 139.523L451.644 135.225L451.975 130.596C471.152 122.658 460.902 93.5629 441.395 99.8471C438.088 100.912 434.121 104.146 433.129 105.468C432.774 105.941 431.806 109.436 430.814 111.75Z" fill="white" stroke="#191A19"/>
<path d="M433.129 108.441C434.121 108.331 436.237 108.441 436.766 109.764" stroke="#191A19"/>
<path d="M408.662 108.441L392.792 90.5874C378.773 101.168 377.032 122.548 377.914 131.916L403.042 128.941L430.153 133.239L431.806 120.675L408.662 108.441Z" fill="white"/>
<path d="M403.042 128.941C401.19 116.773 406.017 110.205 408.662 108.441L426.186 117.699C421.954 121.931 422.394 129.063 423.276 132.149L403.042 128.941Z" fill="#439037"/>
<path d="M410.315 136.876L411.307 130.251L420.565 131.719L413.952 140.182L410.315 136.876Z" fill="white"/>
<path d="M408.662 108.441L392.792 90.5874C378.773 101.168 377.032 122.548 377.914 131.916L403.042 128.941M408.662 108.441L431.806 120.675L430.153 133.239L403.042 128.941M408.662 108.441C406.017 110.205 401.19 116.773 403.042 128.941M408.662 108.441L426.186 117.699C421.954 121.931 422.394 129.063 423.276 132.149L403.042 128.941M411.307 130.251L410.315 136.876L413.952 140.182L420.565 131.719L411.307 130.251Z" stroke="#191A19"/>
<path d="M358.737 179.858V169.939L392.792 149.109L434.782 144.48V147.125L398.413 153.738L373.616 178.866L358.737 179.858Z" fill="#439037" stroke="#191A19"/>
<path d="M425.855 148.117C426.384 143.092 427.839 139.19 428.501 137.868L453.298 132.908L459.249 140.182L425.855 148.117Z" fill="#CCCDCB" stroke="#191A19"/>
<path d="M416.267 208.294L413.291 184.819L396.098 199.365H390.808L385.188 192.091C390.588 181.291 401.851 158.962 402.38 157.375C402.909 155.788 404.144 154.73 404.695 154.399C404.43 153.341 405.466 151.534 406.017 150.762C405.356 148.338 403.835 143.356 403.042 142.827C402.248 142.298 404.034 138.419 405.026 136.545C404.915 136.214 404.761 135.09 405.026 133.239C405.29 131.387 407.34 131.145 408.332 131.255C411.969 136.214 415.606 137.867 416.928 138.529C418.251 139.19 417.59 142.496 417.59 143.488C417.59 144.282 415.606 145.803 414.614 146.464L412.63 152.085V154.677L426.186 145.804L473.797 133.24L486.691 122.66L510.827 86.9522C510.827 86.9522 514.134 80.6667 514.795 77.3622C515.456 74.0576 514.134 70.4205 514.134 70.4205C516.514 69.3623 517.33 72.4043 517.44 74.0576C529.012 56.863 530.665 61.8233 523.391 71.7432C529.012 75.0495 530.335 77.6945 527.69 81.3315C525.574 84.241 525.044 82.3234 525.044 81.0008C523.722 85.7619 519.424 86.9522 517.44 86.9522L501.239 131.918L471.152 161.675L464.87 198.375L465.531 216.89L462.555 218.874H416.267L414.944 215.898L416.267 208.294Z" fill="white"/>
<path d="M412.63 154.677L426.186 145.804L473.797 133.24L486.691 122.66L510.827 86.9522C510.827 86.9522 514.134 80.6667 514.795 77.3622C515.456 74.0576 514.134 70.4205 514.134 70.4205C516.514 69.3623 517.33 72.4043 517.44 74.0576C529.012 56.863 530.665 61.8233 523.391 71.7432C529.012 75.0495 530.335 77.6945 527.69 81.3315C525.574 84.241 525.044 82.3234 525.044 81.0008C523.722 85.7619 519.424 86.9522 517.44 86.9522L501.239 131.918L471.152 161.675L464.87 198.375L465.531 216.89L462.555 218.874H416.267L414.944 215.898L416.267 208.294L413.291 184.819L396.098 199.365H390.808L385.188 192.091C390.588 181.291 401.851 158.962 402.38 157.375C402.909 155.788 404.144 154.73 404.695 154.399C404.43 153.341 405.466 151.534 406.017 150.762C405.356 148.338 403.835 143.356 403.042 142.827C402.248 142.298 404.034 138.419 405.026 136.545C404.915 136.214 404.761 135.09 405.026 133.239C405.29 131.387 407.34 131.145 408.332 131.255C411.969 136.214 415.606 137.867 416.928 138.529C418.251 139.19 417.59 142.496 417.59 143.488C417.59 144.282 415.606 145.803 414.614 146.464L412.63 152.085V154.677ZM412.63 154.677L408.001 157.707M508.182 90.5877C510.056 89.8163 514.001 89.3975 514.795 93.894M510.497 87.2811C511.929 86.6199 515.126 86.2231 516.448 89.9262M412.63 152.746C411.418 151.644 408.199 150.101 405.025 152.746M454.289 166.633L448.999 178.866M391.469 185.809L408.332 157.375L413.622 154.069M482.393 140.513L472.474 155.722M460.902 140.843L447.016 168.947" stroke="#191A19"/>
<path d="M426.185 125.633C427.178 122.657 425.524 120.344 426.847 119.352C429.822 116.707 433.239 120.563 434.121 122.657L440.403 113.069C439.741 111.967 437.758 109.764 437.758 107.779C437.758 105.793 439.741 104.031 441.064 102.819C429.822 86.9484 449.991 82.9827 456.934 95.2157C459.154 99.1263 466.853 101.168 467.184 115.715C467.324 121.865 459.91 128.718 452.305 131.584C444.635 132.642 443.048 127.287 443.378 122.657C449.991 119.351 447.015 113.069 444.04 113.069C442.497 119.13 439.212 131.518 438.419 132.576C437.427 133.898 430.153 135.551 426.516 133.237C422.879 130.923 425.754 126.927 426.185 125.633Z" fill="#191A19" stroke="#191A19"/>
<path d="M409.985 169.608L413.292 185.478" stroke="#191A19"/>
<path d="M473.797 143.158L471.152 162.665" stroke="#191A19"/>
<path d="M429.984 124.311C429.984 125.058 429.517 125.465 429.161 125.465C428.805 125.465 428.339 125.058 428.339 124.311C428.339 123.565 428.805 123.158 429.161 123.158C429.517 123.158 429.984 123.565 429.984 124.311Z" fill="#D9D9D9" stroke="#191A19"/>
<mask id="path-35-inside-1_2_6" fill="white">
<ellipse cx="433.505" cy="112.218" rx="0.661262" ry="1.32252" transform="rotate(17.9506 433.505 112.218)"/>
</mask>
<ellipse cx="433.505" cy="112.218" rx="0.661262" ry="1.32252" transform="rotate(17.9506 433.505 112.218)" fill="black"/>
<path d="M433.182 112.113C433.107 112.345 433.006 112.492 432.948 112.55C432.92 112.579 432.931 112.557 432.995 112.531C433.066 112.502 433.219 112.464 433.405 112.525L432.789 114.427C433.517 114.663 434.103 114.228 434.374 113.953C434.692 113.629 434.935 113.193 435.085 112.73L433.182 112.113ZM433.405 112.525C433.591 112.585 433.693 112.705 433.734 112.77C433.77 112.829 433.766 112.854 433.76 112.814C433.748 112.733 433.752 112.554 433.827 112.322L431.924 111.706C431.774 112.169 431.715 112.665 431.783 113.113C431.841 113.495 432.061 114.191 432.789 114.427L433.405 112.525ZM433.827 112.322C433.902 112.09 434.004 111.944 434.061 111.885C434.09 111.856 434.078 111.879 434.014 111.905C433.943 111.934 433.79 111.971 433.604 111.911L434.22 110.008C433.492 109.772 432.906 110.207 432.635 110.483C432.317 110.806 432.074 111.243 431.924 111.706L433.827 112.322ZM433.604 111.911C433.418 111.851 433.316 111.731 433.275 111.665C433.239 111.607 433.243 111.582 433.249 111.622C433.261 111.703 433.258 111.882 433.182 112.113L435.085 112.73C435.235 112.267 435.294 111.771 435.226 111.322C435.169 110.94 434.949 110.244 434.22 110.008L433.604 111.911Z" fill="#191A19" mask="url(#path-35-inside-1_2_6)"/>
</svg>
