<svg width="142" height="20" viewBox="0 0 142 20" fill="none" xmlns="http://www.w3.org/2000/svg">
<path d="M9.99628 0C8.28088 0 6.89687 1.38402 6.89687 3.09942C6.89687 4.81482 8.28088 6.19883 9.99628 6.19883C11.7117 6.19883 13.0957 4.81482 13.0957 3.09942C13.0957 1.38402 11.7117 0 9.99628 0ZM9.99628 20C11.7117 20 13.0957 18.616 13.0957 16.9006C13.0957 15.1852 11.7117 13.8012 9.99628 13.8012C8.28088 13.8012 6.89687 15.1852 6.89687 16.9006C6.89687 18.616 8.28088 20 9.99628 20ZM10.6396 10C10.6396 10.2924 10.815 10.5653 11.0684 10.6823L15.5518 12.807C17.0918 13.5283 18.9437 12.8655 19.6649 11.3255C20.3861 9.78558 19.7234 7.93372 18.1834 7.21248C17.3452 6.82261 16.39 6.82261 15.5518 7.21248L11.0684 9.33723C10.815 9.4347 10.6396 9.70761 10.6396 10ZM9.33352 10C9.33352 9.70761 9.15808 9.4347 8.90466 9.31774L4.42123 7.19298C2.88127 6.47173 1.02942 7.1345 0.308174 8.67446C-0.413073 10.2144 0.249694 12.0663 1.78966 12.7875C2.62786 13.1774 3.58303 13.1774 4.42123 12.7875L8.90466 10.6628C9.15808 10.5653 9.33352 10.2924 9.33352 10Z" fill="white"/>
<path d="M32.2762 2.54325C36.4087 2.54325 38.0266 4.45358 38.0266 6.89023C38.0656 8.29374 37.2664 9.59978 35.9994 10.1846C37.5588 10.7499 38.5724 12.2314 38.514 13.8883C38.514 16.5004 36.8571 18.4107 32.6075 18.4107H26.6231V2.54325H32.2762ZM29.1183 4.88244V9.20992H32.2762C34.6738 9.20992 35.4925 8.23526 35.4925 7.06567C35.4925 5.79861 34.6543 4.88244 32.2762 4.88244H29.1183ZM29.1183 11.3932V16.091H32.588C35.1222 16.091 35.9799 15.1553 35.9799 13.7518C35.9799 12.4068 35.1222 11.4127 32.588 11.4127L29.1183 11.3932ZM40.8531 1.31518H43.2703V14.3756C43.2703 15.8571 43.7187 16.3054 44.3229 16.3054C44.6153 16.3249 44.9077 16.247 45.1806 16.1105L45.8824 18.2547C45.2781 18.4887 44.6348 18.6056 44.011 18.6056C42.2372 18.6056 40.8531 17.5335 40.8531 14.3756V1.31518ZM57.6563 18.0403C55.9994 18.4887 54.284 18.7031 52.5686 18.6836C49.5666 18.6836 47.3639 17.1826 47.3639 13.3815V6.20797H49.781V13.5374C49.781 15.7986 50.9506 16.3639 52.744 16.3639C53.5627 16.4029 54.4009 16.3249 55.2001 16.13V6.18847H57.6368L57.6563 18.0403ZM70.9311 13.245H62.6465V13.3425C62.6465 15.3113 63.9721 16.3639 66.1163 16.3639C67.4223 16.3834 68.7284 16.169 69.976 15.7596L70.6777 17.9429C69.2157 18.4497 67.6758 18.7031 66.1163 18.6836C62.4516 18.6836 60.1514 16.8707 60.1514 12.5822V12.0559C60.1514 7.78692 62.2567 5.97405 65.551 5.97405C68.8454 5.97405 70.9311 7.78692 70.9311 12.0559V13.245ZM62.6465 11.3932H68.436V11.2762C68.436 9.22941 67.3054 8.27425 65.551 8.27425C63.7966 8.27425 62.6465 9.22941 62.6465 11.2762V11.3932ZM78.5919 12.2703V18.4302H76.0578V12.3288L69.976 2.56275H72.8414L77.3444 9.98965L81.8083 2.56275H84.6543L78.5919 12.2703ZM83.1728 12.1339C83.1728 7.76742 85.4925 5.97405 88.6699 5.97405C91.8473 5.97405 94.167 7.74793 94.167 12.1339V12.5238C94.167 16.8902 91.8278 18.6836 88.6699 18.6836C85.512 18.6836 83.1728 16.9097 83.1728 12.5238V12.1339ZM91.6914 12.1339C91.6914 9.20992 90.5607 8.27425 88.6699 8.27425C86.7596 8.27425 85.629 9.20992 85.629 12.1339V12.5238C85.629 15.4477 86.7596 16.3834 88.6894 16.3834C90.6192 16.3834 91.7109 15.4477 91.7109 12.5238L91.6914 12.1339ZM96.5646 6.59783C98.2021 6.14949 99.9175 5.93507 101.613 5.95456C104.615 5.95456 106.838 7.43604 106.838 11.2567V18.4107H104.401V11.0813C104.401 8.82006 103.231 8.25475 101.438 8.25475C100.6 8.23526 99.7615 8.29374 98.9428 8.46918V18.4107H96.5257L96.5646 6.59783ZM119.372 18.0403C117.851 18.4692 116.292 18.6836 114.732 18.6836C111.379 18.6836 109.099 16.7148 109.099 12.5822V12.0949C109.099 7.86489 111.516 5.99354 114.81 5.99354C115.551 5.97405 116.272 6.1105 116.955 6.36391V1.33467H119.372V18.0403ZM111.535 12.5627C111.535 15.5452 112.783 16.3639 114.81 16.3639C115.532 16.3834 116.253 16.3054 116.955 16.13V8.68361C116.331 8.39121 115.668 8.25475 114.986 8.27425C112.958 8.27425 111.535 9.05397 111.535 12.0754V12.5627ZM132.588 13.245H124.303V13.3425C124.303 15.3113 125.629 16.3639 127.773 16.3639C129.079 16.3834 130.385 16.169 131.633 15.7596L132.335 17.9429C130.873 18.4497 129.313 18.7031 127.773 18.6836C124.109 18.6836 121.808 16.8707 121.808 12.5822V12.0559C121.808 7.78692 123.914 5.97405 127.208 5.97405C130.502 5.97405 132.588 7.78692 132.588 12.0559V13.245ZM124.362 11.3932H130.151V11.2762C130.151 9.22941 129.021 8.27425 127.266 8.27425C125.512 8.27425 124.362 9.22941 124.362 11.2762V11.3932ZM135.122 6.59783C136.448 6.18848 137.832 5.97405 139.216 5.99354C140.151 5.97405 141.068 6.09101 141.984 6.30543L141.243 8.52766C140.639 8.35222 139.995 8.27425 139.352 8.29374C138.728 8.27425 138.124 8.35222 137.52 8.48867V18.4302H135.103L135.122 6.59783Z" fill="white"/>
</svg>
