<svg width="150" height="30" viewBox="0 0 150 30" fill="none" xmlns="http://www.w3.org/2000/svg">
<path d="M36.4877 0.749939C32.7377 0.749939 31.3877 3.37493 31.3877 5.84993V7.34993H30.5627C29.9627 7.34993 29.5127 7.79994 29.5127 8.39994C29.5127 8.99994 29.9627 9.44994 30.5627 9.44994H31.3877V19.7999C31.3877 20.3999 31.8377 20.8499 32.4377 20.8499C33.0377 20.8499 33.4877 20.3999 33.4877 19.7999V9.37494H35.8877C36.4877 9.37494 36.9377 8.92494 36.9377 8.32494C36.9377 7.72494 36.4877 7.27494 35.8877 7.27494H33.4877V5.77494C33.4877 4.42494 34.0127 2.77494 36.4127 2.77494C37.0127 2.77494 37.4627 2.32494 37.4627 1.72494C37.4627 1.12494 37.0877 0.749939 36.4877 0.749939ZM44.9627 6.97493C43.3127 6.97493 41.9627 7.64993 41.2127 8.77493V8.17494C41.2127 7.57494 40.7627 7.12494 40.1627 7.12494C39.5627 7.12494 39.0377 7.57494 39.0377 8.17494V19.7249C39.0377 20.3249 39.4877 20.7749 40.0877 20.7749C40.6877 20.7749 41.1377 20.3249 41.1377 19.7249V13.3499C41.1377 10.6499 42.5627 9.07494 44.8877 9.07494C45.4877 9.07494 45.9377 8.62494 45.9377 8.02494C46.0877 7.49994 45.5627 6.97493 44.9627 6.97493ZM58.3127 12.6749C58.3127 12.0749 58.2377 10.4249 57.2627 9.07494C56.2877 7.64994 54.7877 6.89994 52.7627 6.89994C48.9377 6.89994 46.7627 9.44994 46.7627 13.8749C46.7627 18.4499 48.9377 20.9249 53.0627 20.9249C55.8377 20.9249 57.3377 19.5749 57.6377 19.2749C57.7877 19.1249 58.0127 18.8999 58.0127 18.5249C58.0127 17.9999 57.5627 17.5499 57.0377 17.5499C56.7377 17.5499 56.5877 17.6249 56.4377 17.7749C55.6127 18.3749 54.7127 18.9749 53.1377 18.9749C50.6627 18.9749 49.0877 17.3249 49.0127 14.6999H57.0377C58.3127 14.6249 58.3127 13.4249 58.3127 12.6749ZM52.7627 8.92494C55.0127 8.92494 56.1377 10.1999 56.2127 12.6749H48.9377C49.1627 10.2749 50.5127 8.92494 52.7627 8.92494ZM65.6627 12.8249C64.0127 12.2999 62.6627 11.7749 62.6627 10.5749C62.6627 9.22494 64.1627 9.07494 64.9877 9.07494C66.5627 9.07494 67.3127 9.59994 67.9877 10.1999C68.2127 10.4249 68.4377 10.4999 68.7377 10.4999C69.2627 10.4999 69.7127 10.0499 69.7127 9.52493C69.7127 9.22493 69.5627 8.99993 69.4877 8.84993C68.5877 7.64993 67.0127 6.97493 65.0627 6.97493C62.2877 6.97493 60.5627 8.32494 60.5627 10.5749C60.5627 13.2749 62.9627 14.0999 65.0627 14.8499C66.6377 15.3749 68.0627 15.8249 68.0627 17.0249C68.0627 18.5999 66.2627 18.8999 65.2127 18.8999C63.7877 18.8999 62.6627 18.4499 61.7627 17.5499C61.4627 17.2499 61.2377 17.2499 61.0127 17.2499C60.4877 17.2499 60.0377 17.6999 60.0377 18.2249C60.0377 18.4499 60.1127 18.5999 60.2627 18.8999C61.0877 19.9499 62.9627 20.9999 65.2877 20.9999C68.4377 20.9999 70.3127 19.4999 70.3127 17.0999C70.0877 14.3249 67.7627 13.5749 65.6627 12.8249ZM78.6377 6.89994C77.1377 6.89994 75.7877 7.49993 75.0377 8.47493V1.04994C75.0377 0.449937 74.5877 -6.10352e-05 73.9877 -6.10352e-05C73.3877 -6.10352e-05 72.9377 0.449937 72.9377 1.04994V19.7249C72.9377 20.3249 73.3877 20.7749 73.9877 20.7749C74.5877 20.7749 75.0377 20.3249 75.0377 19.7249V12.6749C75.0377 10.1249 76.2377 8.84993 78.6377 8.84993C80.9627 8.84993 81.8627 9.89994 81.8627 12.4499V19.6499C81.8627 20.2499 82.3127 20.6999 82.9127 20.6999C83.5127 20.6999 83.9627 20.2499 83.9627 19.6499V12.1499C84.0377 8.69994 82.2377 6.89994 78.6377 6.89994ZM102.188 7.12494C101.738 7.12494 101.363 7.42494 101.138 7.87494L98.0627 16.7249L95.5127 7.87494C95.4377 7.49994 95.0627 7.12494 94.4627 7.12494C93.9377 7.12494 93.5627 7.49994 93.4127 7.87494L90.8627 16.7249L87.7877 7.79994C87.6377 7.34994 87.2627 7.12494 86.7377 7.12494C86.1377 7.12494 85.6877 7.57494 85.6877 8.17494C85.6877 8.32494 85.6877 8.47494 85.7627 8.62494L89.9627 20.0999C90.1127 20.5499 90.4877 20.7749 91.0127 20.7749C91.5377 20.7749 91.9127 20.4749 92.0627 20.0249L94.5377 11.6249L97.0127 20.0249C97.1627 20.4749 97.6127 20.7749 98.0627 20.7749C98.5127 20.7749 98.8877 20.4749 99.1127 20.0249L103.313 8.54994C103.388 8.39994 103.388 8.24993 103.388 8.09993C103.313 7.57493 102.788 7.12494 102.188 7.12494ZM110.138 6.89994C106.163 6.89994 103.988 9.37494 103.988 13.8749C103.988 18.3749 106.163 20.9249 110.138 20.9249C114.113 20.9249 116.288 18.4499 116.288 13.8749C116.288 9.44994 114.113 6.89994 110.138 6.89994ZM110.138 18.9749C107.513 18.9749 106.163 17.3249 106.163 13.9499C106.163 10.6499 107.513 8.92494 110.138 8.92494C112.763 8.92494 114.113 10.5749 114.113 13.9499C114.038 17.3249 112.763 18.9749 110.138 18.9749ZM124.688 6.97493C123.038 6.97493 121.688 7.64993 120.938 8.77493V8.17494C120.938 7.57494 120.488 7.12494 119.888 7.12494C119.288 7.12494 118.838 7.57494 118.838 8.17494V19.7249C118.838 20.3249 119.288 20.7749 119.888 20.7749C120.488 20.7749 120.938 20.3249 120.938 19.7249V13.3499C120.938 10.6499 122.363 9.07494 124.688 9.07494C125.288 9.07494 125.738 8.62494 125.738 8.02494C125.738 7.49994 125.288 6.97493 124.688 6.97493ZM133.013 12.6749L137.513 9.07494C137.888 8.77494 137.963 8.39994 137.963 8.17494C137.963 7.57494 137.513 7.12494 136.913 7.12494C136.763 7.12494 136.463 7.12494 136.163 7.42494L129.713 12.6749V1.04994C129.713 0.449937 129.263 -6.10352e-05 128.663 -6.10352e-05C128.063 -6.10352e-05 127.613 0.449937 127.613 1.04994V19.7249C127.613 20.3249 128.063 20.7749 128.663 20.7749C129.263 20.7749 129.713 20.3249 129.713 19.7249V15.2249L131.213 14.0249L136.163 20.3249C136.463 20.6249 136.763 20.8499 137.063 20.8499C137.663 20.8499 138.113 20.3999 138.113 19.7999C138.113 19.6499 138.113 19.3499 137.888 19.1249L133.013 12.6749ZM145.313 12.8249C143.663 12.2999 142.313 11.7749 142.313 10.5749C142.313 9.22494 143.813 9.07494 144.638 9.07494C146.213 9.07494 146.963 9.59994 147.638 10.1999C147.863 10.4249 148.088 10.4999 148.388 10.4999C148.913 10.4999 149.363 10.0499 149.363 9.52493C149.363 9.22493 149.213 8.99993 149.138 8.84993C148.238 7.64993 146.663 6.97493 144.713 6.97493C141.938 6.97493 140.213 8.32494 140.213 10.5749C140.213 13.2749 142.613 14.0999 144.713 14.8499C146.288 15.3749 147.713 15.8249 147.713 17.0249C147.713 18.5999 145.913 18.8999 144.863 18.8999C143.438 18.8999 142.313 18.4499 141.413 17.5499C141.113 17.2499 140.888 17.2499 140.663 17.2499C140.138 17.2499 139.688 17.6999 139.688 18.2249C139.688 18.4499 139.763 18.5999 139.913 18.8999C140.738 19.9499 142.613 20.9999 144.938 20.9999C148.088 20.9999 149.963 19.4999 149.963 17.0999C149.738 14.3249 147.413 13.5749 145.313 12.8249Z" fill="white"/>
<path d="M0.188232 19.1257C0.563232 21.9007 1.91323 24.3757 3.78823 26.2507L8.13823 21.9007C8.13823 17.4757 10.4632 13.2007 14.5132 10.8007L0.188232 19.1257Z" fill="#F6F6F6"/>
<path d="M8.13823 21.9007L3.78823 26.2507C5.66323 28.1257 8.13809 29.4751 10.9131 29.8501L19.2381 15.5251C16.8381 19.5751 12.5632 21.9007 8.13823 21.9007Z" fill="#CCCDCB"/>
<path d="M9.86308 28.2756C8.66308 26.2506 8.13823 24.0757 8.13823 21.9007L3.78823 26.2507C5.66323 28.1257 8.13809 29.4751 10.9131 29.8501C10.5381 29.4001 10.1631 28.8756 9.86308 28.2756Z" fill="#EBEBEB"/>
<path d="M1.76309 20.1748C3.78809 21.3748 5.96323 21.9007 8.13823 21.9007C8.13823 17.4757 10.4632 13.2007 14.5132 10.8007L0.188232 19.1257C0.638232 19.5007 1.16309 19.8748 1.76309 20.1748Z" fill="#FBFBFB"/>
<path d="M1.76309 10.7998C0.638086 12.6748 0.0380859 14.8498 0.0380859 17.2498C0.0380859 17.9248 0.113232 18.5257 0.188232 19.1257L14.5132 10.8007C10.4632 13.2007 5.58809 13.0498 1.76309 10.7998Z" fill="#D2D2D2"/>
<path d="M14.5132 10.8007L24.4131 5.09979C24.2631 5.02479 24.1879 4.87474 24.0379 4.79974L1.76309 10.7998C5.58809 13.0498 10.4632 13.2007 14.5132 10.8007Z" fill="#AFAFAF"/>
<path d="M22.3882 4.42523H12.7882C8.06323 4.42523 3.93823 6.97523 1.68823 10.8002L23.9632 4.80023C23.5132 4.57523 22.9882 4.42523 22.3882 4.42523Z" fill="#6C6C6C"/>
<path d="M8.13823 21.9007C8.13823 24.0757 8.66308 26.2506 9.86308 28.2756C10.1631 28.8006 10.5381 29.3251 10.9131 29.8501L19.2381 15.5251C16.8381 19.5751 12.5632 21.9007 8.13823 21.9007Z" fill="#FBFBFB"/>
<path d="M19.2381 15.5251L10.9131 29.8501C11.5131 29.9251 12.1881 30.0001 12.7881 30.0001C15.1131 30.0001 17.2881 29.4001 19.1631 28.2751C16.9881 24.4501 16.8381 19.5751 19.2381 15.5251Z" fill="#E4E4E4"/>
<path d="M24.4131 5.09979L14.5132 10.8007C10.3882 13.2007 8.13823 17.4757 8.13823 21.9007L24.6381 5.39979C24.5631 5.24979 24.4881 5.17479 24.4131 5.09979Z" fill="#C1C1C1"/>
<path d="M8.13823 21.9007C12.5632 21.9007 16.8381 19.5751 19.2381 15.5251L24.938 5.62465C24.863 5.54965 24.788 5.47465 24.713 5.32465L8.13823 21.9007Z" fill="#8E8E8E"/>
<path d="M24.938 5.62465L19.2381 15.5251C16.8381 19.6501 17.063 24.4499 19.238 28.2749L25.238 5.99994C25.088 5.92494 25.013 5.77465 24.938 5.62465Z" fill="#929292"/>
<path d="M19.238 28.2749C23.063 26.0999 25.6129 21.8992 25.6129 17.1742V7.64916C25.6129 7.04916 25.4629 6.52416 25.1629 6.07416L19.238 28.2749Z" fill="#A6A6A6"/>
</svg>
