<svg width="90" height="40" viewBox="0 0 90 40" fill="none" xmlns="http://www.w3.org/2000/svg">
<g clip-path="url(#clip0_1301_3063)">
<path fill-rule="evenodd" clip-rule="evenodd" d="M17.9522 0.635559C16.9227 0.635559 15.9115 0.907626 15.021 1.4242L3.1106 8.333C2.22528 8.84657 1.49044 9.58372 0.979659 10.4706C0.468877 11.3576 0.200082 12.3631 0.200195 13.3866V27.2506C0.200363 28.2738 0.46929 29.279 0.980058 30.1657C1.49083 31.0523 2.22552 31.7892 3.1106 32.3026L15.021 39.2114C15.9115 39.728 16.9227 40 17.9522 40C18.9817 40 19.9929 39.728 20.8834 39.2114L32.7938 32.3034C33.6793 31.7899 34.4143 31.0528 34.9252 30.1659C35.4361 29.279 35.705 28.2734 35.705 27.2498V13.385C35.7049 12.3616 35.4359 11.3561 34.925 10.4694C34.4141 9.58258 33.6791 8.8456 32.7938 8.3322L20.8834 1.4242C19.9929 0.907626 18.9817 0.635559 17.9522 0.635559ZM15.7138 12.5104C14.8337 11.6304 13.6401 11.136 12.3955 11.136V24.6815C12.3957 25.926 12.8902 27.1194 13.7703 27.9993C14.6503 28.8792 15.8438 29.3736 17.0883 29.3735V15.8287C17.0883 14.5841 16.5939 13.3905 15.7138 12.5104ZM21.2304 19.806C20.6611 19.5701 20.0509 19.4488 19.4347 19.4488V25.1775C19.4347 26.422 19.929 27.6155 20.8089 28.4956C21.6888 29.3756 22.8822 29.8701 24.1267 29.8703V24.1416C24.1268 23.5253 24.0055 22.9151 23.7698 22.3458C23.534 21.7764 23.1884 21.2591 22.7527 20.8233C22.317 20.3875 21.7998 20.0418 21.2304 19.806Z" fill="white"/>
<path fill-rule="evenodd" clip-rule="evenodd" d="M44.3794 11.9544V18.5768C44.9954 17.2184 46.7266 16.6472 47.8882 16.6472C50.7098 16.6472 52.369 18.5048 52.369 21.6728V26.8896C52.3665 27.2203 52.2328 27.5365 51.9973 27.7687C51.7618 28.0009 51.4437 28.1301 51.113 28.128C50.449 28.128 49.9274 27.5568 49.9274 26.8896V21.816C49.9274 20.0768 48.837 19.0528 47.4618 19.0528C46.0626 19.0528 44.3794 19.8392 44.3794 22.0304V26.8896C44.3769 27.2203 44.2432 27.5365 44.0077 27.7687C43.7722 28.0009 43.4541 28.1301 43.1234 28.128C42.4594 28.128 41.937 27.5568 41.937 26.8896V11.9544C41.9395 11.6236 42.0733 11.3073 42.309 11.075C42.5447 10.8428 42.8629 10.7137 43.1938 10.716C43.8578 10.716 44.3794 11.288 44.3794 11.9544ZM54.2554 12.3832C54.2554 11.5024 55.0138 10.8352 55.8914 10.8352C56.7922 10.8352 57.5034 11.5024 57.5034 12.3832C57.5034 13.2648 56.7922 13.932 55.8914 13.932C55.0138 13.932 54.2554 13.2648 54.2554 12.3832ZM55.8674 28.128C56.5794 28.128 57.1234 27.5568 57.1234 26.8896V18.0048C57.1209 17.6741 56.9872 17.3579 56.7517 17.1257C56.5162 16.8935 56.1981 16.7643 55.8674 16.7664C55.2034 16.7664 54.6818 17.3384 54.6818 18.0048V26.8896C54.6818 27.5568 55.2034 28.128 55.8674 28.128ZM68.9202 18.3144L65.293 27.0088C65.0082 27.6992 64.5338 28.1288 63.8226 28.1288H63.6802C62.969 28.1288 62.4714 27.6992 62.1866 27.0088L58.5826 18.3144C58.3226 17.6952 58.725 16.9096 59.389 16.7904C60.029 16.6704 60.6218 16.9808 60.8594 17.6L63.7514 24.8888L66.6442 17.6C66.881 16.9808 67.4738 16.6712 68.1138 16.7904C68.7778 16.9096 69.181 17.6952 68.9202 18.3144ZM78.369 21.5304H71.9442C72.181 19.8152 73.509 18.7912 75.2162 18.7912C76.8754 18.7912 78.1322 19.7912 78.369 21.5304ZM80.7642 22.1976C80.7642 22.84 80.2426 23.3168 79.6498 23.3168H71.9442C72.181 25.032 73.5562 26.1032 75.3346 26.1032C76.4962 26.1032 77.1602 25.6984 77.9666 25.0312C78.369 24.6984 79.033 24.5312 79.5314 24.9368C79.9818 25.2936 80.005 26.0328 79.5786 26.4848C78.4642 27.652 76.8522 28.2472 75.2162 28.2472C72.0626 28.2472 69.5258 25.9368 69.5258 22.4112C69.5258 18.8864 72.0626 16.6472 75.2162 16.6472C78.2978 16.6472 80.669 18.7912 80.7642 22.1976ZM84.7602 24.0072C84.7602 21.0536 85.637 18.9576 87.7234 18.9576C87.8362 18.9576 87.9578 18.964 88.0842 18.9712C88.7522 19.0072 89.5354 19.0496 89.7154 18.1472C89.7836 17.8447 89.7296 17.5275 89.5653 17.2644C89.401 17.0014 89.1396 16.8138 88.8378 16.7424C88.4944 16.674 88.1447 16.6418 87.7946 16.6464C86.4194 16.6464 85.329 17.4568 84.7602 19.4344V18.0048C84.7577 17.674 84.6238 17.3577 84.3882 17.1254C84.1525 16.8932 83.8343 16.7641 83.5034 16.7664C82.8394 16.7664 82.3178 17.3376 82.3178 18.0048V26.8896C82.3178 27.5568 82.8394 28.128 83.5034 28.128C83.8343 28.1304 84.1525 28.0012 84.3882 27.769C84.6238 27.5368 84.7577 27.2205 84.7602 26.8896V24.0072Z" fill="white"/>
</g>
<defs>
<clipPath id="clip0_1301_3063">
<rect width="89.6" height="40" fill="white" transform="translate(0.200195)"/>
</clipPath>
</defs>
</svg>
