<svg width="146" height="24" viewBox="0 0 146 24" fill="none" xmlns="http://www.w3.org/2000/svg">
<path d="M18.6775 0.799838C16.6169 0.799838 14.9884 1.49777 13.7587 3.39215C12.9611 1.69718 11.2661 0.799838 9.13905 0.799838C7.44407 0.799838 5.44998 1.63071 4.58587 3.15951V1.531C4.58587 1.39806 4.45293 1.26512 4.31999 1.26512H0.830333C0.664159 1.26512 0.564453 1.39806 0.564453 1.531V16.5199C0.564453 16.6861 0.697394 16.7858 0.830333 16.7858H4.48617C4.65234 16.7858 4.75204 16.6529 4.75204 16.5199V7.67945C4.75204 5.98448 5.81556 4.62185 7.67671 4.62185C9.5711 4.62185 10.4352 5.88477 10.4352 7.54651V16.4867C10.4352 16.6529 10.5681 16.7526 10.7011 16.7526H14.2904C14.4566 16.7526 14.5896 16.6196 14.5896 16.4867V7.64622C14.5896 5.98447 15.6531 4.58861 17.4478 4.58861C19.3754 4.58861 20.2063 5.85154 20.2063 7.51328V16.4535C20.2063 16.5864 20.3392 16.7193 20.4721 16.7193H23.995C24.1612 16.7193 24.2609 16.5864 24.2609 16.4535V6.68241C24.2941 2.52805 21.5356 0.799838 18.6775 0.799838ZM34.7299 13.8944C32.6693 13.8944 30.7417 14.7252 30.0438 15.8552C31.3732 16.7526 32.9684 17.2511 34.7299 17.2511C36.4913 17.2511 38.1198 16.7526 39.416 15.8552C38.7513 14.7252 36.724 13.8944 34.7299 13.8944ZM52.4773 0.766602C48.4891 0.766602 44.8333 3.99039 44.8333 8.94238C44.8333 14.1935 48.5888 17.2511 52.8429 17.2511C56.4322 17.2511 58.8252 15.257 59.7557 12.7976C59.8222 12.6314 59.7225 12.4653 59.5563 12.432L56.4987 11.6344C56.3658 11.6012 56.2328 11.6676 56.1664 11.8006C55.6014 12.9306 54.5379 13.695 52.8096 13.695C50.7159 13.695 48.9876 12.1994 48.8879 10.1721H59.7557C59.9219 10.1721 60.0216 10.0724 60.0216 9.90619C60.0548 9.67354 60.0548 9.24149 60.0548 8.87591C60.1545 3.82421 57.2964 0.766602 52.4773 0.766602ZM49.0541 7.2474C49.1538 5.8183 50.3503 4.18979 52.5438 4.18979C54.6043 4.18979 55.967 5.7186 56.0334 7.2474H49.0541Z" fill="white"/>
<path d="M34.7297 0.766602C30.0768 0.766602 26.5872 4.18979 26.5872 9.00885C26.5872 11.1026 27.2519 12.9638 28.4151 14.3597C29.3457 13.5288 30.7748 12.7312 32.4033 12.3988C31.4727 11.7009 30.8745 10.5044 30.8745 8.84267C30.8745 5.98448 32.7024 4.68832 34.7297 4.68832C36.7238 4.68832 38.585 6.01771 38.585 8.84267C38.585 10.5044 37.9535 11.6676 37.0562 12.3988C38.7179 12.7312 40.1138 13.4956 41.0443 14.3264C42.1743 12.9306 42.8723 11.0694 42.8723 8.97561C42.9055 4.22303 39.3826 0.766602 34.7297 0.766602ZM137.824 0.766602C133.836 0.766602 130.18 3.99039 130.18 8.94238C130.18 14.1935 133.936 17.2511 138.19 17.2511C141.812 17.2511 144.172 15.257 145.103 12.7976C145.169 12.6314 145.069 12.4653 144.903 12.432L141.846 11.6344C141.713 11.6012 141.58 11.6676 141.513 11.8006C140.948 12.9306 139.885 13.695 138.157 13.695C136.063 13.695 134.335 12.1994 134.235 10.1721H145.136C145.269 10.1721 145.402 10.0724 145.402 9.90619C145.435 9.67354 145.435 9.24149 145.435 8.87591C145.501 3.82421 142.61 0.766602 137.824 0.766602ZM134.401 7.2474C134.501 5.8183 135.697 4.18979 137.891 4.18979C139.951 4.18979 141.314 5.7186 141.38 7.2474H134.401ZM127.754 1.23189H124.264C124.098 1.23189 123.999 1.36483 123.999 1.49777V3.0598C123.467 1.99629 122.071 0.932776 119.578 0.932776C115.324 0.932776 112.333 4.42244 112.333 8.51032C112.333 12.8641 115.424 16.0546 119.578 16.0546C121.805 16.0546 123.267 15.0908 123.932 14.0605V15.1905C123.932 18.1817 122.437 19.5111 119.811 19.5111C117.917 19.5111 116.62 18.4143 116.255 16.8523C116.222 16.6861 116.055 16.6196 115.922 16.6529L112.665 17.517C112.499 17.5502 112.433 17.7164 112.466 17.8493C113.031 20.7075 115.823 23.2334 119.977 23.2334C125.826 23.2334 128.12 19.3449 128.12 15.0908V1.49777C128.053 1.36483 127.92 1.23189 127.754 1.23189ZM120.309 12.4985C118.116 12.4985 116.587 10.9697 116.587 8.54356C116.587 6.15065 118.216 4.62185 120.309 4.62185C122.337 4.62185 123.965 6.15065 123.965 8.54356C123.965 10.9365 122.437 12.4985 120.309 12.4985ZM70.6566 0.83307C68.9949 0.83307 67.1337 1.56424 66.1699 3.19275V1.531C66.1699 1.39806 66.037 1.26512 65.904 1.26512H62.3811C62.215 1.26512 62.1152 1.39806 62.1152 1.531V16.5199C62.1152 16.6861 62.2482 16.7858 62.3811 16.7858H66.037C66.1699 16.7858 66.3028 16.6529 66.3028 16.5199V7.84563C66.3028 6.05095 67.3664 4.62185 69.2275 4.62185C71.2548 4.62185 72.0857 5.98447 72.0857 7.71269V16.4867C72.0857 16.6529 72.2186 16.7526 72.3516 16.7526H76.0074C76.1736 16.7526 76.2733 16.6196 76.2733 16.4867V6.94829C76.3065 3.59157 74.5451 0.83307 70.6566 0.83307ZM103.426 0.766602C99.3383 0.766602 97.1115 3.35892 96.7792 5.75183C96.746 5.8183 96.8124 5.88477 96.8789 5.918L100.335 6.64917C100.402 6.68241 100.468 6.61593 100.501 6.54947C100.701 5.25331 101.698 4.15656 103.459 4.15656C105.221 4.15656 106.085 5.08713 106.085 6.18388C106.085 6.71564 105.819 7.1477 104.922 7.28064L101.1 7.84563C98.5074 8.21121 96.4469 9.77325 96.4469 12.565C96.4469 14.9911 98.4742 17.2511 101.764 17.2511C104.058 17.2511 105.52 16.1876 106.318 14.9911V16.5199C106.318 16.6861 106.451 16.7858 106.583 16.7858H109.874C110.007 16.7858 110.14 16.6529 110.14 16.5199V6.68241C110.206 3.55833 108.378 0.766602 103.426 0.766602ZM106.118 10.5044C106.118 13.2629 104.49 14.0938 102.695 14.0938C101.332 14.0938 100.668 13.1964 100.668 12.2991C100.668 11.1026 101.499 10.5044 102.595 10.3382L106.118 9.80648V10.5044ZM93.9542 1.23189H90.4646C90.2984 1.23189 90.1987 1.36483 90.1987 1.49777V3.0598C89.6669 1.99629 88.2378 0.932776 85.7785 0.932776C81.5244 0.932776 78.5333 4.42244 78.5333 8.51032C78.5333 12.8641 81.6241 16.0546 85.7785 16.0546C88.0052 16.0546 89.4675 15.0908 90.1322 14.0605V15.1905C90.1322 18.1817 88.6367 19.5111 86.0111 19.5111C84.15 19.5111 82.8206 18.4143 82.455 16.8523C82.4217 16.6861 82.2556 16.6196 82.1226 16.6529L78.8656 17.517C78.6994 17.5502 78.633 17.7164 78.6662 17.8493C79.2312 20.7075 82.0229 23.2334 86.1773 23.2334C92.0266 23.2334 94.3198 19.3449 94.3198 15.0908V1.49777C94.2201 1.36483 94.1204 1.23189 93.9542 1.23189ZM86.5096 12.4985C84.3161 12.4985 82.7873 10.9697 82.7873 8.54356C82.7873 6.15065 84.4158 4.62185 86.5096 4.62185C88.537 4.62185 90.1655 6.15065 90.1655 8.54356C90.1655 10.9365 88.6367 12.4985 86.5096 12.4985Z" fill="white"/>
</svg>
