<svg width="126" height="18" viewBox="0 0 126 18" fill="none" xmlns="http://www.w3.org/2000/svg">
<path d="M21.9716 0.525716H25.2098V14.5808H32.5129L30.5149 17.4745H21.9716V0.525716Z" fill="white"/>
<path d="M114.984 0.525716L118.222 0.594613L118.015 14.6497L125.318 14.7186L123.251 17.6123L114.708 17.4745L114.984 0.525716Z" fill="white"/>
<path d="M39.6772 0.525716H42.9154V17.4745H39.6772V0.525716Z" fill="white"/>
<path d="M63.5156 0.525716H66.6849V17.4745H63.5845L54.8345 5.76194V17.4745H51.6652V0.525716H54.7656L63.5156 12.2383V0.525716Z" fill="white"/>
<path d="M72.0602 0.525716H88.7334L86.7354 3.41942H82.1193V17.4745H78.8122V3.41942H74.0583L72.0602 0.525716Z" fill="white"/>
<path d="M94.2446 0.525716H106.991L104.993 3.35052H97.5516V7.55328H107.06L105.061 10.3781H97.6205V14.6497H107.128L105.13 17.4745H94.3823V0.525716H94.2446Z" fill="white"/>
<path d="M13.4966 10.0335C13.0143 9.41339 12.3253 8.86221 11.6364 8.51772C10.7407 8.10433 9.77613 7.75985 8.81156 7.48426C8.12258 7.27756 7.50251 7.07087 6.88243 6.79528C6.46904 6.58859 6.05566 6.38189 5.71117 6.0374C5.36668 5.69291 5.22888 5.27953 5.22888 4.86614C5.22888 4.38386 5.50448 3.90157 5.91786 3.62598C6.53794 3.2815 7.22692 3.1437 7.91589 3.2126H13.0832L15.0812 0.25H7.847C6.74463 0.25 5.64227 0.456694 4.6777 0.87008C3.78203 1.21457 3.02416 1.83465 2.47298 2.59252C1.9218 3.3504 1.64621 4.24607 1.71511 5.14173C1.64621 6.0374 1.9907 7.00197 2.47298 7.75984C2.95526 8.37992 3.57534 8.93111 4.33321 9.2067C5.22888 9.62008 6.19345 9.89567 7.15802 10.1713C7.98479 10.378 8.67377 10.6535 9.15605 10.8602C9.63833 10.998 9.98282 11.2736 10.3962 11.6181C11.0163 12.3071 11.0163 13.4095 10.3273 14.0295C10.2584 14.0984 10.1895 14.1673 10.1206 14.2362C9.50054 14.5807 8.74266 14.7874 7.98479 14.7185H2.81747L0.681641 17.75H7.847C8.94936 17.75 10.1206 17.5433 11.1541 17.1299C12.0498 16.7854 12.8765 16.1654 13.4277 15.3386C13.9789 14.5807 14.2545 13.6161 14.2545 12.6516C14.3234 11.687 14.0478 10.7913 13.4966 10.0335Z" fill="white"/>
</svg>
