<svg width="140" height="30" viewBox="0 0 140 30" fill="none" xmlns="http://www.w3.org/2000/svg">
<path d="M3.40662 5.19813C3.50717 3.45529 5.0154 1.98057 6.85879 2.08112C7.42856 2.18167 7.99834 2.18167 8.93679 2.88551C13.1933 6.57229 15.7406 13.2755 15.0367 18.9062C14.9362 19.2414 14.7016 19.1408 14.5675 18.9062C13.428 14.8843 9.50656 10.125 5.92034 8.75083C4.21101 8.08051 3.27256 6.8069 3.40662 5.19813Z" fill="white"/>
<path d="M33.8393 4.863C33.8393 2.21523 31.6607 -0.0973873 28.5437 0.00316119C22.5443 0.10371 14.3664 15.6887 19.0922 29.7655C19.1927 30.1007 19.4273 30.0001 19.4273 29.665C19.9971 19.8782 25.9965 12.136 31.1915 9.25361C33.2695 8.08055 33.8393 6.70639 33.8393 4.863Z" fill="white"/>
<path d="M0.725274 19.0402C0.825823 20.9842 2.46811 21.9226 4.07689 21.9226C7.52905 21.9226 11.8191 23.5314 14.3328 25.6094C14.5674 25.844 14.5674 25.7099 14.4334 25.2742C13.3944 21.688 7.86421 15.6886 3.94282 15.6886C1.89834 15.8227 0.624726 17.532 0.725274 19.0402Z" fill="white"/>
<path d="M37.7606 19.0402C37.66 20.9842 36.0177 21.9226 34.409 21.9226C30.9568 21.9226 26.6667 23.5314 24.153 25.6094C23.9184 25.844 23.9184 25.7099 24.0525 25.2742C25.0915 21.688 30.6216 15.6886 34.543 15.6886C36.7216 15.8227 37.8611 17.532 37.7606 19.0402Z" fill="white"/>
<path d="M46.1733 19.1743C46.9776 19.7441 48.5864 20.4479 50.1952 20.4479C51.5694 20.4479 52.6083 19.7441 52.6083 18.6045C52.6083 15.8227 45.4694 16.7612 45.4694 12.0354C45.4694 9.3876 47.782 8.01344 50.5303 8.01344C52.4743 8.01344 53.5133 8.58321 54.921 9.52166L53.7814 11.2645C52.5078 10.6947 51.804 10.326 50.4298 10.326C49.0556 10.326 48.0166 10.8958 48.0166 12.0689C48.0166 14.8507 55.1556 13.8117 55.1556 18.6381C55.1556 21.0512 53.1781 22.7941 50.0946 22.7941C47.782 22.7941 46.0727 21.8556 45.0337 21.0512L46.1733 19.1743Z" fill="white"/>
<path d="M65.1098 20.3138C67.2883 20.3138 69.1317 18.4704 69.1317 15.3534C69.1317 12.3705 67.5229 10.3931 65.2103 10.3931C63.1323 10.3931 61.1884 11.9013 61.1884 15.454C61.0543 17.9007 62.5625 20.3138 65.1098 20.3138ZM58.5071 30V8.31505H60.9203V9.92382C60.9203 10.3931 60.8197 10.6277 60.8197 10.6277H60.9203C60.9203 10.6277 62.1939 7.97989 65.646 7.97989C69.4669 7.97989 71.746 10.9628 71.746 15.2529C71.746 19.7441 69.0982 22.5259 65.4114 22.5259C62.2944 22.5259 61.0208 19.9787 61.0208 19.9787H60.9203C60.9203 19.9787 61.0208 20.4479 61.0208 21.2523V29.7989L58.5071 30Z" fill="white"/>
<path d="M82.6387 10.8623C79.8569 10.8623 77.5778 13.8453 77.5778 16.6271V22.4924H74.93V8.31511H77.5778V10.8623C77.5778 11.4321 77.4772 11.9013 77.4772 11.9013H77.5778C78.047 10.058 80.5607 8.21457 82.6387 8.21457V10.8623Z" fill="white"/>
<path d="M88.0349 8.31505H85.3871V22.3918H88.0349V8.31505Z" fill="white"/>
<path d="M101.877 22.3919V13.9793C101.877 12.0354 101.542 10.3931 99.2292 10.3931C96.5814 10.3931 94.5034 12.7057 94.5034 15.5881V22.3919H91.8557V8.31508H94.5034V10.3931C94.5034 10.8623 94.4029 11.1975 94.4029 11.1975H94.5034C95.0732 9.92386 96.816 7.84586 99.799 7.84586C103.151 7.84586 104.659 9.68924 104.659 13.1414V22.1237L101.877 22.3919Z" fill="white"/>
<path d="M117.697 22.3919L113.541 15.6886H111.463V22.3919H108.815V0.807464H111.463V13.5101H113.44L117.361 8.44915H120.143L115.619 14.5491V14.6496L120.579 22.4924H117.697V22.3919Z" fill="white"/>
<path d="M128.053 22.3919C125.875 22.3919 123.327 22.0567 123.327 18.4705V0.807464H125.975V18.2359C125.975 19.9787 127.349 19.9787 127.953 20.0792V22.3919H128.053Z" fill="white"/>
<path d="M139.147 10.7282C136.365 10.7282 134.086 13.7112 134.086 16.493V22.3583H131.438V8.28157H134.086V10.8288C134.086 11.3986 133.985 11.8678 133.985 11.8678H134.086C134.656 10.0244 137.203 8.18102 139.281 8.18102L139.147 10.7282Z" fill="white"/>
<path d="M88.4035 3.72334C88.4035 4.66179 87.6997 5.33212 86.7947 5.33212C85.8563 5.33212 85.186 4.62828 85.186 3.72334C85.186 2.78489 85.8898 2.11456 86.7947 2.11456C87.6997 2.08105 88.4035 2.78489 88.4035 3.72334Z" fill="white"/>
</svg>
