<svg width="110" height="30" viewBox="0 0 110 30" fill="none" xmlns="http://www.w3.org/2000/svg">
<path d="M28.2496 -6.10352e-05L19.0761 21.0407H18.9231L17.9504 12.3373L13.1504 23.0918L13.4892 25.6097H23.1948L34.6247 -6.10352e-05H28.2496Z" fill="#B3B3B3"/>
<path d="M17.9492 12.3373H17.9503L23.4562 0.0010376H17.0811L7.9076 21.0418H7.75456L6.75567 12.3384H0.53418L2.32062 25.6108H12.0262L13.1504 23.0919L11.7027 12.3373H17.9492Z" fill="#666666"/>
<path d="M17.9508 12.3373H11.7031L13.1508 23.0919L17.9295 12.3841L17.9508 12.3373Z" fill="#333333"/>
<path d="M42.973 12.3434L36.6431 25.6159H32.7886L31.9972 17.4478L28.347 25.6159H24.6712L22.8848 12.3434H26.3563L27.3008 21.0474H27.4538L31.2315 12.3434H34.6006L35.392 21.0474H35.5451L39.3995 12.3434H42.973Z" fill="white"/>
<path d="M44.6826 6.93231H48.256L47.0311 13.7987C48.0267 12.6756 49.4047 12.0885 51.013 12.0885C53.5402 12.0885 55.2754 13.5432 55.2754 16.0704C55.2754 16.8362 55.1224 17.755 54.9693 18.5719L53.6932 25.6169H50.196L51.4209 18.6487C51.4977 18.1896 51.6252 17.6531 51.6252 17.066C51.6252 15.9429 51.1911 14.9473 49.5833 14.9473C47.7713 14.9473 46.6226 16.1978 46.316 17.9336L44.9631 25.6164H41.3896L44.6826 6.93231Z" fill="white"/>
<path d="M65.4469 25.6164L65.6756 24.3458C64.9638 25.3212 63.5074 25.8719 61.8228 25.8719C58.0964 25.8719 55.7734 23.1917 55.7734 19.4396C55.7734 15.3046 58.6323 12.0885 62.9459 12.0885C65.3962 12.0885 66.7235 13.1348 67.4125 14.3346L67.7676 12.3439H70.9353L69.0977 22.7581L68.6293 25.617H65.4469V25.6164ZM66.723 18.5458C66.723 16.4528 65.5231 14.87 63.2264 14.87C60.4443 14.87 59.2189 17.1673 59.2189 19.3879C59.2189 21.634 60.495 23.0887 62.6392 23.0887C65.3194 23.0893 66.723 20.8175 66.723 18.5458Z" fill="white"/>
<path d="M77.5452 8.51453L76.8562 12.3434H80.2766L79.8425 14.9468H76.4221L75.2735 21.5065C75.0948 22.5277 75.3503 23.1655 76.4477 23.1655C76.9581 23.1655 77.8148 22.9934 78.4019 22.7892L77.9624 25.3114C77.4777 25.5413 76.7538 25.8708 75.0692 25.8708C71.7512 25.8708 71.3684 23.7009 71.8275 21.0724L72.8994 14.9468H71.0361L71.5285 12.3434H73.3841L74.6346 8.51453H77.5452Z" fill="white"/>
<path d="M95.4018 12.3434L93.0533 25.6159H89.5566L91.4188 14.9757L89.8453 14.9403L90.3224 12.3428H95.4018V12.3434ZM93.7423 6.67688C94.8141 6.67688 95.6823 7.54505 95.6823 8.61691C95.6823 9.68877 94.8147 10.5569 93.7423 10.5569C92.6704 10.5569 91.8022 9.68932 91.8022 8.61691C91.8028 7.54505 92.6704 6.67688 93.7423 6.67688Z" fill="white"/>
<path d="M99.894 18.7501L96.4224 12.3434H100.226L102.242 16.4271L105.305 12.3434H109.466L103.901 19.0055L107.322 25.6164H103.595L101.502 21.3028L98.235 25.6164H94.0488L99.894 18.7501Z" fill="white"/>
<path d="M79.7524 27.2754C80.7736 27.148 81.1053 26.5608 81.2584 25.7439L83.1216 14.9468H81.0797L81.437 12.3434H83.6063L83.8106 11.1691C84.1935 9.10164 85.0867 6.67688 88.3796 6.67688C89.5419 6.67688 90.4863 6.94703 90.4863 6.94703L90.0555 9.42571C89.6029 9.36852 89.4003 9.33149 88.9662 9.33149C87.6645 9.33149 87.5114 10.0461 87.3328 11.0161L87.103 12.3434H89.5277L89.0681 14.9468H86.6433L84.7033 25.8457C84.2185 28.6278 83.2349 30.2029 79.2666 29.979L79.7524 27.2754Z" fill="white"/>
</svg>
