<svg width="44" height="31" viewBox="0 0 44 31" fill="none" xmlns="http://www.w3.org/2000/svg">
<path d="M43.08 4.90913C42.573 3.01483 41.0842 1.52619 39.1899 1.01911C35.76 0.0991214 21.9999 0.0991211 21.9999 0.0991211C21.9999 0.0991211 8.24003 0.0991214 4.81 1.01911C2.91571 1.52619 1.42707 3.01483 0.919986 4.90913C2.75386e-07 8.33915 0 15.4998 0 15.4998C0 15.4998 2.75386e-07 22.6606 0.919986 26.0906C1.42707 27.9849 2.91571 29.4735 4.81 29.9805C8.24003 30.9006 21.9999 30.9006 21.9999 30.9006C21.9999 30.9006 35.76 30.9006 39.1899 29.9805C41.0842 29.4735 42.573 27.9849 43.08 26.0906C44 22.6606 44 15.4998 44 15.4998C44 15.4998 43.9963 8.33915 43.08 4.90913Z" fill="#FF0000"/>
<path d="M17.5977 22.0994L29.0287 15.5002L17.5977 8.90088V22.0994Z" fill="white"/>
</svg>
