<svg width="340" height="330" viewBox="0 0 340 330" fill="none" xmlns="http://www.w3.org/2000/svg">
<g opacity="0.3">
<path d="M339.654 60.3464C416.782 137.475 416.782 262.525 339.654 339.654C262.525 416.782 137.475 416.782 60.3464 339.654C-16.7821 262.525 -16.7821 137.475 60.3464 60.3464C137.475 -16.7822 262.525 -16.7821 339.654 60.3464Z" stroke="white" stroke-width="5" stroke-linejoin="round"/>
<path d="M99.7219 80.1216L99.6995 80.1046C98.9009 79.504 97.9677 79.2969 97.2877 79.2065C96.5566 79.1094 95.7705 79.1066 95.0247 79.1382C93.9115 79.1853 92.6317 79.3254 91.4531 79.4544C91.0824 79.4949 90.7217 79.5344 90.3793 79.5695C89.5544 79.6542 88.8364 79.7137 88.2316 79.7373C88.8337 79.0014 89.6095 78.1557 90.4755 77.2376C90.7458 76.9509 91.0259 76.6562 91.3092 76.3582C92.054 75.5746 92.8209 74.7677 93.4909 74.0226C94.377 73.0371 95.315 71.9232 95.8433 70.9202L95.8571 70.8935C97.1288 68.4069 97.4059 65.5364 97.6264 63.2527L97.6354 63.1587C97.8801 60.6261 98.0772 58.7875 98.7835 57.3883L98.7983 57.3585C100.268 54.3495 102.2 51.5903 104.526 49.1819C110.005 44.562 116.909 39.757 124.161 36.0237C131.484 32.2536 138.987 29.6669 145.643 29.3315C146.206 29.3031 147.088 29.5277 148.255 30.277C149.392 31.0071 150.607 32.1148 151.764 33.4944C154.108 36.2882 155.907 39.8225 156.397 42.7217C156.682 44.4276 156.708 48.2103 156.179 52.1512C155.918 54.0938 155.533 55.9871 155.017 57.6088C154.488 59.2694 153.88 60.4549 153.279 61.1461L153.258 61.1705C151.064 63.76 147.411 65.2124 142.877 66.6814C142.389 66.8395 141.889 66.9982 141.379 67.1596C137.493 68.392 133.101 69.7846 129.905 72.3002C126.189 75.2178 123.382 79.8564 120.853 84.0356C120.563 84.5156 120.276 84.9896 119.992 85.4542C117.055 90.2567 114.352 94.1916 110.795 96.0871C110.79 96.0899 110.611 96.1742 110.116 96.1261C109.637 96.0794 109.036 95.924 108.363 95.6633C106.993 95.1327 105.73 94.3271 105.188 93.87L105.166 93.8523C105.009 93.7226 104.662 93.2564 104.253 92.0994C103.871 91.0157 103.558 89.7031 103.218 88.2384C103.2 88.1618 103.182 88.0847 103.164 88.0071C102.855 86.6719 102.515 85.2049 102.09 83.9445C101.677 82.7211 101.008 81.1113 99.7219 80.1216ZM87.2356 81.1732C87.2325 81.183 87.2305 81.1881 87.2302 81.1882C87.23 81.1882 87.2315 81.1833 87.2356 81.1732Z" stroke="white" stroke-width="5" stroke-linecap="round" stroke-linejoin="round"/>
<path d="M318.414 301.935L318.414 301.935C317.537 303.747 316.509 306.774 315.721 309.871C314.919 313.022 314.467 315.853 314.538 317.356C314.579 318.127 314.846 319.44 315.289 320.549C315.416 320.865 315.54 321.123 315.653 321.322C315.978 321.154 316.368 320.919 316.792 320.629C317.881 319.884 318.871 319.006 319.293 318.502L318.414 301.935ZM318.414 301.935L318.418 301.926M318.414 301.935L318.418 301.926M318.418 301.926C319.186 300.323 320.729 297.754 322.491 295.359C323.366 294.169 324.266 293.063 325.119 292.163C325.906 291.331 326.564 290.773 327.053 290.464C327.813 290.222 328.626 290.191 329.405 290.375C329.915 290.5 330.849 290.837 331.619 291.273C331.885 291.423 332.078 291.556 332.209 291.66M318.418 301.926L332.209 291.66M332.209 291.66C332.325 295.645 330.809 300.34 328.339 305.127C325.805 310.038 322.409 314.773 319.293 318.501L332.209 291.66ZM315.969 321.77C315.969 321.771 315.963 321.766 315.95 321.753C315.963 321.763 315.969 321.77 315.969 321.77ZM332.374 291.809C332.387 291.823 332.391 291.829 332.391 291.829C332.39 291.829 332.384 291.823 332.374 291.809Z" stroke="white" stroke-width="5" stroke-linecap="round" stroke-linejoin="round"/>
<path d="M203.253 96.2413C203.274 96.2392 203.297 96.2371 203.321 96.2352C203.763 96.201 204.343 96.2444 205.202 96.3218C205.239 96.3252 205.278 96.3287 205.316 96.3322C206.055 96.3992 207.018 96.4864 207.915 96.4343C208.827 96.3813 210.172 96.1664 211.243 95.1753C212.213 94.2786 212.655 93.0221 212.902 92.139C213.162 91.211 213.337 90.1683 213.485 89.2885C213.49 89.2588 213.495 89.2294 213.5 89.2002C213.663 88.2296 213.798 87.4491 213.977 86.8268C214.067 86.5129 214.142 86.3389 214.181 86.256C214.257 86.2213 214.387 86.1685 214.586 86.113C214.948 86.0121 215.394 85.9425 215.85 85.9259C216.314 85.909 216.696 85.9501 216.947 86.0127C216.959 86.0158 216.971 86.0188 216.982 86.0218C217.161 86.3443 217.397 86.9826 217.56 88.043C217.75 89.2816 217.795 90.7985 217.696 92.389C217.597 93.9736 217.359 95.5577 217.02 96.9193C216.676 98.3017 216.271 99.2761 215.924 99.8022C215.827 99.9289 215.557 100.189 214.981 100.518C214.409 100.846 213.682 101.158 212.868 101.437C211.23 101.999 209.495 102.34 208.489 102.441C207.604 102.526 206.074 102.543 204.689 102.353C203.995 102.258 203.438 102.124 203.051 101.974C202.938 101.93 202.859 101.892 202.807 101.864C202.77 101.745 202.708 101.512 202.661 101.127C202.589 100.537 202.577 99.8034 202.637 99.0358C202.697 98.2682 202.823 97.5379 202.993 96.9495C203.078 96.6571 203.165 96.4277 203.244 96.2601C203.247 96.2537 203.25 96.2474 203.253 96.2413ZM203.05 96.276C203.05 96.2759 203.054 96.2742 203.064 96.2717C203.055 96.2749 203.051 96.2762 203.05 96.276ZM217.122 86.0699C217.122 86.0701 217.118 86.0681 217.109 86.0636C217.118 86.0675 217.123 86.0698 217.122 86.0699Z" stroke="white" stroke-width="5" stroke-linecap="round" stroke-linejoin="round"/>
<path d="M329.639 60.86L329.632 60.8847C329.152 62.5219 327.948 63.7546 326.731 64.6172C325.476 65.5067 323.954 66.1873 322.389 66.6418C319.372 67.5181 315.515 67.7356 312.583 66.2056L312.558 66.1924C311.628 65.6937 311.028 64.8301 310.702 64.3198C310.323 63.725 309.973 63.0388 309.686 62.474L309.626 62.3546C309.342 61.794 309.112 61.3398 308.887 60.9649C308.74 60.7178 308.65 60.6039 308.623 60.5685C306.773 59.3326 303.823 58.9901 300.171 59.108C298.694 59.1557 297.225 59.2704 295.778 59.3834C295.471 59.4074 295.165 59.4313 294.86 59.4544C293.225 59.5788 291.557 59.6881 290.139 59.615C287.645 59.6846 285.149 59.5323 282.682 59.1598C282.56 59.1415 282.44 59.1142 282.323 59.0782C278.475 57.8993 274.57 55.5502 270.97 53.385C270.275 52.9672 269.592 52.5562 268.923 52.1619C264.55 49.5848 260.697 47.6515 257.078 47.5038C256.54 47.4833 255.529 47.6795 254.081 48.2597C252.694 48.8152 251.124 49.6335 249.555 50.613C246.346 52.6163 243.531 55.0472 242.312 56.8658C238.392 62.8601 236.225 69.8302 236.054 76.9901C236.063 78.0546 236.61 80.132 237.589 82.3057C238.062 83.3541 238.591 84.3253 239.118 85.103C239.672 85.922 240.111 86.358 240.352 86.521C240.619 86.7012 241.194 86.9536 242.099 87.1605C242.965 87.3586 243.981 87.4802 245.008 87.4993C246.039 87.5184 247.01 87.4328 247.798 87.2567C248.469 87.1065 248.861 86.9236 249.053 86.8004C249.081 86.7232 249.127 86.5789 249.177 86.3401C249.298 85.7558 249.366 85.0009 249.434 84.0579C249.442 83.9541 249.449 83.8476 249.457 83.7389C249.514 82.9375 249.579 82.0168 249.704 81.1969C249.831 80.3601 250.084 79.0997 250.844 78.1259C251.383 77.4344 252.181 76.7568 252.964 76.1884C253.784 75.5935 254.746 75.0042 255.73 74.5218C256.69 74.0506 257.793 73.6214 258.87 73.4437C259.829 73.2854 261.473 73.2152 262.742 74.3945L262.751 74.4025C265.788 77.2522 267.375 82.2052 267.924 86.756C268.476 91.3319 268.085 96.397 266.299 99.7635C264.358 103.422 259.746 106.676 255.094 108.61C252.7 109.606 250.133 110.323 247.652 110.57C245.193 110.814 242.651 110.611 240.446 109.582C239.467 109.126 238.883 108.342 238.541 107.663C238.204 106.993 238.02 106.267 237.905 105.621C237.677 104.341 237.637 102.82 237.607 101.501C237.605 101.388 237.603 101.277 237.6 101.167C237.573 99.89 237.548 98.7609 237.434 97.8045C237.374 97.2957 237.297 96.9255 237.215 96.6719C237.179 96.5581 237.149 96.4932 237.135 96.4635C236.568 95.9055 235.089 95.1569 233.273 94.7929C232.4 94.6179 231.61 94.5675 231.006 94.6242C230.67 94.6558 230.466 94.7124 230.357 94.7524C230.323 94.8843 230.27 95.1757 230.277 95.7272C230.289 96.7279 230.483 97.9808 230.735 99.48C230.754 99.5902 230.773 99.7018 230.792 99.8146C231.016 101.141 231.269 102.639 231.346 103.987C231.422 105.332 231.382 107.212 230.35 108.68L230.344 108.689C229.311 110.145 227.702 110.894 226.332 111.339C224.916 111.8 223.311 112.073 221.869 112.296C221.571 112.342 221.28 112.386 220.996 112.429C219.829 112.606 218.774 112.765 217.816 112.982C216.604 113.256 215.942 113.544 215.634 113.778C214.759 114.503 213.412 116.027 212.233 117.776C211.651 118.639 211.149 119.499 210.786 120.274C210.441 121.011 210.28 121.55 210.231 121.881C210.249 121.93 210.316 122.154 210.584 122.611C210.898 123.148 211.303 123.713 211.788 124.389C211.896 124.539 212.008 124.695 212.124 124.858C212.693 125.656 213.397 126.667 213.836 127.68C214.246 128.626 214.745 130.312 213.74 131.921C212.502 133.948 210.224 134.098 208.898 134.034C207.446 133.964 205.787 133.572 204.406 133.245L204.358 133.233C202.836 132.873 201.582 132.578 200.569 132.502C200.069 132.464 199.806 132.495 199.69 132.518C199.411 132.932 199.104 133.748 198.968 135.083C198.822 136.506 198.901 138.219 199.181 139.976C199.461 141.728 199.928 143.433 200.502 144.833C201.102 146.298 201.716 147.174 202.145 147.54L202.152 147.546C202.349 147.715 202.905 148.012 203.964 148.246C204.962 148.466 206.176 148.58 207.443 148.571C208.707 148.562 209.95 148.43 210.998 148.199C211.959 147.987 212.593 147.727 212.937 147.518C212.973 147.44 213.048 147.256 213.13 146.899C213.288 146.209 213.375 145.342 213.48 144.255L213.487 144.183C213.582 143.201 213.696 142.015 213.94 140.973C214.167 140.003 214.639 138.509 215.925 137.57L215.93 137.567C217.301 136.571 218.961 136.452 220.236 136.51C221.569 136.571 222.997 136.858 224.258 137.138C224.636 137.222 224.997 137.304 225.346 137.384C226.236 137.588 227.039 137.772 227.805 137.903C228.919 138.092 229.492 138.076 229.718 138.018L229.722 138.017C229.722 138.017 229.749 138.01 229.806 137.985C229.868 137.957 229.951 137.915 230.058 137.853C230.277 137.724 230.544 137.541 230.865 137.292C231.347 136.921 231.831 136.503 232.378 136.032C232.594 135.845 232.821 135.649 233.061 135.445C233.84 134.782 234.761 134.027 235.702 133.472C236.578 132.956 237.938 132.327 239.466 132.6M329.639 60.86L239.026 135.061M329.639 60.86C329.843 60.1348 329.761 59.4567 329.681 59.0325C329.592 58.5668 329.443 58.1102 329.292 57.7081C328.991 56.9089 328.564 56.03 328.19 55.267C328.147 55.1797 328.105 55.0938 328.063 55.0091C327.716 54.3031 327.412 53.6865 327.185 53.1451C327.067 52.8662 326.992 52.6574 326.948 52.5098C327.157 51.5133 327.577 50.5799 328.172 49.7692C353.916 71.7814 373.578 100.053 385.254 131.876C396.498 162.524 399.961 195.45 395.377 227.709M329.639 60.86L397.452 230.746C396.72 229.76 396.028 228.747 395.377 227.709M239.466 132.6L239.026 135.061M239.466 132.6C239.465 132.6 239.464 132.6 239.463 132.6L239.026 135.061M239.466 132.6C240.921 132.86 242.245 133.705 243.301 134.578C244.407 135.49 245.464 136.637 246.393 137.832C248.184 140.138 249.827 143.061 250.247 145.372M239.026 135.061C242.353 135.653 247.159 142.362 247.787 145.819M250.247 145.372C250.246 145.368 250.245 145.364 250.244 145.359L247.787 145.819M250.247 145.372L247.787 145.819M250.247 145.372L247.787 145.819M177.779 205.084L177.771 205.098C177.228 205.979 176.387 206.534 175.84 206.858C175.283 207.187 174.651 207.486 174.143 207.726C174.104 207.745 174.065 207.763 174.028 207.781C173.441 208.058 173.014 208.267 172.693 208.467C172.604 208.523 172.542 208.566 172.503 208.596C172.171 209.301 171.872 210.408 171.683 211.875C171.486 213.407 171.428 215.17 171.507 216.958C171.67 220.632 172.384 223.904 173.258 225.455C178.192 233.243 185.504 239.235 194.109 242.544C198.029 243.87 202.843 243.508 208.383 242.915C208.76 242.875 209.14 242.833 209.524 242.791C214.529 242.246 220.06 241.643 224.981 242.731L224.988 242.733C226.882 243.157 229.546 244.363 231.888 245.769C233.086 246.488 234.274 247.304 235.299 248.167C236.295 249.005 237.274 249.999 237.905 251.102L237.908 251.107C238.784 252.646 238.983 254.54 239.008 256.187C239.033 257.897 238.865 259.784 238.711 261.509L238.707 261.548C238.548 263.322 238.404 264.934 238.412 266.34C238.421 267.819 238.607 268.664 238.826 269.075L238.831 269.084C238.836 269.092 238.89 269.171 239.073 269.305C239.29 269.465 239.616 269.649 240.082 269.85C241.038 270.262 242.238 270.603 243.642 270.998L243.723 271.021C245.016 271.384 246.512 271.805 247.766 272.358C248.947 272.879 250.583 273.792 251.298 275.527C254.057 282.113 252.066 289.597 250.091 296.162C249.874 296.885 249.655 297.599 249.439 298.306C248.627 300.958 247.848 303.506 247.281 306.015C246.568 309.174 246.253 312.037 246.62 314.612C246.702 315.167 247.022 316 247.663 317.153C248.286 318.275 249.085 319.481 249.952 320.783L250.023 320.891C250.843 322.122 251.723 323.445 252.429 324.705C253.13 325.953 253.814 327.402 254.014 328.844C254.534 332.276 254.019 336.199 253.562 339.688C253.486 340.267 253.412 340.835 253.344 341.386C252.829 345.57 252.663 348.921 253.738 351.416C253.882 351.739 254.344 352.284 255.434 352.872C256.483 353.437 257.866 353.904 259.392 354.205C260.91 354.505 262.472 354.623 263.843 354.551C265.261 354.477 266.258 354.211 266.796 353.919C266.808 353.912 266.821 353.905 266.833 353.899C270.816 351.818 275.135 348.176 278.978 343.916C282.814 339.664 286.032 334.957 287.898 330.879L287.904 330.866C289.49 327.448 289.649 322.957 289.83 317.838L289.831 317.799L289.834 317.724C290.002 312.956 290.197 307.452 292.569 303.318L292.584 303.292C293.641 301.501 295.202 300.055 296.817 298.84C298.419 297.634 300.24 296.537 301.933 295.516L301.984 295.485C303.739 294.427 305.364 293.444 306.768 292.393C308.173 291.34 309.2 290.33 309.834 289.298L309.838 289.292C310.885 287.598 311.534 285.435 311.939 282.838C312.343 280.241 312.478 277.397 312.607 274.381L312.622 274.019C312.744 271.166 312.872 268.166 313.265 265.339C313.676 262.391 314.396 259.446 315.824 256.878L315.826 256.874C317.944 253.081 321.901 250.149 325.329 247.61C325.5 247.484 325.669 247.358 325.837 247.234C329.648 244.405 332.773 241.96 334.259 239.003L334.266 238.99C334.405 238.717 334.597 238.04 334.691 236.927C334.78 235.876 334.765 234.65 334.649 233.437C334.533 232.218 334.321 231.094 334.052 230.235C333.793 229.404 333.577 229.139 333.586 229.131C333.588 229.129 333.599 229.138 333.62 229.155C333.607 229.144 333.594 229.134 333.582 229.124C332.787 228.476 331.572 227.99 329.838 227.643C328.196 227.314 326.355 227.155 324.332 226.98L324.023 226.953C321.952 226.774 319.689 226.568 317.624 226.09C315.563 225.612 313.429 224.806 311.766 223.239C311.053 222.569 310.695 221.739 310.503 221.039C310.31 220.331 310.241 219.588 310.225 218.899C310.192 217.533 310.364 215.967 310.534 214.551C310.563 214.309 310.592 214.071 310.62 213.836C310.769 212.622 310.905 211.502 310.961 210.486C311.031 209.195 310.933 208.526 310.831 208.275C310.689 207.924 310.32 207.389 309.589 206.642C308.88 205.918 308.015 205.173 307.047 204.342L307.032 204.328C306.11 203.536 305.083 202.654 304.222 201.76C303.386 200.892 302.475 199.785 302.024 198.488C301.363 196.584 300.923 193.345 300.955 190.321C300.971 188.784 301.11 187.182 301.452 185.744C301.78 184.372 302.371 182.81 303.54 181.708L303.563 181.687C304.352 180.961 305.345 180.667 306.055 180.528C306.831 180.376 307.655 180.338 308.415 180.363C309.819 180.409 311.573 180.694 312.738 181.343L312.744 181.347C320.396 185.641 326.57 194.832 329.034 202.989M177.779 205.084L327.438 213.756C327.437 213.755 327.437 213.754 327.436 213.754C327.426 213.738 327.42 213.73 327.421 213.729C327.422 213.728 327.437 213.744 327.473 213.774M177.779 205.084C178.741 203.501 179.102 201.485 179.27 199.641C179.442 197.765 179.44 195.679 179.439 193.732L179.439 193.646C179.438 191.616 179.439 189.735 179.591 188.097C179.746 186.407 180.037 185.333 180.389 184.746L177.779 205.084ZM329.034 202.989L326.641 203.712M329.034 202.989C329.034 202.988 329.034 202.988 329.034 202.987L326.641 203.712M329.034 202.989C329.427 204.289 329.221 205.721 329.012 206.762C328.823 207.696 328.538 208.719 328.28 209.64C328.229 209.823 328.179 210.001 328.131 210.175C327.821 211.298 327.586 212.232 327.497 212.991C327.444 213.438 327.461 213.675 327.473 213.774M326.641 203.712C327.004 204.912 326.448 206.904 325.88 208.938C325.206 211.352 324.516 213.824 325.329 215.098C326.419 216.817 331.151 217.945 333.185 217.631M326.641 203.712L332.803 215.16M327.473 213.774C327.54 213.829 327.678 213.933 327.926 214.068C328.355 214.302 328.935 214.533 329.601 214.726C331.019 215.138 332.304 215.237 332.803 215.16M327.473 213.774L332.803 215.16M332.803 215.16C332.802 215.16 332.801 215.16 332.8 215.16L333.185 217.631M332.803 215.16L333.185 217.631M332.803 215.16C336.951 214.514 342.735 212.599 347.633 210.003C350.076 208.709 352.205 207.295 353.773 205.859C355.381 204.388 356.168 203.106 356.374 202.113L356.379 202.091C356.578 201.176 356.178 199.796 354.378 197.641C352.76 195.704 350.489 193.694 347.995 191.487C347.819 191.331 347.642 191.175 347.465 191.017C344.862 188.711 342.051 186.182 340.073 183.569C338.118 180.985 336.566 177.783 337.472 174.275M333.185 217.631C342.094 216.244 357.38 209.571 358.822 202.621C359.713 198.516 354.776 194.148 349.698 189.655C344.236 184.824 338.611 179.847 339.894 174.895M337.472 174.275L339.894 174.895M337.472 174.275C337.473 174.273 337.473 174.272 337.473 174.271M337.472 174.275C337.473 174.273 337.473 174.272 337.473 174.271M339.894 174.895C340.671 171.863 352.464 171.974 355.902 174.192C357.243 175.059 357.772 177.542 358.28 179.925C358.682 181.813 359.071 183.637 359.839 184.544M339.894 174.895L337.474 174.268C337.474 174.269 337.474 174.27 337.473 174.271M337.473 174.271C337.769 173.123 338.53 172.346 339.229 171.856C339.929 171.366 340.741 171.034 341.52 170.8C343.084 170.33 344.985 170.115 346.847 170.076C348.73 170.036 350.711 170.172 352.482 170.476C354.18 170.768 355.966 171.259 357.257 172.092L357.258 172.093C358.529 172.914 359.209 174.232 359.614 175.264C360.04 176.35 360.328 177.577 360.562 178.648C360.624 178.929 360.681 179.199 360.737 179.459C360.908 180.26 361.058 180.964 361.237 181.609C361.352 182.021 361.461 182.341 361.565 182.584C361.616 182.703 361.661 182.789 361.696 182.849C361.726 182.901 361.744 182.925 361.747 182.928M361.747 182.928C361.745 182.926 361.743 182.923 361.741 182.921L359.839 184.544M361.747 182.928C361.747 182.928 361.747 182.928 361.747 182.928L361.747 182.928L359.839 184.544M361.747 182.928C366.097 188.022 372.991 191.594 379.781 195.112M359.839 184.544C364.51 190.018 371.775 193.781 378.381 197.202L378.637 197.335M378.637 197.335L379.776 195.109C379.778 195.11 379.78 195.111 379.781 195.112M378.637 197.335C379.811 197.935 381.711 198.376 383.723 198.843C387.099 199.626 390.79 200.482 391.891 202.289M378.637 197.335L379.787 195.115C379.785 195.114 379.783 195.113 379.781 195.112M379.781 195.112C380.288 195.37 381.147 195.644 382.396 195.957C382.992 196.107 383.625 196.254 384.298 196.41L384.314 196.413C384.984 196.569 385.692 196.733 386.392 196.908C387.772 197.254 389.247 197.673 390.526 198.235C391.736 198.767 393.173 199.593 394.021 200.98M391.891 202.289L394.015 200.971C394.017 200.974 394.019 200.977 394.021 200.98M391.891 202.289C393.121 204.273 391.757 208.074 390.43 211.773C389.285 214.964 388.168 218.079 388.767 219.886M391.891 202.289L394.026 200.988C394.024 200.986 394.023 200.983 394.021 200.98M394.021 200.98C395.113 202.75 394.951 204.886 394.644 206.513C394.316 208.249 393.667 210.141 393.058 211.85C392.963 212.117 392.869 212.379 392.776 212.637C392.247 214.112 391.768 215.449 391.447 216.654C391.053 218.134 391.069 218.844 391.133 219.077M388.767 219.886L391.113 219.022C391.12 219.04 391.126 219.059 391.133 219.077M388.767 219.886C390.27 223.971 392.307 227.834 394.821 231.376C395.018 230.155 395.203 228.932 395.377 227.709M388.767 219.886L391.14 219.098C391.137 219.092 391.135 219.085 391.133 219.077M391.133 219.077C392.249 222.097 393.672 224.989 395.377 227.709M246.94 153.601C246.811 153.631 246.687 153.655 246.569 153.674C246.05 153.755 245.87 153.696 245.87 153.696C245.87 153.696 245.94 153.72 246.043 153.814L244.349 155.653L246.054 153.824C246.463 154.205 246.472 154.607 246.461 154.729C246.469 154.692 246.486 154.626 246.52 154.526C246.605 154.272 246.746 153.967 246.94 153.601ZM292.296 169.331L290.634 167.464L292.296 169.332L292.296 169.331ZM239.044 155.634L237.785 157.794C237.782 157.792 237.78 157.791 237.778 157.79C237.782 157.792 237.786 157.794 237.79 157.797L239.044 155.634ZM215.134 157.176C215.135 157.176 215.135 157.176 215.136 157.175L214.349 154.802L215.131 157.177C215.132 157.177 215.133 157.176 215.134 157.176Z" stroke="white" stroke-width="5" stroke-linecap="round" stroke-linejoin="round"/>
<path d="M93.6413 331.115C93.6277 331.103 93.6143 331.09 93.601 331.077C89.7983 327.427 85.6398 322.706 82.3098 317.713C79.0174 312.777 76.3557 307.311 75.8925 302.218C75.5726 298.704 77.0939 295.823 79.1119 293.466C81.0839 291.163 83.7673 289.091 86.2445 287.177L86.2648 287.162L86.2803 287.15C88.8523 285.163 91.2541 283.307 93.1048 281.275C94.9349 279.266 96.0265 277.292 96.2256 275.143L96.2257 275.143C96.2256 275.142 96.23 275.077 96.205 274.928C96.1794 274.776 96.129 274.571 96.0413 274.308C95.8632 273.774 95.5704 273.117 95.1633 272.335C94.4088 270.885 93.391 269.248 92.2944 267.485C92.1985 267.33 92.1019 267.175 92.0049 267.019C90.8344 265.134 89.5934 263.113 88.7035 261.265C88.2563 260.337 87.8621 259.381 87.6104 258.449C87.3651 257.542 87.2056 256.48 87.403 255.417C87.7615 253.486 89.1454 251.914 90.346 250.766C91.4167 249.742 92.7219 248.716 93.9182 247.775C94.1362 247.604 94.3505 247.435 94.5592 247.27C95.9943 246.134 97.1931 245.134 98.01 244.187C98.8637 243.199 98.9046 242.719 98.8905 242.586L98.8899 242.581C98.463 238.446 95.99 233.763 92.4213 229.342C88.8888 224.967 84.5079 221.127 80.7063 218.677L80.7029 218.674C80.1873 218.341 79.1432 218.054 77.3585 217.934C75.8559 217.833 74.1666 217.863 72.3333 217.895C72.0731 217.899 71.81 217.904 71.5441 217.908C69.4828 217.941 67.2502 217.955 65.2697 217.701C63.3652 217.456 61.1947 216.91 59.6512 215.427C58.444 214.282 58.2552 212.737 58.239 211.745C58.2225 210.729 58.3881 209.627 58.5161 208.775L58.5278 208.697C58.6745 207.719 58.7725 207.028 58.7651 206.491C58.7649 206.475 58.7646 206.46 58.7642 206.445C58.6148 206.416 58.3868 206.386 58.0529 206.38C57.2314 206.362 56.2043 206.483 54.9635 206.665C54.7423 206.697 54.5127 206.731 54.2774 206.767C53.2822 206.916 52.1852 207.081 51.1852 207.16C50.006 207.253 48.5 207.278 47.19 206.75C45.8387 206.207 44.6785 205.182 43.7518 204.226C42.8258 203.272 41.9138 202.15 41.0906 201.137L41.0081 201.036C40.1266 199.952 39.3458 198.999 38.6012 198.247C37.8157 197.454 37.3275 197.158 37.1007 197.083L37.0866 197.078C34.7907 196.306 32.1068 196.163 29.0503 196.414C26.1158 196.654 23.0239 197.236 19.7712 197.849C19.6282 197.876 19.485 197.903 19.3414 197.93C15.9928 198.56 12.476 199.207 9.09615 199.406C6.89876 199.535 4.68042 199.48 2.52734 199.081V199.081V199.089V199.098V199.106V199.114V199.122V199.131V199.139V199.147V199.155V199.164V199.172V199.18V199.188V199.196V199.205V199.213V199.221V199.229V199.238V199.246V199.254V199.262V199.271V199.279V199.287V199.295V199.303V199.312V199.32V199.328V199.336V199.345V199.353V199.361V199.369V199.378V199.386V199.394V199.402V199.41V199.419V199.427V199.435V199.443V199.452V199.46V199.468V199.476V199.485V199.493V199.501V199.509V199.517V199.526V199.531C4.24821 200.661 5.68759 202.182 6.72238 203.978C6.86365 204.224 6.96224 204.491 7.01394 204.769C7.37563 206.716 7.30265 208.719 6.80019 210.635C6.29773 212.551 5.37822 214.332 4.10741 215.85C3.9394 216.051 3.7409 216.224 3.51914 216.364C3.41782 216.427 3.3147 216.488 3.20996 216.544C3.58477 221.111 4.12564 225.633 4.81332 230.108C6.20359 230.927 7.63688 231.663 9.13802 232.433C10.2619 233.01 11.4239 233.606 12.6343 234.271C15.6361 235.922 18.7419 237.916 20.8813 240.768L20.8828 240.77C21.9799 242.236 22.0601 243.965 21.9496 245.279C21.845 246.523 21.5215 247.85 21.2532 248.951C21.2351 249.026 21.2173 249.099 21.1998 249.171C20.8956 250.423 20.6756 251.398 20.6347 252.205C20.5961 252.966 20.7427 253.167 20.7642 253.193C22.7469 255.434 26.1204 256.786 30.3512 258.274C30.6394 258.376 30.9323 258.478 31.229 258.582C34.9501 259.88 39.2594 261.384 42.2373 264.071L93.6413 331.115ZM93.6413 331.115C95.261 332.603 97.6862 333.692 99.6391 334.57C99.767 334.627 99.8928 334.684 100.016 334.739C102.299 335.769 103.945 336.573 104.837 337.471C106.292 339.046 108.036 341.969 109.316 344.644C109.461 344.947 109.597 345.241 109.724 345.523C109.457 345.419 109.177 345.301 108.885 345.17C107.115 344.376 105.132 343.187 103.059 341.761C98.9145 338.91 94.6806 335.299 91.4564 332.519L91.4456 332.51C89.9971 331.275 88.9016 329.341 87.5963 326.857C87.5193 326.71 87.4414 326.561 87.3624 326.41C86.2118 324.211 84.8403 321.59 82.8804 319.682L82.8705 319.673C81.3459 318.205 78.9045 316.895 76.8963 315.817L76.7871 315.759C74.5149 314.539 72.715 313.563 71.7382 312.665L71.7381 312.665M93.6413 331.115L71.7381 312.665M71.7381 312.665C64.9408 306.414 60.9875 297.687 57.0132 288.592M71.7381 312.665L57.0132 288.592M57.0132 288.592C56.8819 288.291 56.7505 287.99 56.6189 287.689M57.0132 288.592L56.6189 287.689M56.6189 287.689C52.8685 279.095 48.9554 270.128 42.2386 264.073L56.6189 287.689ZM58.7326 206.137C58.7329 206.137 58.7347 206.142 58.7374 206.155C58.7337 206.144 58.7324 206.138 58.7326 206.137Z" stroke="white" stroke-width="5" stroke-linecap="round" stroke-linejoin="round"/>
<path d="M87.1234 100.661C85.9454 99.8083 86.395 96.6833 86.8139 93.7718C87.2035 91.0639 87.5665 88.5408 86.5689 88.2023C80.5985 86.169 70.654 91.437 64.3878 94.8566M87.1234 100.661L49.2676 96.2799C47.4007 98.8493 54.3878 101.289 57.9552 100.162C58.8887 99.8642 60.2377 98.5591 61.5474 97.2921C62.5977 96.276 63.6227 95.2844 64.3878 94.8566M87.1234 100.661C87.6749 101.059 89.301 100.638 90.8704 100.233C92.5097 99.8089 94.0872 99.4011 94.3138 99.9583C96.6983 105.781 92.0957 118.72 86.9201 122.417C82.6473 125.509 76.682 123.659 70.5313 121.753C64.0698 119.749 57.4038 117.683 52.2806 121.215M87.1234 100.661L52.2806 121.215M64.3878 94.8566L65.5854 97.0511C65.5903 97.0485 65.5951 97.0458 65.6 97.0431M64.3878 94.8566L65.6079 97.0387C65.6053 97.0401 65.6027 97.0416 65.6 97.0431M65.6 97.0431C68.739 95.3303 72.6397 93.2459 76.4591 91.8284C79.8068 90.586 82.6409 90.0347 84.7036 90.3231M65.6 97.0431C65.4351 97.1373 65.1048 97.3859 64.5729 97.868C64.1752 98.2285 63.7593 98.6308 63.3047 99.0705C63.1706 99.2003 63.0331 99.3333 62.8917 99.4694C62.3003 100.039 61.6447 100.659 61.0099 101.178C60.4358 101.647 59.619 102.255 58.7143 102.544L58.7086 102.545C56.189 103.342 52.9267 102.848 50.6385 101.926C49.4922 101.463 48.2102 100.746 47.3674 99.6703C46.9214 99.1006 46.5222 98.3292 46.4634 97.3862C46.4026 96.4103 46.7239 95.5277 47.2451 94.8104L47.2497 94.8041C49.8079 91.3064 54.2201 89.2817 58.1084 87.6544C58.7676 87.3786 59.4158 87.1124 60.0506 86.8517C63.4474 85.457 66.4572 84.2212 68.6824 82.5082M84.7036 90.3231L68.6803 82.5098C68.681 82.5093 68.6817 82.5087 68.6824 82.5082M84.7036 90.3231C84.6656 91.1433 84.5133 92.2039 84.3294 93.4851C84.3181 93.5636 84.3067 93.6431 84.2952 93.7233C84.098 95.0996 83.8725 96.7162 83.8688 98.1121C83.8669 98.8126 83.9181 99.5954 84.1189 100.336C84.3163 101.064 84.7318 102.016 85.6579 102.686L85.6609 102.688C86.4083 103.227 87.2267 103.304 87.6551 103.318C88.1504 103.334 88.6453 103.276 89.0627 103.208C89.8424 103.081 90.7267 102.852 91.4589 102.663C91.5067 102.65 91.5539 102.638 91.6003 102.626C91.8843 102.553 92.1422 102.487 92.3754 102.43C92.4753 103.204 92.4914 104.129 92.4012 105.193C92.2443 107.045 91.7821 109.123 91.0843 111.182C90.3872 113.239 89.4772 115.211 88.4648 116.857C87.4345 118.532 86.3848 119.727 85.467 120.382L85.4545 120.391C83.9821 121.457 82.0828 121.768 79.523 121.453C77.0166 121.144 74.2593 120.29 71.1742 119.334C71.0513 119.296 70.9279 119.258 70.804 119.22C67.6846 118.254 64.2446 117.21 60.9134 116.897C57.5283 116.579 54.0065 116.989 50.8615 119.157C50.8509 119.164 50.8403 119.172 50.8298 119.179C49.246 120.308 48.7155 122.006 48.5396 123.389C48.3663 124.752 48.4825 126.245 48.5884 127.47C48.6012 127.618 48.6139 127.763 48.6264 127.905C48.7267 129.048 48.8101 129.998 48.7789 130.845C48.743 131.821 48.5592 132.162 48.4884 132.249L50.4321 133.822M84.7036 90.3231L81.9954 68.1787M68.6824 82.5082C71.2218 80.5429 74.7285 77.5179 77.5604 74.4929C78.9799 72.9764 80.1727 71.5204 80.9884 70.2432C81.6051 69.2776 81.8858 68.598 81.9954 68.1787M68.6824 82.5082L81.9954 68.1787M81.9954 68.1787C81.6708 68.0691 81.1268 67.9543 80.2987 67.9015C78.1504 67.7644 75.0609 68.0923 71.5944 68.7377C64.6573 70.0292 57.0976 72.4151 54.2489 73.8395C53.5518 74.188 52.5223 74.8874 51.2069 75.8885C49.9596 76.8379 48.5817 77.9597 47.1565 79.12L47.0289 79.2238C45.5758 80.4067 44.0767 81.6251 42.6999 82.6634C41.5741 83.5123 40.4313 84.3176 39.3977 84.8929C23.5584 106.903 12.4468 131.952 6.7614 158.464C6.85706 158.685 6.94943 158.903 7.03746 159.111C7.08067 159.213 7.12283 159.312 7.16382 159.408C7.39617 159.953 7.59974 160.416 7.80559 160.816C8.13237 161.451 8.34094 161.673 8.40101 161.733C9.34358 162.013 10.3464 162.001 11.2788 161.704C11.3249 161.596 11.3828 161.421 11.4358 161.147C11.5652 160.48 11.593 159.631 11.6037 158.523C11.6047 158.422 11.6055 158.318 11.6063 158.213C11.6138 157.261 11.6228 156.125 11.7586 155.092C11.9055 153.975 12.2497 152.502 13.3172 151.359C18.0628 146.269 25.03 143.849 31.2802 141.677C31.5798 141.573 31.8777 141.469 32.1737 141.366C38.9568 139.001 44.8238 136.771 48.4898 132.248L50.4321 133.822M50.4321 133.822C51.5381 132.454 51.3271 130.065 51.1173 127.691C50.8819 125.026 50.648 122.379 52.2806 121.215M50.4321 133.822C46.1019 139.165 39.2012 141.567 32.3118 143.965C25.8792 146.205 19.4566 148.44 15.1456 153.064C14.1411 154.139 14.1237 156.184 14.1063 158.245C14.0871 160.507 14.0678 162.787 12.7427 163.822L52.2806 121.215M92.0003 100.906C92.0008 100.907 92.0013 100.908 92.0018 100.909C92.0006 100.906 91.9993 100.903 91.9981 100.9L92.0003 100.906Z" stroke="white" stroke-width="5" stroke-linecap="round" stroke-linejoin="round"/>
</g>
</svg>
