<svg width="528" height="391" viewBox="0 0 528 391" fill="none" xmlns="http://www.w3.org/2000/svg">
<path d="M98.7125 286.77L35.7295 299.046" stroke="#191A19" stroke-width="1.32331" stroke-linecap="round" stroke-linejoin="round"/>
<path d="M422.027 69.542L400.143 73.812" stroke="#191A19" stroke-width="1.32331" stroke-linecap="round" stroke-linejoin="round"/>
<path d="M257.745 150.264L118.436 177.485" stroke="#191A19" stroke-width="1.32331" stroke-linecap="round" stroke-linejoin="round"/>
<path d="M528 276.293C528 262.965 515.864 252.934 502.774 255.441L17.236 348.464C7.23286 350.38 0 359.131 0 369.316C0 382.643 12.1363 392.675 25.2259 390.167L510.764 297.145C520.767 295.228 528 286.478 528 276.293Z" fill="#E5E6E5"/>
<path d="M300.368 153.175L297.788 242.499C297.788 242.499 291.701 246.799 290.113 252.424C288.591 257.981 283.033 290.204 282.702 290.998C282.305 291.792 277.608 293.645 277.144 295.497C276.681 297.35 276.946 300.063 276.946 300.063C276.946 300.063 269.469 308.201 267.815 317.596C266.161 326.992 272.513 325.867 277.144 323.551C281.842 321.236 286.474 307.01 287.665 305.29C288.922 303.569 291.436 300.857 293.553 298.21C295.605 295.63 297.92 288.616 297.92 288.616C297.92 288.616 325.18 250.174 330.011 241.44C334.774 232.772 340.134 201.675 341.126 198.962C342.185 196.249 347.875 193.735 347.875 193.735C347.875 193.735 388.832 211.202 392.802 212.592C396.838 213.915 438.853 271.479 438.853 271.479C438.853 271.479 438.853 277.566 439.647 279.221C440.441 280.809 446.263 286.697 446.263 286.697C446.263 286.697 444.874 291.99 447.719 293.512C450.498 295.034 460.555 293.049 462.275 292.784C463.929 292.454 472.663 292.983 476.104 292.387C479.544 291.792 485.168 289.278 484.639 287.888C484.176 286.433 469.62 282.86 466.642 281.602C463.665 280.345 459.099 277.368 459.099 277.368C459.099 277.368 457.776 268.502 456.85 265.855C455.857 263.275 451.358 262.018 451.226 259.503C451.027 256.989 424.495 202.799 422.311 200.153C420.062 197.506 369.445 156.418 369.445 156.418L361.836 141.266C361.836 141.266 353.499 153.109 331.334 155.16C309.168 157.211 300.368 153.175 300.368 153.175Z" fill="#191A19" stroke="#191A19" stroke-width="1.32331" stroke-linecap="round" stroke-linejoin="round"/>
<path d="M307.25 71.7917C307.25 71.7917 284.356 96.4714 285.613 100.111C286.871 103.816 299.508 145.831 299.508 145.831C299.508 145.831 296.795 155.094 302.486 160.387C308.11 165.68 328.687 167.533 344.104 161.843C359.52 156.153 362.431 145.301 362.63 139.016C362.828 132.73 359.917 79.7977 359.917 79.7977L431.641 22.8955L428.332 13.6985L360.777 39.503C360.777 39.503 352.97 38.2458 340.134 46.318C327.298 54.324 326.305 56.0444 326.305 56.0444L307.25 71.7917Z" fill="white" stroke="#191A19" stroke-width="1.32331" stroke-linecap="round" stroke-linejoin="round"/>
<path d="M359.917 79.7979L362.034 49.6265" stroke="#191A19" stroke-width="1.32331" stroke-linecap="round" stroke-linejoin="round"/>
<path d="M368.121 65.3738L380.428 40.0986" stroke="#191A19" stroke-width="1.32331" stroke-linecap="round" stroke-linejoin="round"/>
<path d="M363.291 75.2987L366.335 69.0129" stroke="#191A19" stroke-width="1.32331" stroke-linecap="round" stroke-linejoin="round"/>
<path d="M372.555 61.6683L384.861 44.2007" stroke="#191A19" stroke-width="1.32331" stroke-linecap="round" stroke-linejoin="round"/>
<path d="M421.12 16.4114L423.502 28.1227L421.12 16.4114Z" fill="white"/>
<path d="M421.12 16.4114L423.502 28.1227" stroke="#191A19" stroke-width="1.32331" stroke-linecap="round" stroke-linejoin="round"/>
<path d="M323.395 90.2521C324.856 91.418 335.265 101.317 335.9 100.971C339.5 95.5 339.241 82.6582 339.076 77.1514L333.5 77.1514L334 92H332.5L325.5 85.9514L323.395 90.2521Z" fill="#439037"/>
<path d="M308.904 72.8505C308.904 72.8505 309.103 80.9227 311.948 86.6129C314.727 92.237 319.16 99.5813 321.013 97.7949C322.799 95.9422 328.688 82.0475 330.21 81.2535C331.731 80.5257 346.42 83.7678 348.339 82.643C350.324 81.452 343.707 66.1678 340.73 62.5287C333.055 53.067 329.746 52.3392 328.357 52.9347C326.901 53.464 309.367 62.3302 308.904 72.8505Z" fill="#CCCDCB" stroke="#191A19" stroke-width="1.32331" stroke-linecap="round" stroke-linejoin="round"/>
<path d="M309.897 71.1964C309.897 71.1964 313.867 75.8279 320.484 81.3197C327.034 86.8114 333.254 93.825 333.518 91.7738C333.849 89.7889 332.857 59.0881 332.592 57.5001C332.328 55.9122 331.666 54.8535 331.666 54.8535L325.248 45.855L324.52 37.6505C324.52 37.6505 322.601 36.1949 319.69 38.3122C316.712 40.4956 320.682 53.7287 318.499 59.2866C316.316 64.7783 309.897 71.1964 309.897 71.1964Z" fill="white" stroke="#191A19" stroke-width="1.32331" stroke-linecap="round" stroke-linejoin="round"/>
<path d="M291.833 27.9241C291.833 27.9241 287.466 34.9376 287.929 37.8489C288.459 40.7602 289.716 47.1782 289.186 49.7587C288.591 52.3391 282.967 57.2353 284.555 58.6248C286.143 60.0143 292.032 59.5511 292.032 59.5511L293.09 62.9917C293.09 62.9917 296.663 57.6985 302.618 58.691C308.573 59.6173 316.38 57.5 317.505 54.6549C318.696 51.7436 317.439 43.6714 315.719 40.4955C313.998 37.3196 310.492 35.1361 310.889 31.5632C311.286 27.9902 314.263 25.2113 309.896 22.9617C305.529 20.712 291.833 27.9241 291.833 27.9241Z" fill="white" stroke="#191A19" stroke-width="1.32331" stroke-linecap="round" stroke-linejoin="round"/>
<path d="M288.79 20.7783C288.79 20.7783 279.659 19.5873 280.188 22.631C280.717 25.6746 282.835 28.3212 294.215 28.9828C305.596 29.6445 308.838 27.461 308.838 27.461C308.838 27.461 301.096 31.431 304.339 34.0114C307.581 36.5919 312.146 38.8415 312.146 38.8415C312.146 38.8415 316.711 50.0896 316.645 52.2731C316.513 54.4565 312.808 56.243 309.566 56.64C306.324 57.037 301.626 55.846 297.656 57.6986C293.686 59.5513 292.561 62.7272 293.818 64.1828C295.075 65.6385 299.31 78.8054 301.957 78.8716C304.603 78.8716 320.946 67.6234 323.063 62.5949C325.181 57.6325 319.358 49.0309 321.078 46.3843C322.799 43.8039 332.988 43.4731 334.576 34.2761C336.098 25.0791 327.761 14.2279 320.615 10.9858C313.403 7.74373 303.412 10.3242 301.096 11.3828C298.781 12.4415 297.92 13.1031 297.92 13.1031C297.92 13.1031 289.451 11.052 286.606 13.8971C283.761 16.6761 288.79 20.7783 288.79 20.7783Z" fill="#191A19" stroke="#191A19" stroke-width="1.32331" stroke-linecap="round" stroke-linejoin="round"/>
<path d="M297.92 46.9136C298.185 48.3031 297.788 49.5602 297.126 49.6926C296.399 49.8249 295.605 48.7662 295.34 47.3106C295.141 45.9211 295.472 44.664 296.2 44.5317C296.928 44.3993 297.722 45.458 297.92 46.9136Z" fill="#191A19"/>
<path d="M293.09 41.7526C293.09 41.7526 294.479 39.2383 298.118 41.0909" stroke="#191A19" stroke-width="1.32331" stroke-linecap="round" stroke-linejoin="round"/>
<path d="M299.045 64.5798C299.045 64.5798 302.022 64.7783 304.073 60.4114" stroke="white" stroke-width="1.32331" stroke-linecap="round" stroke-linejoin="round"/>
<path d="M321.013 49.031C321.013 49.031 318.035 41.2896 321.807 39.3046C325.644 37.3197 328.357 40.4956 327.761 45.7227C327.166 50.9498 325.446 52.7362 324.453 52.6039" fill="white"/>
<path d="M321.013 49.031C321.013 49.031 318.035 41.2896 321.807 39.3046C325.644 37.3197 328.357 40.4956 327.761 45.7227C327.166 50.9498 325.446 52.7362 324.453 52.6039" stroke="#191A19" stroke-width="1.32331" stroke-linecap="round" stroke-linejoin="round"/>
<path d="M336.495 121.35C336.495 121.35 346.221 105.205 347.148 104.411C348.074 103.617 363.821 106.066 363.821 106.066C363.821 106.066 365.277 107.058 364.483 110.035C363.689 112.947 364.152 119.365 362.763 120.026C361.373 120.688 355.418 122.144 355.418 122.144L354.889 120.556C354.889 120.556 351.515 124.592 350.258 124.989C349.067 125.386 344.435 126.18 344.435 126.18L339.208 131.01L336.495 121.35Z" fill="white" stroke="#191A19" stroke-width="1.32331" stroke-linecap="round" stroke-linejoin="round"/>
<path d="M294.413 87.407C294.413 87.407 283.827 97.398 282.636 101.699C281.445 105.999 281.18 163.034 283.099 166.739C285.018 170.511 291.833 164.821 292.428 164.49C293.024 164.225 339.207 131.01 339.207 131.01L336.495 121.35L305 133.657L306.919 108.514" fill="white"/>
<path d="M294.413 87.407C294.413 87.407 283.827 97.398 282.636 101.699C281.445 105.999 281.18 163.034 283.099 166.739C285.018 170.511 291.833 164.821 292.428 164.49C293.024 164.225 339.207 131.01 339.207 131.01L336.495 121.35L305 133.657L306.919 108.514" stroke="#191A19" stroke-width="1.32331" stroke-linecap="round" stroke-linejoin="round"/>
<path d="M288.591 148.478C288.26 150.529 288.128 152.117 288.128 152.117" stroke="#191A19" stroke-width="1.32331" stroke-linecap="round" stroke-linejoin="round"/>
<path d="M305 133.656C305 133.656 293.421 138.023 291.238 140.141C290.311 141.001 289.65 142.986 289.187 145.169" stroke="#191A19" stroke-width="1.32331" stroke-linecap="round" stroke-linejoin="round"/>
<path d="M330.01 123.732L333.053 135.046L330.01 123.732Z" fill="white"/>
<path d="M330.01 123.732L333.053 135.046" stroke="#191A19" stroke-width="1.32331" stroke-linecap="round" stroke-linejoin="round"/>
<path d="M456.52 8.47168C456.52 8.47168 460.887 9.26567 460.556 11.1845C460.225 13.0371 455.792 20.2491 455.792 20.2491C455.792 20.2491 446.198 17.801 446.529 15.2206C446.86 12.5739 448.911 10.5228 451.227 9.79499C453.609 9.06717 456.52 8.47168 456.52 8.47168Z" fill="white" stroke="#191A19" stroke-width="1.32331" stroke-linecap="round" stroke-linejoin="round"/>
<path d="M428.333 13.6986C428.333 13.6986 439.316 7.3467 445.205 6.94971C451.16 6.55272 465.783 1.59032 467.834 1.12716C469.885 0.664005 470.348 1.45798 468.76 3.64144C467.172 5.75873 463.268 6.81738 461.35 7.61137C459.497 8.33919 451.094 10.4565 450.631 11.846C450.101 13.2354 450.432 15.0881 451.623 16.2129C452.88 17.2715 458.438 18.7272 458.107 20.646C457.777 22.4986 457.181 22.9617 456.056 22.8956C454.998 22.8956 451.094 21.3076 449.241 20.9768C447.389 20.646 442.889 21.7046 440.838 21.1753C438.853 20.7121 436.67 19.7196 436.67 19.7196L431.641 22.8956L428.333 13.6986Z" fill="white" stroke="#191A19" stroke-width="1.32331" stroke-linecap="round" stroke-linejoin="round"/>
<path d="M337 98C337 98 329.547 107.256 317.505 104.808C305.463 102.294 290.377 93.2294 282.57 92.1708C274.762 91.1121 264.97 96.0083 256.832 96.67C248.759 97.3317 244.459 95.1482 244.459 95.1482L231.755 103.154L246.377 112.087C246.377 112.087 249.421 113.873 261.463 111.888C273.439 109.903 286.275 102.956 291.965 104.808C297.656 106.727 314.528 113.542 323.129 111.425C335 108 337 98 337 98Z" fill="#439037"/>
<path d="M223.683 176.597C223.683 176.597 229.307 179.046 228.645 179.84C227.984 180.567 226.462 180.634 225.866 180.303C225.337 180.038 219.184 176.399 219.184 176.399L223.683 176.597Z" fill="white" stroke="#191A19" stroke-width="1.32331" stroke-linecap="round" stroke-linejoin="round"/>
<path d="M220.507 177.788C220.507 177.788 224.345 181.626 223.551 181.758C222.823 181.891 221.765 181.957 221.037 181.427C220.309 180.964 217.993 178.384 217.993 178.384L220.507 177.788Z" fill="white" stroke="#191A19" stroke-width="1.32331" stroke-linecap="round" stroke-linejoin="round"/>
<path d="M218.323 180.104C218.323 180.104 220.705 181.626 220.043 182.288C219.382 182.949 217.463 182.222 216.934 181.825C216.471 181.361 215.346 180.832 215.346 180.832L218.323 180.104Z" fill="white" stroke="#191A19" stroke-width="1.32331" stroke-linecap="round" stroke-linejoin="round"/>
<path d="M169.758 151.521L203.899 178.649C203.899 178.649 201.981 182.883 200.26 183.942C198.474 185.067 198.474 185.067 198.474 185.067C198.474 185.067 180.675 180.898 173.596 178.119C166.516 175.34 159.502 171.834 159.502 171.834C159.502 171.834 156.128 167.4 157.319 165.217C158.444 163.1 169.758 151.521 169.758 151.521Z" fill="white" stroke="#191A19" stroke-width="1.32331" stroke-linecap="round" stroke-linejoin="round"/>
<path d="M203.899 178.648C203.899 178.648 212.104 173.488 214.353 173.024C216.603 172.627 229.968 175.803 230.498 176.664C231.027 177.59 230.365 178.251 229.439 178.45C228.513 178.582 219.183 176.399 219.183 176.399C219.183 176.399 214.949 182.817 209.523 185C204.098 187.118 198.474 185.067 198.474 185.067C198.474 185.067 203.304 181.427 203.899 178.648Z" fill="white" stroke="#191A19" stroke-width="1.32331" stroke-linecap="round" stroke-linejoin="round"/>
<path d="M209.325 180.567C209.325 180.567 213.295 179.046 215.015 177.987C216.802 176.862 219.779 175.142 221.036 173.752C222.36 172.363 223.418 172.76 223.683 174.282C223.948 175.737 222.955 176.928 221.764 177.722C220.573 178.516 218.323 180.104 218.323 180.104C218.323 180.104 215.545 183.876 212.699 185.199C209.788 186.456 204.627 185.861 203.899 185" fill="white"/>
<path d="M209.325 180.567C209.325 180.567 213.295 179.046 215.015 177.987C216.802 176.862 219.779 175.142 221.036 173.752C222.36 172.363 223.418 172.76 223.683 174.282C223.948 175.737 222.955 176.928 221.764 177.722C220.573 178.516 218.323 180.104 218.323 180.104C218.323 180.104 215.545 183.876 212.699 185.199C209.788 186.456 204.627 185.861 203.899 185" stroke="#191A19" stroke-width="1.32331" stroke-linecap="round" stroke-linejoin="round"/>
<path d="M171.015 201.277C171.015 201.277 211.773 235.22 213.162 237.073C214.552 238.859 216.603 311.641 216.603 311.641L220.11 313.824C220.11 313.824 220.507 315.876 220.374 316.67C220.242 317.464 228.91 322.095 234.401 325.006C239.893 327.918 240.687 325.47 239.893 327.918C239.033 330.432 229.307 331.424 226.726 331.358C224.08 331.358 218.853 330.961 216.537 331.424C214.287 331.821 207.472 333.079 206.215 331.755C204.958 330.366 204.164 320.375 204.164 320.375C204.164 320.375 202.311 317.596 202.179 316.603C201.98 315.611 201.583 312.038 201.716 311.244C201.782 310.384 188.88 249.512 188.88 249.512L136.808 227.809L131.647 229.53C131.647 229.53 117.024 273.331 116.429 275.978C115.899 278.691 74.3474 334.071 74.3474 334.071C74.3474 334.071 68.7233 342.673 68.194 344.327C67.7308 345.981 63.4962 347.503 63.4962 347.503C63.4962 347.503 57.6075 364.242 56.8135 367.021C56.0196 369.734 53.2406 371.587 49.9985 372.447C46.7564 373.241 43.3158 362.985 44.9699 359.015C46.5579 355.112 55.0932 343.4 55.0932 343.4C55.0932 343.4 55.2917 340.224 55.8211 338.835C56.3504 337.446 59.5263 333.476 59.5263 333.476L85.8601 268.038L92.609 206.438C92.609 206.438 140.579 218.546 171.015 201.277Z" fill="#191A19" stroke="#191A19" stroke-width="1.32331" stroke-linecap="round" stroke-linejoin="round"/>
<path d="M137.8 106.991C137.8 106.991 108.356 116.453 106.106 118.967C103.857 121.482 68.5245 160.519 59.9891 174.215C51.4538 187.978 42.7861 210.672 42.7861 210.672L52.5786 213.584C52.5786 213.584 68.7891 191.815 73.6192 187.448C78.4493 183.082 110.738 151.057 110.738 151.057L113.385 167.599L84.4703 203.46C84.4703 203.46 89.8959 213.915 106.437 219.803C122.979 225.692 139.057 225.692 153.415 217.289C167.773 208.82 175.382 202.6 175.382 202.6C175.382 202.6 166.846 186.522 164.2 178.715C161.619 170.841 159.965 165.879 159.965 165.879C159.965 165.879 172.206 155.358 171.61 151.19C171.015 147.021 170.618 138.42 170.75 137.824C170.816 137.229 176.573 123.003 175.117 117.247C173.661 111.491 170.75 109.109 166.317 107.19C161.884 105.337 156.26 105.337 156.26 105.337L137.8 106.991Z" fill="white" stroke="#191A19" stroke-width="1.32331" stroke-linecap="round" stroke-linejoin="round"/>
<path d="M148.651 167.467L119.936 174.745" stroke="#191A19" stroke-width="1.32331" stroke-linecap="round" stroke-linejoin="round"/>
<path d="M157.319 165.217L153.415 166.21" stroke="#191A19" stroke-width="1.32331" stroke-linecap="round" stroke-linejoin="round"/>
<path d="M137.668 174.017L112.326 180.567" stroke="#191A19" stroke-width="1.32331" stroke-linecap="round" stroke-linejoin="round"/>
<path d="M141.108 102.889C141.108 102.889 138.131 104.411 135.881 106.925C133.631 109.506 129.529 132.73 131.249 138.023C132.97 143.316 134.293 143.051 136.807 142.059C139.322 141 150.305 133.193 150.305 133.193C150.305 133.193 164.067 139.412 167.376 138.42C170.684 137.427 167.243 123.136 164.398 114.733C161.487 106.33 161.685 105.337 155.731 101.367C149.776 97.4635 141.108 102.889 141.108 102.889Z" fill="#CCCDCB" stroke="#191A19" stroke-width="1.32331" stroke-linecap="round" stroke-linejoin="round"/>
<path d="M160.693 53.9929C160.693 53.9929 166.714 58.4921 169.36 64.2485C171.941 69.9387 172.073 71.659 175.514 72.7838C179.021 73.9086 181.932 72.7838 181.866 74.7688C181.866 76.6876 177.168 80.856 177.168 80.856C177.168 80.856 178.888 93.4936 179.087 95.4124C179.219 97.3312 165.457 99.25 165.457 99.25C165.457 99.25 155.466 124.327 154.341 130.877C153.216 137.494 149.378 141.662 149.378 141.662L139.586 107.454L140.777 93.4936C140.777 93.4936 139.586 91.3763 138.263 87.1417C136.873 82.9071 142.828 76.2244 145.739 72.9823C148.651 69.7402 153.745 61.4695 155.796 56.838C157.848 52.2064 160.693 53.9929 160.693 53.9929Z" fill="white" stroke="#191A19" stroke-width="1.32331" stroke-linecap="round" stroke-linejoin="round"/>
<path d="M165.456 99.25L159.038 99.9117L162.346 105.536L165.456 99.25Z" fill="#191A19" stroke="#191A19" stroke-width="1.32331" stroke-linecap="round" stroke-linejoin="round"/>
<path d="M169.889 71.593C170.286 72.9825 170.022 74.2396 169.36 74.4381C168.632 74.6366 167.772 73.6442 167.375 72.3209C166.978 70.9314 167.243 69.6081 167.904 69.4096C168.566 69.2111 169.492 70.2036 169.889 71.593Z" fill="#191A19"/>
<path d="M164.993 67.9539C164.993 67.9539 166.25 65.5719 168.169 66.2335" stroke="#191A19" stroke-width="1.32331" stroke-linecap="round" stroke-linejoin="round"/>
<path d="M169.228 81.9146C169.228 81.9146 171.014 85.0243 174.388 84.4288" stroke="#191A19" stroke-width="1.32331" stroke-linecap="round" stroke-linejoin="round"/>
<path d="M150.768 83.7012C150.768 83.7012 155.598 81.253 155.797 78.3418C156.061 75.3643 150.305 71.3944 153.216 68.1523C156.061 64.9102 162.149 61.8666 161.95 52.4049C161.752 42.9433 149.048 41.223 142.63 42.1493C136.212 43.1418 122.582 49.0967 118.81 59.2861C115.105 69.4756 116.428 77.9448 120.001 83.8997C123.64 89.7884 129.992 92.8982 134.028 93.7583C138.064 94.5523 141.902 96.7358 144.284 95.7433C146.6 94.7508 146.6 90.45 146.6 88.3327C146.6 86.2155 150.768 83.7012 150.768 83.7012Z" fill="#191A19" stroke="#191A19" stroke-width="1.32331" stroke-linecap="round" stroke-linejoin="round"/>
<path d="M154.077 85.8184C154.077 85.8184 147.13 79.5327 144.88 81.1207C142.631 82.6425 141.109 86.8109 144.615 90.053C148.056 93.2951 152.357 91.1778 153.548 89.3914" fill="white"/>
<path d="M154.077 85.8184C154.077 85.8184 147.13 79.5327 144.88 81.1207C142.631 82.6425 141.109 86.8109 144.615 90.053C148.056 93.2951 152.357 91.1778 153.548 89.3914" stroke="#191A19" stroke-width="1.32331" stroke-linecap="round" stroke-linejoin="round"/>
<path d="M117.884 61.4033C117.884 61.4033 113.451 51.1477 99.755 52.3387C85.9926 53.4635 84.3385 64.447 85.7279 69.0124C87.1836 73.5778 90.0287 79.8635 86.8527 80.459C83.6768 80.9883 76.9279 80.1282 71.5024 86.5462C66.0768 92.9643 72.0979 102.691 78.3836 104.279C84.6693 105.8 83.4783 105.668 83.4783 105.668C83.4783 105.668 75.5385 105.536 77.0603 111.821C78.5821 118.173 91.8152 118.306 96.8438 115.99C101.806 113.74 95.8513 106.462 95.8513 106.462C95.8513 106.462 105.578 105.47 108.82 102.161C112.128 98.853 108.092 97.0665 112.326 95.9417C116.561 94.7507 120.994 96.471 121.92 92.0379C122.847 87.6048 120.729 89.9206 120.002 83.8996C119.274 77.8124 114.775 76.2906 117.884 61.4033Z" fill="#191A19" stroke="#191A19" stroke-width="1.32331" stroke-linecap="round" stroke-linejoin="round"/>
<path d="M110.738 151.058L121.656 142.655L110.738 151.058Z" fill="white"/>
<path d="M110.738 151.058L121.656 142.655" stroke="#191A19" stroke-width="1.32331" stroke-linecap="round" stroke-linejoin="round"/>
<path d="M52.579 213.584C52.579 213.584 52.3805 221.127 52.6451 222.715C52.976 224.303 54.3655 227.942 55.4241 229.794C56.4827 231.647 59.1955 234.095 58.0707 235.22C57.0121 236.345 54.8948 234.889 54.167 233.897C53.4392 232.97 51.6527 229.397 51.6527 229.397L50.6602 245.476L48.8076 246.402C48.8076 246.402 47.8812 245.476 47.8812 244.152C47.8151 242.895 46.6903 232.904 46.6903 232.904C46.6903 232.904 43.3158 247.791 42.8527 248.387C42.4557 249.049 40.2722 248.519 40.3384 247.593C40.3384 246.667 41.5294 233.831 41.5294 233.831C41.5294 233.831 37.6918 246.203 37.4271 246.799C37.1625 247.394 35.376 247.924 34.8467 247.064C34.3173 246.27 35.376 243.822 35.376 243.822L38.2211 233.897L32.4647 243.094C32.4647 243.094 30.8106 243.358 31.1414 241.837C31.4061 240.315 35.9715 230.787 35.9715 230.787C35.9715 230.787 36.0376 225.163 36.567 223.972C37.0963 222.781 42.7865 210.673 42.7865 210.673L52.579 213.584Z" fill="white" stroke="#191A19" stroke-width="1.32331" stroke-linecap="round" stroke-linejoin="round"/>
</svg>
