<svg width="512" height="394" viewBox="0 0 512 394" fill="none" xmlns="http://www.w3.org/2000/svg">
<path d="M383.393 260.013H376.479V284.091H383.393V260.013Z" fill="#191A19" stroke="#191A19" stroke-miterlimit="10" stroke-linecap="round" stroke-linejoin="round"/>
<path d="M490.134 260.013H483.22V284.091H490.134V260.013Z" fill="#191A19" stroke="#191A19" stroke-miterlimit="10" stroke-linecap="round" stroke-linejoin="round"/>
<path d="M481.82 294.45H382.42V189.364C382.42 184.943 386.538 181.358 391.617 181.358H472.624C477.703 181.358 481.821 184.942 481.821 189.364L481.82 294.45Z" fill="#CCCDCB" stroke="#191A19" stroke-miterlimit="10" stroke-linecap="round" stroke-linejoin="round"/>
<path d="M392.035 386.428C392.035 383.934 389.713 381.913 386.849 381.913C383.985 381.913 381.663 383.934 381.663 386.428C381.663 388.921 383.985 390.942 386.849 390.942C389.714 390.942 392.035 388.921 392.035 386.428Z" fill="#CCCDCB" stroke="#191A19" stroke-miterlimit="10" stroke-linecap="round" stroke-linejoin="round"/>
<path d="M437.412 386.428C437.412 383.934 435.09 381.913 432.226 381.913C429.362 381.913 427.04 383.934 427.04 386.428C427.04 388.921 429.362 390.942 432.226 390.942C435.09 390.942 437.412 388.921 437.412 386.428Z" fill="#CCCDCB" stroke="#191A19" stroke-miterlimit="10" stroke-linecap="round" stroke-linejoin="round"/>
<path d="M482.788 386.428C482.788 383.934 480.466 381.913 477.602 381.913C474.738 381.913 472.416 383.934 472.416 386.428C472.416 388.921 474.738 390.942 477.602 390.942C480.466 390.942 482.788 388.921 482.788 386.428Z" fill="#CCCDCB" stroke="#191A19" stroke-miterlimit="10" stroke-linecap="round" stroke-linejoin="round"/>
<path d="M436.907 363.757V289.371H427.805V363.276L427.472 363.478L380.367 380.032V384.923H387.714V381.536L428.532 376.311L429.287 384.923H434.732L435.483 376.365L475.874 381.536V384.923H483.221V380.032L436.907 363.757Z" fill="#191A19" stroke="#191A19" stroke-miterlimit="10" stroke-linecap="round" stroke-linejoin="round"/>
<path d="M446.576 297.596H417.66V306.512H446.576V297.596Z" fill="#191A19" stroke="#191A19" stroke-miterlimit="10" stroke-linecap="round" stroke-linejoin="round"/>
<path d="M486.46 298.12H377.78C375.851 298.12 374.287 296.759 374.287 295.079V281.232C374.287 279.553 375.851 278.191 377.78 278.191H486.46C488.389 278.191 489.953 279.553 489.953 281.232V295.079C489.953 296.759 488.389 298.12 486.46 298.12Z" fill="#CCCDCB" stroke="#191A19" stroke-miterlimit="10" stroke-linecap="round" stroke-linejoin="round"/>
<path d="M379.627 264.528H371.169C369.566 264.528 368.268 263.397 368.268 262.002V248.619C368.268 247.224 369.566 246.094 371.169 246.094H379.627C381.229 246.094 382.528 247.224 382.528 248.619V262.002C382.528 263.397 381.229 264.528 379.627 264.528Z" fill="#CCCDCB" stroke="#191A19" stroke-miterlimit="10" stroke-linecap="round" stroke-linejoin="round"/>
<path d="M492.634 264.528H484.175C482.573 264.528 481.274 263.397 481.274 262.002V248.619C481.274 247.224 482.573 246.094 484.175 246.094H492.634C494.236 246.094 495.535 247.224 495.535 248.619V262.002C495.536 263.397 494.237 264.528 492.634 264.528Z" fill="#CCCDCB" stroke="#191A19" stroke-miterlimit="10" stroke-linecap="round" stroke-linejoin="round"/>
<path d="M442.775 122.623C442.775 122.623 435.24 121.916 431.944 128.509C428.648 135.102 431.002 147.582 431.238 148.524C431.473 149.465 432.886 157 430.061 160.062C427.235 163.123 411.459 175.603 410.517 185.962C409.575 196.322 416.168 205.506 430.061 209.509C443.952 213.511 462.083 211.392 469.854 206.683C477.624 201.974 483.746 189.494 481.156 181.253C478.566 173.013 469.619 165.477 467.735 158.178C465.851 150.879 474.092 147.347 470.796 137.222C467.499 127.098 457.374 120.975 452.194 120.033C447.013 119.09 445.129 118.385 442.775 122.623Z" fill="#191A19" stroke="#191A19" stroke-miterlimit="10" stroke-linecap="round" stroke-linejoin="round"/>
<path d="M435.946 169.48C435.946 169.48 430.157 180.141 430.444 183.87C430.73 187.599 427.862 216.005 427.287 217.152C426.713 218.299 409.499 242.114 408.064 255.025C406.629 267.936 406.056 274.249 417.819 280.56C429.583 286.873 458.275 286.873 468.317 282.856C478.359 278.839 479.794 265.641 478.359 255.886C476.924 246.13 472.907 237.81 468.603 230.063C464.3 222.316 458.848 213.709 457.414 207.11C455.979 200.51 456.84 182.435 457.127 180.714C457.414 178.992 455.018 170.892 455.018 170.892L435.946 169.48Z" fill="#191A19" stroke="#191A19" stroke-miterlimit="10" stroke-linecap="round" stroke-linejoin="round"/>
<path d="M433.121 146.169C433.121 146.169 429.118 143.343 429.354 147.817C429.589 152.29 432.885 153.703 432.885 153.703L433.121 146.169Z" fill="white" stroke="#191A19" stroke-miterlimit="10" stroke-linecap="round" stroke-linejoin="round"/>
<path d="M445.835 128.744L432.884 139.575C432.884 139.575 431.546 150.577 433.12 156.293C433.804 158.779 436.651 165.947 440.654 167.124L439.477 170.42L435.945 169.478L433.12 184.077C433.12 184.077 439.241 185.961 443.244 186.197C447.247 186.432 451.956 186.667 451.956 186.667L455.017 170.891L451.72 169.478L452.191 166.888C452.191 166.888 457.43 163.056 458.548 160.296C462.08 151.584 461.374 143.813 461.374 143.813C461.374 143.813 452.428 139.575 445.835 128.744Z" fill="white" stroke="#191A19" stroke-miterlimit="10" stroke-linecap="round" stroke-linejoin="round"/>
<path d="M440.656 167.124C440.656 167.124 441.833 167.359 447.013 167.124C447.013 167.124 442.068 169.949 439.479 170.42L440.656 167.124Z" fill="#191A19" stroke="#191A19" stroke-miterlimit="10" stroke-linecap="round" stroke-linejoin="round"/>
<path d="M444.187 140.517C444.187 140.517 445.6 141.459 445.364 143.342C445.129 145.226 444.187 146.639 444.187 146.639C444.187 146.639 440.655 145.226 440.655 147.345C440.655 149.464 442.303 150.877 442.303 150.877" stroke="#191A19" stroke-miterlimit="10" stroke-linecap="round" stroke-linejoin="round"/>
<path d="M441.126 153.939C441.126 153.939 446.306 156.764 450.779 152.526C450.779 152.526 448.189 157.471 445.129 157.941C442.068 158.412 441.126 153.939 441.126 153.939Z" stroke="#191A19" stroke-miterlimit="10" stroke-linecap="round" stroke-linejoin="round"/>
<path d="M450.779 144.992C450.779 144.992 453.605 144.521 455.724 146.64" stroke="#191A19" stroke-miterlimit="10" stroke-linecap="round" stroke-linejoin="round"/>
<path d="M438.065 142.636C438.065 142.636 440.42 141.223 442.304 143.107" stroke="#191A19" stroke-miterlimit="10" stroke-linecap="round" stroke-linejoin="round"/>
<path d="M436.417 139.575C436.417 139.575 438.065 136.75 442.303 138.633" stroke="#191A19" stroke-miterlimit="10" stroke-linecap="round" stroke-linejoin="round"/>
<path d="M450.779 140.046C450.779 140.046 455.017 138.633 457.607 142.871" stroke="#191A19" stroke-miterlimit="10" stroke-linecap="round" stroke-linejoin="round"/>
<path d="M461.14 151.113C461.14 151.113 463.966 147.582 464.436 151.113C464.907 154.645 462.553 157.471 459.963 157.706L461.14 151.113Z" fill="white" stroke="#191A19" stroke-miterlimit="10" stroke-linecap="round" stroke-linejoin="round"/>
<path d="M455.018 170.892C455.018 170.892 476.445 160.532 477.622 159.826C478.8 159.12 482.931 151.095 482.931 151.095L496.418 161.211C496.418 161.211 492.692 165.948 492.221 166.654C491.751 167.36 468.675 186.198 468.675 186.198C468.675 186.198 462.083 210.215 461.847 211.627C461.612 213.04 482.568 238.705 484.216 239.647C485.864 240.589 489.396 242.473 488.219 243.885C487.042 245.298 481.862 250.949 474.798 251.42C467.735 251.891 460.905 243.179 457.609 236.586C454.313 229.994 453.842 225.048 453.371 222.694C452.9 220.339 450.781 188.081 451.723 182.9C452.664 177.72 455.018 170.892 455.018 170.892Z" fill="#439037" stroke="#191A19" stroke-miterlimit="10" stroke-linecap="round" stroke-linejoin="round"/>
<path d="M457.243 170.968C457.243 170.968 457.243 180.54 457.243 187.218C457.243 193.896 454.349 208.367 454.349 209.034" stroke="#191A19" stroke-miterlimit="10" stroke-linecap="round" stroke-linejoin="round"/>
<path d="M435.946 169.48C435.946 169.48 431.943 185.962 432.65 194.91C433.356 203.857 432.414 212.099 431.943 215.866C431.472 219.633 417.58 241.531 413.577 245.298C409.574 249.065 406.513 248.594 403.924 247.182C401.334 245.769 398.744 243.65 398.744 243.65C398.744 243.65 420.642 214.688 421.348 210.921C422.054 207.154 420.406 184.785 420.406 184.785C420.406 184.785 406.043 166.89 402.746 161.71C399.45 156.53 397.14 154.799 397.14 154.799L394.945 148.576L408.499 144.508C408.499 144.508 412.636 149.701 413.814 151.584C414.991 153.468 423.232 162.416 425.587 163.828C427.939 165.241 435.946 169.48 435.946 169.48Z" fill="#439037" stroke="#191A19" stroke-miterlimit="10" stroke-linecap="round" stroke-linejoin="round"/>
<path d="M390.469 102.841C390.469 102.841 392.407 96.7989 391.52 93.4248C390.633 90.0496 387.566 84.6398 385.975 84.913C384.383 85.1862 376.319 92.3308 376.408 94.0878C376.497 95.8459 379.61 103.888 382.024 104.708C382.423 104.843 393.604 145.903 394.941 148.574C396.993 152.664 407.513 147.457 408.495 144.508C409.176 142.473 390.469 102.841 390.469 102.841Z" fill="white" stroke="#191A19" stroke-miterlimit="10" stroke-linecap="round" stroke-linejoin="round"/>
<path d="M388.954 88.5646C388.954 88.5646 386.088 82.6384 385.03 82.7617C383.972 82.8849 374.133 90.4693 375.272 92.2785C376.411 94.0877 378.049 96.4467 378.049 96.4467C378.049 96.4467 388.136 90.9791 388.677 90.6548C389.218 90.3316 388.954 88.5646 388.954 88.5646Z" fill="white" stroke="#191A19" stroke-miterlimit="10" stroke-linecap="round" stroke-linejoin="round"/>
<path d="M390.932 98.305C390.932 98.305 392.541 90.494 391.761 88.5271C390.981 86.5602 389.492 84.7344 387.97 83.6071C386.447 82.4809 379.291 88.968 379.739 90.5684C380.186 92.1688 382.52 91.0549 383.246 90.5651C383.971 90.0742 385.597 89.1024 385.597 89.1024C385.597 89.1024 382.691 94.7466 383.506 96.0138C384.321 97.281 386.901 98.2839 386.901 98.2839" fill="white"/>
<path d="M390.932 98.305C390.932 98.305 392.541 90.494 391.761 88.5271C390.981 86.5602 389.492 84.7344 387.97 83.6071C386.447 82.4809 379.291 88.968 379.739 90.5684C380.186 92.1688 382.52 91.0549 383.246 90.5651C383.971 90.0742 385.597 89.1024 385.597 89.1024C385.597 89.1024 382.691 94.7466 383.506 96.0138C384.321 97.281 386.901 98.2839 386.901 98.2839" stroke="#191A19" stroke-miterlimit="10" stroke-linecap="round" stroke-linejoin="round"/>
<path d="M433.423 169.41C433.423 169.41 428.525 175.643 428.079 181.208C427.634 186.773 431.419 202.578 431.419 202.578" stroke="#191A19" stroke-miterlimit="10" stroke-linecap="round" stroke-linejoin="round"/>
<path d="M429.87 291.176C429.87 291.176 440.199 280.273 440.486 274.248C440.773 268.223 435.322 260.763 428.149 261.337C420.975 261.912 414.089 271.666 408.064 281.135C402.039 290.603 376.504 353.152 375.93 356.594C375.356 360.037 368.757 375.531 370.478 382.703C372.199 389.876 375.93 386.72 378.224 380.982C380.52 375.243 379.946 360.897 380.232 359.463C380.519 358.028 417.245 306.383 421.548 301.218C425.853 296.054 429.87 291.176 429.87 291.176Z" fill="white" stroke="#191A19" stroke-miterlimit="10" stroke-linecap="round" stroke-linejoin="round"/>
<path d="M378.225 380.982C379.042 378.937 379.495 375.798 379.753 372.541L378.798 374.382L372.485 373.522L372.626 367.297C370.996 372.748 369.562 378.895 370.476 382.703C372.199 389.875 375.93 386.72 378.225 380.982Z" fill="#191A19" stroke="#191A19" stroke-miterlimit="10" stroke-linecap="round" stroke-linejoin="round"/>
<path d="M445.714 284.202C445.714 284.202 439.412 270.569 441.067 264.768C442.722 258.967 450.272 253.642 456.884 256.478C463.497 259.315 466.903 270.76 469.585 281.657C472.267 292.555 476.467 359.983 475.91 363.43C475.354 366.876 476.653 383.665 472.728 389.911C468.804 396.157 466.279 391.975 465.938 385.803C465.597 379.632 470.728 366.223 470.915 364.771C471.101 363.32 452.814 302.645 450.387 296.375C447.961 290.108 445.714 284.202 445.714 284.202Z" fill="white" stroke="#191A19" stroke-miterlimit="10" stroke-linecap="round" stroke-linejoin="round"/>
<path d="M465.938 385.804C465.817 383.605 466.391 380.486 467.187 377.318L467.503 379.368L473.759 380.571L475.615 374.627C475.417 380.313 474.811 386.596 472.726 389.912C468.803 396.158 466.279 391.976 465.938 385.804Z" fill="#191A19" stroke="#191A19" stroke-miterlimit="10" stroke-linecap="round" stroke-linejoin="round"/>
<path d="M496.38 105.703C496.38 105.703 495.018 109.787 492.839 122.858C490.661 135.929 481.402 149 481.674 154.719C481.946 160.437 484.397 166.428 490.66 165.884C496.923 165.339 498.556 160.165 500.463 149.817C502.369 139.47 502.369 114.418 502.914 111.967C503.459 109.515 504.004 107.882 504.004 107.882L496.38 105.703Z" fill="white" stroke="#191A19" stroke-miterlimit="10" stroke-linecap="round" stroke-linejoin="round"/>
<path d="M506.908 110.515H493.422L491.736 83.7766H508.594L506.908 110.515Z" fill="#439037" stroke="#191A19" stroke-miterlimit="10" stroke-linecap="round" stroke-linejoin="round"/>
<path d="M492.576 97.0796L508.372 87.2917L508.594 83.7766H507.72L492.337 93.3079L492.576 97.0796Z" fill="white" stroke="#191A19" stroke-miterlimit="10" stroke-linecap="round" stroke-linejoin="round"/>
<path d="M507.472 101.564L493.409 110.309L493.421 110.515H499.388L507.214 105.648L507.472 101.564Z" fill="white" stroke="#191A19" stroke-miterlimit="10" stroke-linecap="round" stroke-linejoin="round"/>
<path d="M507.825 95.9878L508.088 91.8086L492.883 101.945L493.125 105.788L507.825 95.9878Z" fill="white" stroke="#191A19" stroke-miterlimit="10" stroke-linecap="round" stroke-linejoin="round"/>
<path d="M508.481 84.5753H491.903C491.378 84.5753 490.952 84.15 490.952 83.6235C490.952 83.0982 491.378 82.6729 491.904 82.6729H508.482C509.007 82.6729 509.433 83.0982 509.433 83.6235C509.433 84.15 509.006 84.5753 508.481 84.5753Z" fill="white" stroke="#191A19" stroke-miterlimit="10" stroke-linecap="round" stroke-linejoin="round"/>
<path d="M511.5 90.4617C511.5 90.4617 507.431 84.0679 507.431 86.9744C507.431 89.8808 508.303 93.9501 508.303 93.9501C508.303 93.9501 511.5 93.658 511.5 90.4617Z" fill="white" stroke="#191A19" stroke-miterlimit="10" stroke-linecap="round" stroke-linejoin="round"/>
<path d="M510.925 94.3386C510.925 94.3386 506.855 87.9448 506.855 90.8513C506.855 93.7578 507.727 97.8271 507.727 97.8271C507.727 97.8271 510.925 97.5361 510.925 94.3386Z" fill="white" stroke="#191A19" stroke-miterlimit="10" stroke-linecap="round" stroke-linejoin="round"/>
<path d="M510.782 97.2119C510.782 97.2119 506.713 90.8181 506.713 93.7246C506.713 96.6311 507.585 100.7 507.585 100.7C507.585 100.7 510.782 100.408 510.782 97.2119Z" fill="white" stroke="#191A19" stroke-miterlimit="10" stroke-linecap="round" stroke-linejoin="round"/>
<path d="M510.223 100.225C510.223 100.225 506.569 94.4831 506.569 97.0931C506.569 99.703 507.352 103.357 507.352 103.357C507.352 103.357 510.223 103.096 510.223 100.225Z" fill="white" stroke="#191A19" stroke-miterlimit="10" stroke-linecap="round" stroke-linejoin="round"/>
<path d="M492.282 96.7508C492.282 96.7508 490.127 93.4467 490.127 92.2983C490.127 91.1488 490.415 89.8561 489.839 86.6964C489.265 83.5367 491.706 83.5367 491.706 85.8345L492.282 96.7508Z" fill="white" stroke="#191A19" stroke-miterlimit="10" stroke-linecap="round" stroke-linejoin="round"/>
<path d="M162.671 24.8532C162.671 24.8532 164.422 19.9498 163.371 16.6224C162.321 13.295 158.993 8.04178 157.417 8.39162C155.842 8.74146 148.136 16.2725 148.312 18.024C148.487 19.7754 151.989 27.6564 154.441 28.356C156.891 29.0568 162.671 24.8532 162.671 24.8532Z" fill="white" stroke="#191A19" stroke-miterlimit="10" stroke-linecap="round" stroke-linejoin="round"/>
<path d="M160.569 11.8942C160.569 11.8942 157.417 6.11457 156.366 6.29005C155.316 6.46553 145.859 14.5208 147.085 16.2723C148.311 18.0237 150.063 20.3005 150.063 20.3005C150.063 20.3005 159.869 14.3465 160.395 13.9966C160.92 13.6457 160.569 11.8942 160.569 11.8942Z" fill="white" stroke="#191A19" stroke-miterlimit="10" stroke-linecap="round" stroke-linejoin="round"/>
<path d="M163.022 21.5255C163.022 21.5255 164.248 13.6446 163.371 11.7188C162.496 9.79189 160.919 8.04156 159.343 6.99091C157.767 5.94027 150.937 12.7694 151.462 14.3465C151.988 15.9225 154.264 14.6964 154.965 14.171C155.666 13.6457 157.242 12.5951 157.242 12.5951C157.242 12.5951 154.615 18.3736 155.491 19.5997C156.366 20.8259 158.993 21.701 158.993 21.701" fill="white"/>
<path d="M163.022 21.5255C163.022 21.5255 164.248 13.6446 163.371 11.7188C162.496 9.79189 160.919 8.04156 159.343 6.99091C157.767 5.94027 150.937 12.7694 151.462 14.3465C151.988 15.9225 154.264 14.6964 154.965 14.171C155.666 13.6457 157.242 12.5951 157.242 12.5951C157.242 12.5951 154.615 18.3736 155.491 19.5997C156.366 20.8259 158.993 21.701 158.993 21.701" stroke="#191A19" stroke-miterlimit="10" stroke-linecap="round" stroke-linejoin="round"/>
<path d="M164.773 30.4571L162.672 24.853C162.672 24.853 156.543 23.1015 154.441 28.3559L156.893 34.1344C156.893 34.1344 159.695 30.2817 164.773 30.4571Z" fill="white" stroke="#191A19" stroke-miterlimit="10" stroke-linecap="round" stroke-linejoin="round"/>
<path d="M269.856 20.476C269.856 20.476 266.145 16.8243 265.642 13.3714C265.138 9.91851 265.846 3.74014 267.417 3.3692C268.989 2.99825 279.204 6.42117 279.81 8.07377C280.415 9.72636 280.694 18.3459 278.791 20.044C276.889 21.7432 269.856 20.476 269.856 20.476Z" fill="white" stroke="#191A19" stroke-miterlimit="10" stroke-linecap="round" stroke-linejoin="round"/>
<path d="M266.104 7.89499C266.104 7.89499 266.425 1.32014 267.447 1.02028C268.469 0.720411 280.49 3.85345 280.149 5.96362C279.808 8.0738 279.223 10.8859 279.223 10.8859C279.223 10.8859 267.802 9.79636 267.176 9.70973C266.552 9.62422 266.104 7.89499 266.104 7.89499Z" fill="white" stroke="#191A19" stroke-miterlimit="10" stroke-linecap="round" stroke-linejoin="round"/>
<path d="M268.091 17.6339C268.091 17.6339 263.556 11.0735 263.506 8.95777C263.455 6.84204 264.111 4.57971 265.073 2.94711C266.035 1.3145 275.156 4.48865 275.37 6.1368C275.584 7.78384 273 7.67167 272.141 7.50396C271.281 7.33626 269.405 7.07638 269.405 7.07638C269.405 7.07638 274.286 11.1346 274.032 12.6195C273.778 14.1044 271.794 16.0368 271.794 16.0368" fill="white"/>
<path d="M268.091 17.6339C268.091 17.6339 263.556 11.0735 263.506 8.95777C263.455 6.84204 264.111 4.57971 265.073 2.94711C266.035 1.3145 275.156 4.48865 275.37 6.1368C275.584 7.78384 273 7.67167 272.141 7.50396C271.281 7.33626 269.405 7.07638 269.405 7.07638C269.405 7.07638 274.286 11.1346 274.032 12.6195C273.778 14.1044 271.794 16.0368 271.794 16.0368" stroke="#191A19" stroke-miterlimit="10" stroke-linecap="round" stroke-linejoin="round"/>
<path d="M278.21 26.5222L278.758 20.5627C278.758 20.5627 274.004 16.3168 269.824 20.1306L269.514 26.4012C269.514 26.4012 273.714 24.1533 278.21 26.5222Z" fill="white" stroke="#191A19" stroke-miterlimit="10" stroke-linecap="round" stroke-linejoin="round"/>
<path d="M216.96 94.5529C216.96 94.5529 210.305 92.2762 205.927 90.5247C201.549 88.7733 191.562 72.7249 188.585 68.6967C185.607 64.6685 171.077 37.4617 167.75 32.9082C164.422 28.3547 158.644 28.5302 156.541 32.033C154.44 35.5359 165.122 64.6063 172.302 78.0903C179.482 91.5754 197.695 122.222 201.372 125.899C205.05 129.576 206.626 132.729 206.626 132.729C206.626 132.729 209.953 165.302 210.654 170.206C211.355 175.109 208.727 174.759 210.829 177.911C212.931 181.063 230.093 186.142 243.928 184.041C257.763 181.94 262.141 176.16 261.791 172.658C261.441 169.155 260.565 165.478 260.565 165.478L259.864 112.415C259.864 112.415 273.699 79.8417 276.501 64.7806C279.303 49.7196 280.152 28.2536 277.524 24.2265C274.897 20.1983 269.643 22.4751 268.418 25.2772C267.192 28.0792 261.266 54.7984 258.113 64.0799C254.961 73.3613 247.955 85.0949 244.628 88.9477C241.3 92.8004 237.447 93.5012 237.447 93.5012C237.447 93.5012 225.542 96.8297 216.96 94.5529Z" fill="white" stroke="#191A19" stroke-miterlimit="10" stroke-linecap="round" stroke-linejoin="round"/>
<path d="M206.628 132.73L201.612 105.848" stroke="#191A19" stroke-miterlimit="10" stroke-linecap="round" stroke-linejoin="round"/>
<path d="M205.649 128.052L198.079 109.885" stroke="#191A19" stroke-miterlimit="10" stroke-linecap="round" stroke-linejoin="round"/>
<path d="M259.865 112.415L256.871 91.4656" stroke="#191A19" stroke-miterlimit="10" stroke-linecap="round" stroke-linejoin="round"/>
<path d="M258.89 104.586V87.1753" stroke="#191A19" stroke-miterlimit="10" stroke-linecap="round" stroke-linejoin="round"/>
<path d="M250.816 143.697C250.816 143.697 242.236 161.36 232.648 169.434" stroke="#191A19" stroke-miterlimit="10" stroke-linecap="round" stroke-linejoin="round"/>
<path d="M237.189 158.333C237.189 158.333 230.125 168.174 226.34 170.949" stroke="#191A19" stroke-miterlimit="10" stroke-linecap="round" stroke-linejoin="round"/>
<path d="M219.412 91.4011C219.412 91.4011 215.909 92.9771 214.508 96.3045C213.107 99.6319 212.231 105.761 215.209 113.117C218.187 120.473 218.712 122.574 218.712 122.574C218.712 122.574 222.389 118.546 224.492 117.321C226.593 116.095 233.423 112.242 233.423 112.242C233.423 112.242 242.88 112.417 246.032 112.943C249.184 113.468 250.235 113.818 250.235 113.818C250.235 113.818 245.856 101.209 240.778 95.255C235.698 89.2987 228.342 86.6721 219.412 91.4011Z" fill="#CCCDCB" stroke="#191A19" stroke-miterlimit="10" stroke-linecap="round" stroke-linejoin="round"/>
<path d="M229.917 51.8221C229.917 51.8221 223.263 49.02 217.484 49.8963C211.704 50.7715 204.35 58.6524 204.875 67.0586C205.401 75.4649 215.033 82.8194 217.134 86.6721C219.236 90.5248 218.886 90.5248 219.06 96.8298C219.236 103.134 222.913 109.263 225.19 111.715C227.466 114.167 235.522 122.047 235.522 122.047C235.522 122.047 238.849 106.461 238.148 103.309C237.447 100.157 235.696 95.0784 235.522 93.5024C235.346 91.9264 234.996 90.5248 234.996 90.5248C234.996 90.5248 240.277 90.2561 240.452 81.149C240.472 80.1017 240.462 77.645 240.442 76.5122C240.286 67.7972 238.598 58.3325 229.917 51.8221Z" fill="white" stroke="#191A19" stroke-miterlimit="10" stroke-linecap="round" stroke-linejoin="round"/>
<path d="M208.729 78.9667C208.729 78.9667 213.119 75.4494 214.345 72.9983C214.879 71.9299 213.029 70.0041 213.465 66.991C213.703 65.3517 214.459 64.3144 214.345 62.8884C214.186 60.9181 212.349 62.0665 212.407 60.4039C212.582 55.3251 221.864 51.9976 224.84 52.523C227.818 53.0483 232.546 56.2002 234.122 56.2002C235.698 56.2002 241.652 52.172 240.777 48.1449C239.901 44.1167 236.049 46.0436 233.772 45.5183C231.495 44.993 236.398 40.9648 232.371 37.463C228.343 33.9601 223.09 36.0625 221.514 37.9883C219.938 39.9142 220.112 43.2416 217.486 43.0672C214.859 42.8917 211.532 41.6667 209.78 43.768C208.029 45.8693 208.38 47.6207 207.679 48.8468C206.978 50.073 198.747 52.875 197.697 60.5805C196.645 68.2848 202.476 72.7051 208.729 78.9667Z" fill="#191A19" stroke="#191A19" stroke-miterlimit="10" stroke-linecap="round" stroke-linejoin="round"/>
<path d="M212.585 75.3428C212.585 75.3428 206.335 70.6649 204.233 73.2915C202.132 75.9181 206.839 82.1587 209.291 82.1587C211.742 82.1587 213.318 79.8852 213.318 79.8852" fill="white"/>
<path d="M212.585 75.3428C212.585 75.3428 206.335 70.6649 204.233 73.2915C202.132 75.9181 206.839 82.1587 209.291 82.1587C211.742 82.1587 213.318 79.8852 213.318 79.8852" stroke="#191A19" stroke-miterlimit="10" stroke-linecap="round" stroke-linejoin="round"/>
<path d="M219.762 67.5841C219.762 67.5841 220.638 65.1318 224.665 65.1318" stroke="#191A19" stroke-miterlimit="10" stroke-linecap="round" stroke-linejoin="round"/>
<path d="M218.01 63.2058C218.01 63.2058 219.06 60.0539 223.438 59.5286" stroke="#191A19" stroke-miterlimit="10" stroke-linecap="round" stroke-linejoin="round"/>
<path d="M232.546 63.0304C232.546 63.0304 234.122 60.9291 236.399 61.6299" stroke="#191A19" stroke-miterlimit="10" stroke-linecap="round" stroke-linejoin="round"/>
<path d="M229.043 57.9515C229.043 57.9515 230.619 55.1494 234.122 56.2001" stroke="#191A19" stroke-miterlimit="10" stroke-linecap="round" stroke-linejoin="round"/>
<path d="M222.913 75.114C222.913 75.114 226.065 78.4414 232.545 76.69C232.545 76.69 230.444 81.4179 227.992 81.9443C225.541 82.4696 222.913 76.8655 222.913 75.114Z" stroke="#191A19" stroke-miterlimit="10" stroke-linecap="round" stroke-linejoin="round"/>
<path d="M228.3 60.406L236.23 67.8394L232.017 71.0612L232.76 74.5308" fill="white"/>
<path d="M228.3 60.406L236.23 67.8394L232.017 71.0612L232.76 74.5308" stroke="#191A19" stroke-miterlimit="10" stroke-linecap="round" stroke-linejoin="round"/>
<path d="M234.996 90.525C234.996 90.525 230.443 91.7511 228.517 91.2257C226.59 90.7004 225.365 90.3506 225.365 90.3506L236.748 99.4565L234.996 90.525Z" fill="#191A19" stroke="#191A19" stroke-miterlimit="10" stroke-linecap="round" stroke-linejoin="round"/>
<path d="M193.033 209.334C193.033 209.334 186.691 201.487 184.673 199.716C182.655 197.945 178.908 198.956 177.179 201.234C175.449 203.512 173.719 208.068 172.855 209.587C171.99 211.105 166.513 217.687 166.802 220.723C167.09 223.761 167.955 227.557 171.126 226.545C174.296 225.532 177.263 220.399 181.587 218.121C185.91 215.843 187.994 218.121 187.994 218.121L193.033 209.334Z" fill="#191A19" stroke="#191A19" stroke-miterlimit="10" stroke-linecap="round" stroke-linejoin="round"/>
<path d="M238.957 276.926C238.957 276.926 231.134 267.085 223.06 260.273C214.986 253.46 186.978 216.872 186.978 216.872L192.528 207.536C192.528 207.536 215.995 231.76 224.07 237.059C232.144 242.357 239.714 248.413 241.733 250.179C243.752 251.945 248.799 261.282 247.789 266.329C246.779 271.374 244.76 277.683 238.957 276.926Z" fill="#191A19" stroke="#191A19" stroke-miterlimit="10" stroke-linecap="round" stroke-linejoin="round"/>
<path d="M162.753 216.368C162.753 216.368 155.435 211.321 152.66 207.788C149.884 204.255 145.847 204.761 144.08 207.031C142.314 209.302 137.014 219.647 134.744 224.694C132.473 229.74 132.221 238.572 133.23 240.59C134.24 242.608 136.258 240.086 137.015 238.319C137.773 236.553 146.523 228.411 147.785 227.149C149.047 225.888 152.074 224.374 152.074 224.374L157.121 227.149L162.753 216.368Z" fill="#191A19" stroke="#191A19" stroke-miterlimit="10" stroke-linecap="round" stroke-linejoin="round"/>
<path d="M237.441 261.281L234.666 224.441L231.133 227.216C231.133 227.216 219.274 281.972 217.003 283.738C214.732 285.503 207.919 279.953 201.863 276.42C195.807 272.887 156.444 228.982 155.183 227.972C153.921 226.963 160.986 213.338 161.995 213.842C163.005 214.346 197.826 248.915 197.826 248.915C197.826 248.915 202.115 217.375 204.134 204.001C206.153 190.627 211.2 176.244 211.2 176.244C211.2 176.244 232.143 183.814 243.75 181.291C255.357 178.768 261.791 172.656 261.791 172.656C261.791 172.656 260.403 185.833 261.16 212.075C261.917 238.317 255.861 265.821 253.338 274.653C250.814 283.484 249.553 284.242 247.029 283.736C244.506 283.232 238.703 275.914 236.684 273.391" fill="#191A19"/>
<path d="M237.441 261.281L234.666 224.441L231.133 227.216C231.133 227.216 219.274 281.972 217.003 283.738C214.732 285.503 207.919 279.953 201.863 276.42C195.807 272.887 156.444 228.982 155.183 227.972C153.921 226.963 160.986 213.338 161.995 213.842C163.005 214.346 197.826 248.915 197.826 248.915C197.826 248.915 202.115 217.375 204.134 204.001C206.153 190.627 211.2 176.244 211.2 176.244C211.2 176.244 232.143 183.814 243.75 181.291C255.357 178.768 261.791 172.656 261.791 172.656C261.791 172.656 260.403 185.833 261.16 212.075C261.917 238.317 255.861 265.821 253.338 274.653C250.814 283.484 249.553 284.242 247.029 283.736C244.506 283.232 238.703 275.914 236.684 273.391" stroke="#191A19" stroke-miterlimit="10" stroke-linecap="round" stroke-linejoin="round"/>
<path d="M84.9654 128.816C84.9654 128.816 87.983 168.273 89.2546 171.768C90.5263 175.264 92.4332 185.435 92.4332 185.435C92.4332 185.435 82.2622 187.977 80.6729 188.296C79.0836 188.614 75.6995 187.32 75.6995 187.32C75.6995 187.32 73.3617 162.868 74.3157 149.519C75.2697 136.169 83.2151 123.137 83.2151 123.137L84.9654 128.816Z" fill="white" stroke="#191A19" stroke-miterlimit="10"/>
<path d="M105.145 245.686C105.145 245.686 101.314 246.073 100.353 245.4C99.3921 244.726 100.353 244.294 100.834 244.247C101.315 244.199 103.092 244.055 103.092 244.055C103.092 244.055 99.3922 242.325 99.7276 241.844C100.064 241.364 101.457 241.46 101.457 241.46L102.225 241.171C102.225 241.171 99.6787 239.682 100.111 239.393C100.543 239.105 103.042 239.633 103.042 239.633L102.657 232.906C102.657 232.906 104.194 232.811 105.348 234.203C106.501 235.597 106.309 238.865 106.117 241.218C105.927 243.574 105.145 245.686 105.145 245.686Z" fill="white" stroke="#191A19" stroke-miterlimit="10"/>
<path d="M89.5912 182.641L99.6478 220.761L107.368 228.417C107.368 228.417 109.024 236.906 108.913 238.523C108.801 240.141 105.29 249.465 103.978 246.751C103.485 245.73 105.523 238.794 105.269 237.169C104.848 234.469 103.501 233.38 103.501 233.38C103.501 233.38 99.4268 233.93 96.5792 231.734C93.7316 229.539 92.5365 224.56 92.5365 224.56L76.0039 188.22L89.5912 182.641Z" fill="white" stroke="#191A19" stroke-miterlimit="10"/>
<path d="M103.096 231.112L103.499 233.379C103.499 233.379 105.607 244.279 103.716 244.523C101.825 244.768 100.241 240.234 100.241 240.234L99.3956 236.177C99.3956 236.177 95.3985 232.527 94.4823 230.402C93.566 228.277 92.1211 222.053 92.1211 222.053" fill="white"/>
<path d="M103.096 231.112L103.499 233.379C103.499 233.379 105.607 244.279 103.716 244.523C101.825 244.768 100.241 240.234 100.241 240.234L99.3956 236.177C99.3956 236.177 95.3985 232.527 94.4823 230.402C93.566 228.277 92.1211 222.053 92.1211 222.053" stroke="#191A19" stroke-miterlimit="10"/>
<path d="M77.4951 179.079L91.4811 175.583L92.434 185.435L78.1315 188.296L77.4951 179.079Z" fill="white" stroke="#191A19" stroke-miterlimit="10"/>
<path d="M78.3657 163.203C78.1769 163.904 79.6729 196.425 79.8417 200.067L14.2854 198.268L13.89 169.908C13.89 169.908 11.8687 136.608 11.8487 129.332C11.8287 122.057 16.35 111.983 21.0291 109.147C25.7081 106.309 42.1385 97.8508 42.1385 97.8508L65.1394 96.708C65.1394 96.708 79.3131 107.994 80.6514 109.54C81.9896 111.086 87.4106 123.903 85.5725 132.743C83.7344 141.584 78.5667 162.461 78.3657 163.203Z" fill="white" stroke="#191A19" stroke-miterlimit="10"/>
<path d="M101.979 374.314L110.881 381.566C110.881 381.566 122.749 386.182 123.078 387.83C123.408 389.478 121.43 391.126 119.782 391.126H84.0725C82.3966 391.126 81.0039 389.846 80.8629 388.175C80.5819 384.86 80.4764 379.52 82.1989 376.291C84.8355 371.346 101.979 374.314 101.979 374.314Z" fill="#191A19" stroke="#191A19" stroke-miterlimit="10" stroke-linecap="round" stroke-linejoin="round"/>
<path d="M99.2194 366.892L98.704 272.145L79.8091 196.112L63.4642 198.488C61.4551 198.78 59.4182 198.829 57.398 198.636L13.8108 194.454L12.6858 202.333C12.6858 202.333 11.6829 224.258 14.2573 229.922C16.8317 235.586 22.4958 278.84 22.4958 278.84L5.4001 363.848L3.75195 373.078L26.1697 374.068L26.4996 368.463L24.1917 366.815V361.541L24.0707 361.518C30.8054 340.905 49.456 284.048 50.3023 281.931C51.3318 279.356 56.5095 237.581 56.5095 237.581L73.4742 281.416L82.4846 364.014L82.1992 376.293L101.979 374.315V369.041L99.2194 366.892Z" fill="#191A19" stroke="#191A19" stroke-miterlimit="10" stroke-linecap="round" stroke-linejoin="round"/>
<path d="M26.1697 374.068L29.466 379.342L43.6419 387.914C43.6419 387.914 43.9717 388.903 43.6419 390.881C43.6419 390.881 31.1141 392.2 28.8063 391.871C26.4984 391.541 20.8943 390.553 18.9163 389.893C16.9382 389.233 8.69636 387.255 5.72879 387.255C2.76123 387.255 0.454489 382.639 1.11308 380.002C1.77279 377.364 3.7508 373.078 3.7508 373.078L26.1697 374.068Z" fill="#191A19" stroke="#191A19" stroke-miterlimit="10" stroke-linecap="round" stroke-linejoin="round"/>
<path d="M67.8024 107.12L65.1247 119.751L75.7011 187.32L71.6751 196.459L63.4244 186.977L61.5086 120.004L54.3906 111.782L62.4248 99.449L67.8024 107.12Z" fill="#439037"/>
<path d="M71.4949 103.79L73.7761 113.237L66.626 109.06L71.4949 103.79Z" fill="#CCCDCB" stroke="#191A19" stroke-miterlimit="10"/>
<path d="M62.7969 114.327L71.4952 103.79L65.1403 96.709L62.7969 114.327Z" fill="#CCCDCB" stroke="#191A19" stroke-miterlimit="10"/>
<path d="M69.0161 51.4547C69.0161 51.4547 76.967 61.4936 76.5006 62.9651C76.0341 64.4378 75.8664 67.4576 75.8664 67.4576C75.8664 67.4576 82.3513 72.4209 81.9826 73.7159C81.6138 75.0109 77.9344 77.7085 77.9344 77.7085C77.9344 77.7085 78.4319 94.3567 76.5328 95.4995C74.6336 96.6423 70.4333 95.4773 70.4333 95.4773L62.7978 114.326L55.7887 104.461L44.8114 92.1754L45.5833 87.643L44.6881 82.9973C44.6881 82.9973 38.9917 79.7376 36.816 73.2328C34.6403 66.7279 36.213 54.2512 36.6217 53.0928C37.0304 51.9345 49.6648 46.1915 54.5204 43.4527C59.376 40.7128 61.1807 40.7872 61.8516 42.0789C62.5224 43.3716 61.9371 37.7442 64.4304 38.6593C66.9237 39.5744 68.3431 42.4332 68.0321 43.415C67.7212 44.3967 72.5923 40.1664 73.2653 42.4987C73.9395 44.8321 72.4635 50.0142 69.0161 51.4547Z" fill="white" stroke="#191A19" stroke-miterlimit="10"/>
<path d="M55.2599 90.7937C52.9198 88.3492 50.3432 71.7055 49.3015 70.6693C48.2586 69.6331 44.4525 68.8002 42.7544 71.6678C41.0562 74.5354 42.8321 78.6291 44.9356 80.2517C47.038 81.8732 48.5895 82.6151 48.5895 82.6151L44.4814 82.8717C43.4596 82.2297 38.7506 79.019 36.817 73.2338C34.6413 66.7289 36.214 54.2522 36.6227 53.0938C37.0314 51.9355 49.6657 46.1925 54.5213 43.4537C59.377 40.7138 61.1817 40.7882 61.8525 42.0799C62.5233 43.3726 61.938 37.7451 64.4314 38.6603C66.9247 39.5754 68.3441 42.4341 68.0331 43.4159C67.7221 44.3977 72.5933 40.1674 73.2663 42.4997C73.9394 44.832 72.4634 50.013 69.016 51.4546C69.016 51.4546 56.707 54.1167 56.7715 55.8815C56.8348 57.6462 61.4316 60.1829 60.8674 61.8322C60.3032 63.4814 54.1426 69.421 54.1426 69.421L56.9791 80.787C56.9791 80.787 57.3934 81.7078 59.116 80.4672C60.8385 79.2266 64.9023 73.7446 68.1786 74.2844C71.4549 74.8242 77.9354 77.7084 77.9354 77.7084C77.9354 77.7084 78.4329 94.3565 76.5338 95.4994C74.6346 96.6422 70.4343 95.4772 70.4343 95.4772C70.4343 95.4772 57.6 93.2393 55.2599 90.7937Z" fill="#191A19" stroke="#191A19" stroke-miterlimit="10"/>
<path d="M70.6906 68.5804C70.9427 69.4511 71.4225 70.0775 71.7634 69.9797C72.1044 69.8809 72.1766 69.0957 71.9256 68.2239C71.6735 67.3531 71.1937 66.7268 70.8527 66.8245C70.5118 66.9233 70.4396 67.7097 70.6906 68.5804Z" fill="#191A19"/>
<path d="M73.543 64.5622C73.543 64.5622 71.0441 61.5691 68.1299 64.3423" stroke="#191A19" stroke-miterlimit="10"/>
<path d="M74.43 80.5039L69.0868 77.4397C69.0868 77.4397 68.9269 83.5781 71.0093 84.612C73.0917 85.646 74.43 80.5039 74.43 80.5039Z" fill="white" stroke="#191A19" stroke-miterlimit="10"/>
<path d="M60.7989 107.919L62.7969 114.327L56.4697 109.912L60.7989 107.919Z" fill="#CCCDCB" stroke="#191A19" stroke-miterlimit="10"/>
<path d="M44.8847 90.3718L60.7987 107.92L53.6308 118.607L39.707 97.6619L44.8847 90.3718Z" fill="#CCCDCB" stroke="#191A19" stroke-miterlimit="10"/>
<path d="M103.949 153.664L90.5547 155.235L85.7646 128.876L102.506 126.91L103.949 153.664Z" fill="#439037" stroke="#191A19" stroke-miterlimit="10" stroke-linecap="round" stroke-linejoin="round"/>
<path d="M88.1471 141.99L102.695 130.429L102.505 126.91L101.638 127.012L87.4707 138.272L88.1471 141.99Z" fill="white" stroke="#191A19" stroke-miterlimit="10" stroke-linecap="round" stroke-linejoin="round"/>
<path d="M103.465 144.709L90.5176 155.032L90.5542 155.235L96.4794 154.54L103.686 148.794L103.465 144.709Z" fill="white" stroke="#191A19" stroke-miterlimit="10" stroke-linecap="round" stroke-linejoin="round"/>
<path d="M103.163 139.129L102.938 134.948L89.0186 146.787L89.7071 150.575L103.163 139.129Z" fill="white" stroke="#191A19" stroke-miterlimit="10" stroke-linecap="round" stroke-linejoin="round"/>
<path d="M102.487 127.717L86.0206 129.65C85.4986 129.711 85.0266 129.338 84.9655 128.816C84.9044 128.294 85.2776 127.822 85.7996 127.76L102.266 125.827C102.788 125.766 103.26 126.139 103.322 126.661C103.382 127.183 103.009 127.655 102.487 127.717Z" fill="white" stroke="#191A19" stroke-miterlimit="10" stroke-linecap="round" stroke-linejoin="round"/>
<path d="M48.397 165.065L78.9212 161.809C78.9212 161.809 81.0558 154.304 80.7692 148.801C80.4827 143.297 82.6073 138.024 83.5591 137.607C84.512 137.191 94.9163 132.301 96.2657 133.037C97.6151 133.775 100.042 134.919 99.3765 136.579C98.7112 138.239 94.4764 136.923 94.4764 136.923C94.4764 136.923 89.3076 140.082 88.7768 140.335C88.2459 140.588 94.5964 138.861 95.7637 139.378C96.9309 139.894 104.297 140.292 105.148 141.996C106 143.699 104.736 144.188 104.736 144.188C104.736 144.188 106.115 146.753 104.21 147.585C102.305 148.418 97.8827 147.996 97.1697 148.031C96.4567 148.064 91.8332 151.883 91.1923 152.228C90.5515 152.572 96.8687 150.132 97.9638 150.337C99.06 150.543 103.224 151.548 103.348 152.371C103.472 153.194 100.544 154.132 99.5197 154.238C98.4958 154.343 95.165 155.243 95.165 155.243L91.1979 159.631C91.1979 159.631 89.7286 165.474 87.9483 167.13C86.1679 168.786 84.4454 169.839 84.0044 170.202C83.5646 170.565 60.8892 176.598 59.4243 177.067C57.9594 177.535 45.7471 182.254 45.7471 182.254L48.397 165.065Z" fill="white" stroke="#191A19" stroke-miterlimit="10"/>
<path d="M87.7793 146.528C87.7793 146.528 93.499 142.915 95.106 143.068C96.7142 143.222 104.735 144.189 104.735 144.189" stroke="#191A19" stroke-miterlimit="10"/>
<path d="M88.7752 140.335L86.0664 141.092" stroke="#191A19" stroke-miterlimit="10"/>
<path d="M45.2387 130.502C45.2387 130.502 47.4611 135.038 46.3793 140.005C45.2976 144.973 43.1186 164.055 43.1186 164.055L34.9922 183.359C34.9922 183.359 18.4007 181.88 16.6681 180.904C14.9356 179.928 15.5964 175.123 16.0462 172.529C16.496 169.935 14.297 141.082 14.9744 133.343C15.6519 125.605 16.074 122.86 19.4613 119.184" fill="white"/>
<path d="M45.2387 130.502C45.2387 130.502 47.4611 135.038 46.3793 140.005C45.2976 144.973 43.1186 164.055 43.1186 164.055L34.9922 183.359C34.9922 183.359 18.4007 181.88 16.6681 180.904C14.9356 179.928 15.5964 175.123 16.0462 172.529C16.496 169.935 14.297 141.082 14.9744 133.343C15.6519 125.605 16.074 122.86 19.4613 119.184" stroke="#191A19" stroke-miterlimit="10"/>
<path d="M35.5576 162.523C35.5576 162.523 25.3067 165.806 24.8857 165.968" stroke="#191A19" stroke-miterlimit="10"/>
<path d="M21.3682 159.244C21.3682 159.244 35.6196 160.805 36.5869 161.302" stroke="#191A19" stroke-miterlimit="10"/>
<path d="M20.0234 148.874L38.8695 161.824" stroke="#191A19" stroke-miterlimit="10"/>
<path d="M38.8692 161.824C38.8692 161.824 50.1109 161.983 50.283 164.433C50.4552 166.883 48.0762 184.404 47.4354 184.749C46.7946 185.093 34.5811 185.553 33.5616 184.542C32.542 183.533 35.2608 163.509 35.5585 162.523C35.8539 161.537 38.8692 161.824 38.8692 161.824Z" fill="white" stroke="#191A19" stroke-miterlimit="10"/>
</svg>
