<svg width="528" height="394" viewBox="0 0 528 394" fill="none" xmlns="http://www.w3.org/2000/svg">
<rect width="528" height="394" fill="white"/>
<path d="M382.674 239.593C382.674 239.593 373.17 246.783 371.24 251.529C369.309 256.275 365.597 262.315 365.597 262.315L373.764 271.949L376.289 270.511C376.289 270.511 383.268 261.164 385.05 251.673C386.831 242.181 383.862 237.867 382.674 239.593Z" fill="white" stroke="#191A19" stroke-miterlimit="10" stroke-linejoin="round"/>
<path d="M371.773 299.338C371.773 299.338 366.243 335.439 367.267 352.1C368.291 368.762 372.388 393.953 372.388 393.953H441.412C441.412 393.953 448.171 356.464 448.171 334.248C448.171 312.032 448.376 307.47 448.376 307.47C448.376 307.47 429.328 311.04 418.882 310.247C408.435 309.454 371.773 299.338 371.773 299.338Z" fill="#191A19"/>
<path d="M376.484 334.446L380.785 339.008L386.11 393.755" stroke="#191A19" stroke-miterlimit="10" stroke-linejoin="round"/>
<path d="M411.166 315.609C411.166 315.609 410.893 321.752 413.966 325.521C417.038 329.29 421.749 330.48 421.749 330.48" stroke="#191A19" stroke-miterlimit="10" stroke-linejoin="round"/>
<path d="M423.566 351.333L423.797 393.357" stroke="#191A19" stroke-miterlimit="10" stroke-linejoin="round"/>
<path d="M423.388 318.578L423.541 346.479" stroke="#191A19" stroke-miterlimit="10" stroke-linejoin="round"/>
<path d="M376.395 326.565L375.869 330.876" stroke="#191A19" stroke-miterlimit="10" stroke-linejoin="round"/>
<path d="M378.531 309.057L376.789 323.338" stroke="#191A19" stroke-miterlimit="10" stroke-linejoin="round"/>
<path d="M403.323 202.397C403.323 202.397 396.67 210.451 393.819 216.434C390.967 222.417 380.988 235.993 379.325 245.658C377.662 255.323 375.523 269.129 375.523 269.129C375.523 269.129 369.82 300.884 371.009 303.185C372.197 305.487 398.808 313.54 411.164 315.611C423.519 317.681 433.261 317.912 438.963 315.611C444.666 313.309 454.17 310.549 453.22 305.946C452.27 301.344 451.082 296.512 451.082 296.512C451.082 296.512 448.943 242.896 448.943 237.834C448.943 232.772 448.705 211.372 444.666 202.628C440.627 193.885 438.726 191.813 438.726 191.813L403.323 202.397Z" fill="white" stroke="#191A19" stroke-miterlimit="10" stroke-linejoin="round"/>
<path d="M410.453 189.281L401.662 192.272L395.246 205.618L403.325 202.397L406.414 204.468L414.255 197.795L410.453 189.281Z" fill="#CCCDCB" stroke="#191A19" stroke-miterlimit="10" stroke-linejoin="round"/>
<path d="M406.93 126.697C406.93 126.697 401.276 133.216 399.93 137.127C398.583 141.039 397.775 144.428 393.199 146.254C388.622 148.078 385.121 147.557 385.121 149.904C385.121 152.251 389.16 155.38 389.16 155.38C389.16 155.38 388.352 169.459 389.429 173.631C390.506 177.803 392.929 178.846 394.545 178.846C396.16 178.846 405.853 177.803 405.853 177.803L411.776 194.23L435.738 184.843L433.315 171.805C433.315 171.805 439.238 162.679 439.777 158.247C440.315 153.814 436.007 140.256 426.853 133.216C417.7 126.175 410.699 124.872 406.93 126.697Z" fill="white" stroke="#191A19" stroke-miterlimit="10" stroke-linejoin="round"/>
<path d="M394.123 160.464C394.123 160.464 398.548 162.204 402.973 158.857" stroke="#191A19" stroke-miterlimit="10" stroke-linejoin="round"/>
<path d="M405.853 177.802L414.863 176.532L407.396 181.621L405.853 177.802Z" fill="#191A19" stroke="#191A19" stroke-miterlimit="10" stroke-linejoin="round"/>
<path d="M409.191 146.429C407.842 151.094 403.501 153.994 399.493 152.908C395.485 151.821 393.329 147.159 394.677 142.494C396.025 137.829 400.367 134.928 404.376 136.015C408.382 137.102 410.539 141.764 409.191 146.429Z" stroke="#191A19" stroke-miterlimit="10" stroke-linejoin="round"/>
<path d="M409.193 147.34L424.698 151.989" stroke="#191A19" stroke-miterlimit="10" stroke-linejoin="round"/>
<path d="M402.24 145.129C401.861 146.37 401.139 147.257 400.626 147.111C400.113 146.964 400.005 145.839 400.383 144.598C400.762 143.357 401.484 142.47 401.997 142.616C402.51 142.763 402.619 143.887 402.24 145.129Z" fill="#191A19"/>
<path d="M402.279 137.431C402.279 137.431 405.044 137.298 406.288 139.44" stroke="#191A19" stroke-miterlimit="10" stroke-linejoin="round"/>
<path d="M427.93 112.096C427.93 112.096 424.699 104.534 412.583 106.36C400.467 108.184 401.813 125.654 405.852 131.651C409.891 137.648 419.852 144.166 419.852 144.166C419.852 144.166 420.39 147.556 421.468 150.163C422.545 152.77 424.698 151.988 424.698 151.988C424.698 151.988 428.468 155.638 430.083 162.418C431.698 169.197 428.737 173.369 436.814 174.933C444.892 176.497 449.738 173.89 451.622 169.718C453.506 165.546 454.853 162.157 455.122 161.114C455.391 160.071 468.584 151.467 466.699 138.169C464.813 124.871 455.391 116.006 445.429 112.877C435.467 109.749 427.93 112.096 427.93 112.096Z" fill="#191A19" stroke="#191A19" stroke-miterlimit="10" stroke-linejoin="round"/>
<path d="M421.199 155.639C421.199 155.639 427.93 144.949 431.43 149.643C434.931 154.335 434.661 159.811 430.084 162.418C425.507 165.026 421.737 164.765 421.737 164.765" fill="white"/>
<path d="M421.199 155.639C421.199 155.639 427.93 144.949 431.43 149.643C434.931 154.335 434.661 159.811 430.084 162.418C425.507 165.026 421.737 164.765 421.737 164.765" stroke="#191A19" stroke-miterlimit="10" stroke-linejoin="round"/>
<path d="M460.776 124.611C460.776 124.611 453.507 120.178 456.738 107.663C459.968 95.1476 471.007 93.0613 470.469 96.4514C469.931 99.8405 466.969 104.012 466.969 104.012C466.969 104.012 487.43 94.1044 496.047 101.144C504.662 108.184 506.277 125.914 500.893 131.651C495.508 137.387 480.161 134.779 480.161 134.779C480.161 134.779 485.815 138.43 480.161 139.472C474.507 140.516 462.392 131.911 460.776 124.611Z" fill="#191A19" stroke="#191A19" stroke-miterlimit="10" stroke-linejoin="round"/>
<path d="M436.352 181.227L404.987 194.342L405.7 210.68L441.342 192.272L436.352 181.227Z" fill="#CCCDCB" stroke="#191A19" stroke-miterlimit="10" stroke-linejoin="round"/>
<path d="M420.432 209.53C420.432 209.53 417.581 211.371 413.066 222.646C408.551 233.921 400.711 275.11 400.473 276.49C400.235 277.871 389.305 284.084 386.691 284.774C384.078 285.465 349.15 283.623 349.15 283.623C349.15 283.623 346.536 284.314 346.536 288.225C346.536 292.136 347.249 294.208 348.675 295.128C350.1 296.049 354.615 295.358 354.615 295.358C354.615 295.358 389.543 309.625 400.948 310.315C412.353 311.006 426.609 312.156 433.737 299.04C440.866 285.924 449.894 247.266 449.894 229.087C449.894 210.908 447.518 198.252 434.925 201.474" fill="white"/>
<path d="M420.432 209.53C420.432 209.53 417.581 211.371 413.066 222.646C408.551 233.921 400.711 275.11 400.473 276.49C400.235 277.871 389.305 284.084 386.691 284.774C384.078 285.465 349.15 283.623 349.15 283.623C349.15 283.623 346.536 284.314 346.536 288.225C346.536 292.136 347.249 294.208 348.675 295.128C350.1 296.049 354.615 295.358 354.615 295.358C354.615 295.358 389.543 309.625 400.948 310.315C412.353 311.006 426.609 312.156 433.737 299.04C440.866 285.924 449.894 247.266 449.894 229.087C449.894 210.908 447.518 198.252 434.925 201.474" stroke="#191A19" stroke-miterlimit="10" stroke-linejoin="round"/>
<path d="M402.137 276.721C402.137 276.721 406.889 269.818 408.315 261.304" stroke="#191A19" stroke-miterlimit="10" stroke-linejoin="round"/>
<path d="M353.867 272.525C353.867 272.525 363.668 275.545 365.598 275.545C367.529 275.545 369.905 273.1 370.944 270.368C371.983 267.635 373.419 267.871 372.675 266.433C371.933 264.995 367.485 260.617 365.554 261.192C363.624 261.767 361.291 265.19 360.846 265.766C360.4 266.341 353.867 272.525 353.867 272.525Z" fill="white" stroke="#191A19" stroke-miterlimit="10" stroke-linejoin="round"/>
<path d="M354.163 261.739C354.163 261.739 347.926 262.027 347.629 262.746C347.332 263.464 345.698 272.237 346.441 273.388C347.183 274.538 347.926 274.538 348.668 272.957C349.41 271.375 350.746 265.91 350.746 265.91L354.013 265.479L354.163 261.739Z" fill="white" stroke="#191A19" stroke-miterlimit="10" stroke-linejoin="round"/>
<path d="M353.718 258.432C353.718 258.432 350.897 263.609 350.749 265.909C350.601 268.21 351.046 274.825 351.937 275.256C352.828 275.687 354.313 275.832 354.461 274.969C354.609 274.105 354.461 268.354 354.461 268.354C354.461 268.354 357.283 262.746 357.728 260.876C358.173 259.007 354.757 257.281 353.718 258.432Z" fill="white" stroke="#191A19" stroke-miterlimit="10" stroke-linejoin="round"/>
<path d="M357.728 260.876C357.728 260.876 354.015 267.06 354.461 268.354C354.906 269.648 354.313 275.832 354.906 276.264C355.5 276.695 356.391 276.695 357.133 275.976C357.876 275.257 357.876 273.1 358.173 272.237C358.47 271.374 358.618 268.211 358.618 268.211C358.618 268.211 363.667 264.184 363.815 261.883C363.964 259.582 359.509 258.576 357.728 260.876Z" fill="white" stroke="#191A19" stroke-miterlimit="10" stroke-linejoin="round"/>
<path d="M367.825 261.021C367.825 261.021 371.538 263.609 372.577 265.622C373.616 267.635 374.507 269.793 373.765 271.95C373.023 274.107 368.419 275.977 367.974 278.422C367.529 280.866 364.855 280.579 364.855 277.991C364.855 275.402 367.528 269.506 367.528 269.506" fill="white"/>
<path d="M367.825 261.021C367.825 261.021 371.538 263.609 372.577 265.622C373.616 267.635 374.507 269.793 373.765 271.95C373.023 274.107 368.419 275.977 367.974 278.422C367.529 280.866 364.855 280.579 364.855 277.991C364.855 275.402 367.528 269.506 367.528 269.506" stroke="#191A19" stroke-miterlimit="10" stroke-linejoin="round"/>
<path d="M367.676 265.765L362.033 272.812C362.033 272.812 361.588 276.263 360.697 277.27C359.806 278.276 358.47 278.276 357.727 277.557C356.985 276.839 359.213 269.792 358.619 268.21C358.024 266.628 363.815 261.882 363.815 261.882C363.815 261.882 364.707 260.013 366.488 260.444C368.27 260.875 368.863 263.32 368.863 263.32" fill="white"/>
<path d="M367.676 265.765L362.033 272.812C362.033 272.812 361.588 276.263 360.697 277.27C359.806 278.276 358.47 278.276 357.727 277.557C356.985 276.839 359.213 269.792 358.619 268.21C358.024 266.628 363.815 261.882 363.815 261.882C363.815 261.882 364.707 260.013 366.488 260.444C368.27 260.875 368.863 263.32 368.863 263.32" stroke="#191A19" stroke-miterlimit="10" stroke-linejoin="round"/>
<path d="M300 227.791L311.596 276.211L354.942 285.417L344.486 233.498L300 227.791Z" fill="#191A19" stroke="#191A19" stroke-miterlimit="10" stroke-linejoin="round"/>
<path d="M354.942 285.417L386.692 284.775L353.61 277.869L354.942 285.417Z" fill="#191A19" stroke="#191A19" stroke-miterlimit="10" stroke-linejoin="round"/>
<path d="M314.219 274.682C314.219 274.682 315.704 281.728 316.595 282.735C317.486 283.741 323.574 284.604 323.574 284.604L314.219 274.682Z" fill="white" stroke="#191A19" stroke-miterlimit="10" stroke-linejoin="round"/>
<path d="M325.8 285.324C325.8 285.324 319.712 282.736 319.118 282.304C318.524 281.872 314.366 275.832 314.217 274.682C314.069 273.531 315.108 273.388 316.445 274.106C317.781 274.825 320.157 277.99 320.157 277.99L322.533 281.585L325.8 285.324Z" fill="white" stroke="#191A19" stroke-miterlimit="10" stroke-linejoin="round"/>
<path d="M328.622 280.002C328.622 280.002 326.549 280.118 325.207 278.564C323.084 276.105 321.216 271.424 320.306 270.366C318.821 268.64 318.523 272.668 319.712 275.399C320.9 278.132 322.087 282.158 324.166 283.597C326.245 285.035 330.404 289.493 331.888 289.78C333.373 290.068 346.44 289.637 346.44 289.637C346.44 289.637 345.995 287.767 346.44 286.329C346.885 284.891 347.48 283.884 347.48 283.884L328.622 280.002Z" fill="white" stroke="#191A19" stroke-miterlimit="10" stroke-linejoin="round"/>
<path d="M332.928 287.912C332.928 287.912 329.216 282.879 329.216 281.584C329.216 280.29 329.81 269.792 331.443 270.798C333.076 271.805 333.226 273.818 333.226 275.976C333.226 278.133 333.671 281.44 333.671 281.44L336.195 284.173" fill="white"/>
<path d="M332.928 287.912C332.928 287.912 329.216 282.879 329.216 281.584C329.216 280.29 329.81 269.792 331.443 270.798C333.076 271.805 333.226 273.818 333.226 275.976C333.226 278.133 333.671 281.44 333.671 281.44L336.195 284.173" stroke="#191A19" stroke-miterlimit="10" stroke-linejoin="round"/>
<path d="M137.999 271.549C202.999 263.078 194.499 219.73 250.612 191.58" stroke="#439037" stroke-width="4" stroke-linejoin="round"/>
<path d="M252.562 199.497L260.64 186.065L244.703 186.108L252.562 199.497Z" fill="#439037"/>
<path d="M174.2 41.1348C182.703 56.7199 193.395 71.1546 206.39 83.4839C227.466 103.481 254.375 114.577 279.651 128.578C289.445 134.002 297.014 143.15 301.771 150.133" stroke="#439037" stroke-width="4" stroke-linejoin="round"/>
<path d="M293.613 152.266L307.491 159.732L307.34 144.25L293.613 152.266Z" fill="#439037"/>
<path d="M348.5 11.4599C346 37.3691 302.5 47.8325 313.751 92.5817" stroke="#439037" stroke-width="4" stroke-linejoin="round"/>
<path d="M305.588 92.8235L317.382 103.113L320.77 87.9467L305.588 92.8235Z" fill="#439037"/>
<path d="M8.5 93.1738C28.5 116.592 54.0005 106.073 85.0311 115.193" stroke="#439037" stroke-width="4" stroke-linejoin="round"/>
<path d="M80.9732 122.544L96.1721 117.726L84.4226 107.388L80.9732 122.544Z" fill="#439037"/>
</svg>
