<svg width="528" height="394" viewBox="0 0 528 394" fill="none" xmlns="http://www.w3.org/2000/svg">
<g clip-path="url(#clip0_587_5214)">
<path d="M568.677 326.703C546.932 324.011 526.314 316.641 508.178 305.397C507.734 304.83 507.288 304.244 506.843 303.635C506.843 303.635 486.003 289.742 475.9 263.22C465.796 236.697 479.057 204.491 474.637 186.178C470.216 167.865 455.06 191.23 454.429 193.756C453.797 196.282 450.008 181.126 465.164 156.498C475.472 139.747 480.32 127.449 472.742 124.292C467.117 121.947 451.404 136.669 442.387 164.557C448.14 136.251 463.522 114.625 480.373 113.538C505.351 111.926 515.019 161.881 514.214 124.819C513.409 87.7548 481.179 79.6976 448.95 90.9781C416.721 102.259 399.8 148.185 399.8 148.185C390.131 177.19 372.405 216.671 354.679 258.569C354.236 259.616 353.783 260.653 353.321 261.68C335.703 300.769 296.281 325.444 253.406 325.444H-282.978L-283 444H568.832L568.677 326.703Z" fill="#EEF8ED"/>
<path d="M453.709 258.66C465.702 264.11 457.65 324.711 568.803 349.156L568.676 326.703C546.931 324.011 526.313 316.641 508.177 305.397C507.733 304.83 507.287 304.244 506.842 303.635C506.842 303.635 486.002 289.742 475.899 263.22C465.795 236.697 479.056 204.491 474.636 186.178C470.215 167.864 455.059 191.23 454.428 193.756C453.796 196.282 450.007 181.126 465.163 156.498C475.471 139.747 480.319 127.449 472.741 124.292C467.116 121.947 451.403 136.669 442.386 164.557C448.139 136.251 463.521 114.625 480.372 113.538C505.35 111.926 515.018 161.881 514.213 124.819C513.408 87.7548 481.178 79.6976 448.949 90.9781C416.72 102.259 399.799 148.185 399.799 148.185C390.13 177.19 372.404 216.671 354.678 258.569C354.235 259.616 353.782 260.653 353.32 261.68C335.702 300.768 296.28 325.444 253.405 325.444H171.714C182.708 327.391 243.719 342.005 306.046 323.729C340.13 313.734 376.662 247.992 387.331 236.139C397.998 224.286 377.848 266.958 386.145 275.254C394.442 283.551 426.446 178.059 435.928 189.912C445.411 201.765 430.002 226.657 430.002 252.733C430.002 278.809 440.669 303.701 453.708 303.701C466.748 303.701 440.67 252.733 453.709 258.66Z" fill="white"/>
<path d="M568.676 326.703C546.932 324.011 526.314 316.641 508.178 305.397C507.734 304.83 502.713 301.278 502.268 300.67C502.268 300.67 486.003 289.742 475.899 263.22C465.796 236.697 479.057 204.491 474.636 186.178C470.216 167.864 455.06 191.23 454.429 193.756C453.797 196.282 450.008 181.126 465.164 156.498C475.472 139.747 480.32 127.449 472.742 124.292C467.116 121.947 451.404 136.669 442.387 164.557C448.14 136.251 463.522 114.625 480.373 113.538C505.351 111.926 515.019 161.881 514.214 124.819C513.408 87.7548 481.178 79.6976 448.95 90.9781C416.721 102.259 399.8 148.185 399.8 148.185C390.131 177.19 372.405 216.671 354.679 258.569C354.236 259.616 353.783 260.653 353.321 261.68C335.703 300.768 296.281 325.444 253.405 325.444H-282.979" stroke="#323332" stroke-miterlimit="10"/>
<path d="M491.834 67.0088C477.392 60.3884 456.453 84.9597 456.453 84.9597C456.453 84.9597 468.005 83.1947 478.186 81.4638C488.368 79.7329 500.369 70.9216 491.834 67.0088Z" fill="white" stroke="#323332" stroke-miterlimit="10" stroke-linecap="round" stroke-linejoin="round"/>
<path d="M517.823 81.6546C525.157 81.2684 532.876 73.5497 521.683 72.0061C510.49 70.4626 500.455 80.4972 500.455 80.4972C500.455 80.4972 510.49 82.0407 517.823 81.6546Z" fill="white" stroke="#323332" stroke-miterlimit="10" stroke-linecap="round" stroke-linejoin="round"/>
<path d="M333.502 27.1315L359.695 50.4774L368.996 44.2136L338.247 21.0574L333.502 27.1315Z" fill="white" stroke="#191A19" stroke-miterlimit="10" stroke-linecap="round" stroke-linejoin="round"/>
<path d="M359.696 50.4774L377.538 97.1692L386.838 90.8974L368.997 44.2136L359.696 50.4774Z" fill="white" stroke="#191A19" stroke-miterlimit="10" stroke-linecap="round" stroke-linejoin="round"/>
<path d="M377.537 97.1692L344.315 56.5516L333.502 27.1316L359.695 50.4775L377.537 97.1692Z" fill="#191A19" stroke="#191A19" stroke-miterlimit="10" stroke-linecap="round" stroke-linejoin="round"/>
<path d="M327.809 24.6632C327.809 24.6632 335.021 28.6486 338.628 29.7878C342.234 30.927 348.119 29.7878 349.827 28.6487C351.535 27.5095 354.762 23.7137 353.623 23.1447C352.483 22.5757 349.636 23.7137 349.636 23.7137C349.636 23.7137 352.103 17.6396 351.344 16.8809C350.585 16.1222 340.525 7.01098 339.006 7.58001C337.488 8.14903 331.003 18.7186 329.12 18.4642C327.237 18.2097 327.237 18.2097 327.237 18.2097C327.237 18.2097 328.528 22.7403 327.809 24.6632Z" fill="white" stroke="#191A19" stroke-miterlimit="10" stroke-linecap="round" stroke-linejoin="round"/>
<path d="M346.219 17.2615C346.219 17.2615 340.145 18.78 339.766 23.1459" stroke="#191A19" stroke-miterlimit="10" stroke-linecap="round" stroke-linejoin="round"/>
<path d="M340.715 20.8675C340.715 20.8675 347.927 28.2705 349.256 30.7375C350.585 33.2044 350.774 36.8116 352.103 37.1909C353.432 37.5703 354.381 35.8621 353.811 33.9642C353.242 32.0663 353.812 31.4961 351.914 28.4602C350.016 25.4231 343.373 18.78 343.373 18.78C343.373 18.78 341.664 18.5903 340.715 20.8675Z" fill="#191A19" stroke="#191A19" stroke-miterlimit="10" stroke-linecap="round" stroke-linejoin="round"/>
<path d="M436.1 97.4179C436.1 97.4179 428.012 145.369 408.947 195.632C389.882 245.895 371.973 281.135 352.33 298.467C332.687 315.799 330.954 302.512 339.042 291.535C347.13 280.557 362.729 261.493 378.906 229.141C395.081 196.787 432.057 90.4851 436.1 97.4179Z" fill="#191A19" stroke="#191A19" stroke-miterlimit="10" stroke-linecap="round" stroke-linejoin="round"/>
<path d="M335.49 276.536C335.49 276.536 347.366 291.752 351.078 289.897C354.789 288.041 355.902 272.082 352.191 260.948C348.479 249.815 335.49 276.536 335.49 276.536Z" fill="#439037" stroke="#191A19" stroke-miterlimit="10" stroke-linejoin="round"/>
<path d="M437.18 39.7533C437.18 39.7533 391.531 159.629 368.149 200.825C344.768 242.02 317.676 264.288 315.82 273.195C313.964 282.102 316.933 292.866 321.386 293.979C325.84 295.092 358.87 266.514 389.303 211.959C419.736 157.402 435.695 107.67 440.52 72.784C445.345 37.8975 443.489 31.5894 437.18 39.7533Z" fill="#439037" stroke="#191A19" stroke-miterlimit="10" stroke-linejoin="round"/>
<path d="M253.923 162.818C253.923 162.818 275.849 168.995 290.363 171.156C304.877 173.317 307.039 173.935 307.039 173.935C307.039 173.935 308.274 181.964 316.921 193.082C325.568 204.199 332.671 218.713 332.671 218.713C332.671 218.713 331.744 220.875 333.289 223.963C334.832 227.051 338.538 232.3 340.083 234.154C341.626 236.006 343.171 241.566 346.259 240.33C349.347 239.095 358.612 225.198 360.464 223.346C362.317 221.494 367.259 214.081 367.259 210.684C367.259 207.287 363.244 211.302 360.464 212.537C357.685 213.771 349.347 215.934 349.347 215.934C349.347 215.934 348.729 210.375 347.186 208.831C345.642 207.286 344.407 206.669 343.171 203.581C341.935 200.493 330.509 162.818 325.569 156.024C320.628 149.23 300.863 142.746 300.863 142.746C300.863 142.746 279.863 158.494 253.923 162.818Z" fill="#191A19" stroke="#191A19" stroke-miterlimit="10" stroke-linecap="round" stroke-linejoin="round"/>
<path d="M221.188 144.907C221.188 144.907 231.997 163.436 250.526 165.906C269.055 168.377 319.391 136.26 323.096 135.643C326.802 135.025 338.228 145.216 349.036 149.23C359.844 153.245 370.93 155.893 370.93 155.893C370.93 155.893 379.608 158.185 381.77 159.111C383.932 160.038 390.726 160.655 390.726 160.655C390.726 160.655 393.196 163.743 396.593 162.816C399.99 161.889 408.019 144.287 408.637 140.273C409.255 136.258 408.019 127.302 404.622 130.7C401.225 134.097 399.372 140.273 396.593 142.126C393.814 143.978 391.344 145.214 391.344 145.214C391.344 145.214 385.476 141.817 383.932 142.126C382.388 142.434 377.446 143.361 377.446 143.361C377.446 143.361 356.447 125.45 347.182 119.583C337.918 113.715 324.331 103.524 319.698 104.76C315.066 105.995 286.964 110.936 267.817 118.347C248.673 125.76 221.188 144.907 221.188 144.907Z" fill="#191A19" stroke="#191A19" stroke-miterlimit="10" stroke-linecap="round" stroke-linejoin="round"/>
<path d="M298.605 148.732L302.095 147.255" stroke="white" stroke-miterlimit="10" stroke-linecap="round" stroke-linejoin="round"/>
<path d="M267.695 161.819L294.29 150.56" stroke="white" stroke-miterlimit="10" stroke-linecap="round" stroke-linejoin="round"/>
<path d="M220.612 39.6419C220.612 39.6419 192.761 73.8764 184.636 86.3518C176.513 98.8272 168.389 133.933 167.809 149.889C167.228 165.846 171 177.451 171 177.451L182.315 174.84C182.315 174.84 181.735 150.47 189.858 134.512C197.309 119.875 209.006 108.401 209.006 108.401C209.006 108.401 211.906 135.093 214.518 141.474C217.129 147.857 223.689 149.937 233.666 142.925C237.089 140.519 246.693 131.741 257.166 124.938C267.386 118.298 269.092 120.748 268.771 113.332C268.428 105.42 261.384 106.857 262.969 75.0361C263.835 57.628 264.71 38.48 264.71 38.48C264.71 38.48 274.574 30.6465 294.013 25.715C313.452 20.7823 324.186 27.4561 327.087 26.585C329.987 25.715 330.859 20.7823 329.118 18.4631C325.139 13.1567 317.188 10.0413 311.129 8.01619C281.437 -1.90254 236.446 1.40029 222.365 34.7308C221.691 36.3345 221.107 37.9757 220.612 39.6419Z" fill="white" stroke="#191A19" stroke-miterlimit="10" stroke-linecap="round" stroke-linejoin="round"/>
<path d="M221.773 96.7964L209.007 108.402L220.612 103.179" fill="white"/>
<path d="M221.773 96.7964L209.007 108.402L220.612 103.179" stroke="#191A19" stroke-miterlimit="10" stroke-linecap="round" stroke-linejoin="round"/>
<path d="M169.55 171.939C169.55 171.939 173.611 166.717 182.316 169.328" stroke="#191A19" stroke-miterlimit="10" stroke-linecap="round" stroke-linejoin="round"/>
<path d="M324.767 14.6909C324.767 14.6909 328.249 20.204 322.156 25.7159" stroke="#191A19" stroke-miterlimit="10" stroke-linecap="round" stroke-linejoin="round"/>
<path d="M240.62 72.4625L250.371 80.2131C250.371 80.2131 250.871 82.463 243.12 83.7135C235.37 84.964 231.118 78.7127 225.118 77.4622C219.118 76.2117 218.367 78.7127 211.866 78.2118C205.365 77.7121 196.614 67.9603 188.363 67.4606C180.112 66.9608 176.861 74.9612 160.11 75.712C143.357 76.4616 135.107 72.7113 135.107 72.7113L124.355 80.4618L135.107 89.4628C135.107 89.4628 145.358 93.2132 155.109 90.7133C164.861 88.2135 182.863 75.7108 190.863 77.7121C198.865 79.7122 203.365 87.4639 210.116 86.963C216.867 86.4632 220.617 81.9622 223.868 82.9628C227.118 83.9634 229.618 88.9631 238.87 88.9631C248.121 88.9631 250.872 85.7125 251.621 83.7124C252.371 81.7123 252.121 79.7122 252.121 79.7122L251.871 64.7097L246.121 63.4592L240.62 72.4625Z" fill="#439037"/>
<path d="M231.691 64.889C232.054 64.345 237.495 80.6695 238.583 79.762C239.671 78.8557 247.471 66.3394 247.471 66.3394C247.471 66.3394 259.804 67.4275 260.349 66.3394C260.893 65.2513 248.016 48.7451 248.016 48.7451L231.691 64.889Z" fill="white" stroke="#191A19" stroke-miterlimit="10" stroke-linecap="round" stroke-linejoin="round"/>
<path d="M236.771 65.0698C236.771 65.0698 249.105 75.227 249.467 73.4132C249.83 71.5994 248.561 54.0051 248.561 53.461C248.56 52.9181 236.771 65.0698 236.771 65.0698Z" fill="white" stroke="#191A19" stroke-miterlimit="10" stroke-linecap="round" stroke-linejoin="round"/>
<path d="M248.56 53.4622L242.319 68.8315L236.771 65.0698L248.56 53.4622Z" fill="#191A19" stroke="#191A19" stroke-miterlimit="10" stroke-linecap="round" stroke-linejoin="round"/>
<path d="M216.428 27.7403C216.428 27.7403 218.318 47.898 220.837 53.3566C223.357 58.8163 229.446 69.1041 234.275 68.4749C239.105 67.8446 248.553 56.087 250.863 51.2577C253.174 46.4283 253.593 43.0687 253.593 43.0687C253.593 43.0687 259.681 36.1394 260.102 31.7303C260.522 27.3212 255.272 26.901 255.272 26.901C255.272 26.901 253.593 20.8121 240.995 19.3424C228.395 17.8715 219.787 22.7009 216.428 27.7403Z" fill="white" stroke="#191A19" stroke-miterlimit="10" stroke-linecap="round" stroke-linejoin="round"/>
<path d="M233.436 5.69253C233.436 5.69253 221.257 2.96326 214.119 10.1016C206.979 17.2411 209.92 21.0198 212.439 21.0198C214.959 21.0198 217.478 20.1794 217.478 20.1794C217.478 20.1794 212.019 23.3289 214.539 27.7379C217.059 32.147 229.447 28.9975 229.447 28.9975L238.896 25.0075C238.896 25.0075 233.436 28.9975 237.846 29.8369C242.255 30.6762 247.084 26.2671 247.084 26.2671C247.084 26.2671 245.405 29.2065 247.924 31.3066C250.444 33.4066 251.494 33.1965 251.494 33.1965C251.494 33.1965 250.234 36.7662 251.914 36.1359C253.594 35.5055 254.014 30.6762 254.014 30.6762C254.014 30.6762 255.484 27.3166 256.743 27.3166C256.743 27.3166 261.572 23.957 259.053 18.0782C256.534 12.1994 250.864 12.1994 250.864 12.1994C250.864 12.1994 237.216 0.440702 233.857 0.0204647C230.496 -0.396365 233.436 5.69253 233.436 5.69253Z" fill="#191A19" stroke="#191A19" stroke-miterlimit="10" stroke-linecap="round" stroke-linejoin="round"/>
<path d="M229.656 39.0786C229.656 39.0786 230.496 40.9685 230.076 45.5877C229.656 50.207 227.976 57.7655 229.656 57.5566C231.336 57.3464 234.485 53.9868 234.485 53.9868" stroke="#191A19" stroke-miterlimit="10" stroke-linecap="round" stroke-linejoin="round"/>
<path d="M239.884 55.0933C239.884 55.0933 238.718 57.8464 236.071 58.27" stroke="#191A19" stroke-miterlimit="10" stroke-linecap="round" stroke-linejoin="round"/>
<path d="M236.812 36.5608C236.812 36.5608 239.988 33.3841 244.754 34.019" stroke="#191A19" stroke-miterlimit="10" stroke-linecap="round" stroke-linejoin="round"/>
<path d="M227.069 36.8787C227.069 36.8787 223.998 32.8547 220.079 33.2783" stroke="#191A19" stroke-miterlimit="10" stroke-linecap="round" stroke-linejoin="round"/>
<path d="M226.962 43.5502C226.962 44.8075 226.441 45.8274 225.797 45.8274C225.154 45.8274 224.632 44.8075 224.632 43.5502C224.632 42.2929 225.153 41.2729 225.797 41.2729C226.441 41.2729 226.962 42.2929 226.962 43.5502Z" fill="#191A19"/>
<path d="M239.248 44.2909C239.248 45.5482 238.726 46.5681 238.082 46.5681C237.439 46.5681 236.917 45.5482 236.917 44.2909C236.917 43.0336 237.438 42.0137 238.082 42.0137C238.726 42.0148 239.248 43.0336 239.248 44.2909Z" fill="#191A19"/>
<path d="M171.217 176.128C171.217 176.128 162.297 189.604 157.741 193.21C153.185 196.817 147.492 199.854 149.579 200.993C151.667 202.132 155.464 199.095 158.12 198.145C160.778 197.196 162.106 196.437 162.106 196.437C162.106 196.437 154.134 204.978 154.513 207.446C154.892 209.914 157.55 208.396 159.258 206.877C160.967 205.359 165.522 198.905 165.522 198.905C165.522 198.905 161.156 210.673 162.106 212.381C163.055 214.089 165.522 211.623 166.092 208.965C166.661 206.307 168.18 200.044 168.18 200.044C168.18 200.044 169.319 209.535 170.457 210.483C171.596 211.433 172.924 210.673 172.924 206.688C172.924 202.702 172.165 198.147 172.545 196.818C172.924 195.489 176.721 189.795 178.238 189.795C178.376 189.795 178.53 189.796 178.697 189.8C181.407 189.845 181.975 190.371 184.644 190.839C187.348 191.314 189.398 191.39 190.385 191.124C195.32 189.795 194.17 188.224 188.298 186.379C184.343 185.136 183.742 184.291 182.794 182.583C180.053 177.65 182.315 174.842 182.315 174.842C182.315 174.842 177.67 170.624 171.217 176.128Z" fill="white" stroke="#191A19" stroke-miterlimit="10" stroke-linecap="round" stroke-linejoin="round"/>
<path d="M163.624 194.16C163.624 194.16 166.092 193.21 169.128 191.313C172.165 189.415 175.392 188.844 175.392 188.844" stroke="#191A19" stroke-miterlimit="10" stroke-linecap="round" stroke-linejoin="round"/>
<path d="M163.815 197.197C163.815 197.197 168.561 199.474 170.838 199.474" stroke="#191A19" stroke-miterlimit="10" stroke-linecap="round" stroke-linejoin="round"/>
</g>
<defs>
<clipPath id="clip0_587_5214">
<rect width="528" height="394" fill="white" transform="translate(0 0.000244141)"/>
</clipPath>
</defs>
</svg>
