<svg width="447" height="540" viewBox="0 0 447 540" fill="none" xmlns="http://www.w3.org/2000/svg">
<ellipse cx="207" cy="464" rx="204" ry="55" fill="#439037" fill-opacity="0.15"/>
<path fill-rule="evenodd" clip-rule="evenodd" d="M5.50934 455.349L4.5 457L4.63586 457.002C4.89664 456.448 5.18796 455.897 5.50934 455.349ZM5.94638 454.633C22.4375 428.719 106.177 409 207 409C317.181 409 406.96 432.55 410.867 461.998L411 462L301.001 1L283.501 0.5L5.94638 454.633Z" fill="#EEF8ED"/>
<path d="M62.8871 512.015C59.6149 497.57 68.5122 483.165 82.8935 479.624L363.485 410.529C378.122 406.925 392.907 415.876 396.498 430.516C400.086 445.144 391.138 459.912 376.51 463.503L95.8709 532.403C81.1093 536.027 66.2452 526.839 62.8871 512.015Z" fill="#439037"/>
<path d="M96.7596 403.058L1.56934 421.612" stroke="#191A19" stroke-width="2" stroke-linecap="round" stroke-linejoin="round"/>
<path d="M445.405 114.747L412.33 121.201" stroke="#191A19" stroke-width="2" stroke-linecap="round" stroke-linejoin="round"/>
<path d="M434.918 218.812L224.37 259.953" stroke="#191A19" stroke-width="2" stroke-linecap="round" stroke-linejoin="round"/>
<path d="M336.339 261.191C336.339 261.191 343.196 264.176 342.389 265.144C341.583 266.031 339.727 266.112 339.001 265.708C338.356 265.386 330.854 260.949 330.854 260.949L336.339 261.191Z" fill="white" stroke="#191A19" stroke-width="2" stroke-linecap="round" stroke-linejoin="round"/>
<path d="M332.467 262.643C332.467 262.643 337.146 267.321 336.178 267.483C335.29 267.644 334 267.725 333.112 267.079C332.225 266.515 329.401 263.369 329.401 263.369L332.467 262.643Z" fill="white" stroke="#191A19" stroke-width="2" stroke-linecap="round" stroke-linejoin="round"/>
<path d="M329.805 265.466C329.805 265.466 332.709 267.321 331.902 268.128C331.096 268.935 328.756 268.047 328.111 267.563C327.546 266.999 326.175 266.353 326.175 266.353L329.805 265.466Z" fill="white" stroke="#191A19" stroke-width="2" stroke-linecap="round" stroke-linejoin="round"/>
<path d="M270.593 230.617L312.219 263.691C312.219 263.691 309.88 268.854 307.782 270.145C305.604 271.516 305.604 271.516 305.604 271.516C305.604 271.516 283.904 266.434 275.272 263.046C266.641 259.658 258.09 255.382 258.09 255.382C258.09 255.382 253.976 249.977 255.428 247.315C256.799 244.734 270.593 230.617 270.593 230.617Z" fill="white" stroke="#191A19" stroke-width="2" stroke-linecap="round" stroke-linejoin="round"/>
<path d="M312.219 263.691C312.219 263.691 322.222 257.399 324.965 256.834C327.708 256.35 344.003 260.222 344.649 261.271C345.294 262.4 344.487 263.207 343.358 263.449C342.229 263.61 330.854 260.948 330.854 260.948C330.854 260.948 325.691 268.773 319.076 271.435C312.461 274.017 305.604 271.516 305.604 271.516C305.604 271.516 311.493 267.079 312.219 263.691Z" fill="white" stroke="#191A19" stroke-width="2" stroke-linecap="round" stroke-linejoin="round"/>
<path d="M318.834 266.031C318.834 266.031 323.674 264.175 325.771 262.885C327.949 261.513 331.579 259.416 333.112 257.722C334.726 256.028 336.016 256.512 336.339 258.367C336.662 260.142 335.452 261.594 334 262.562C332.548 263.53 329.805 265.466 329.805 265.466C329.805 265.466 326.417 270.064 322.948 271.678C319.398 273.21 313.106 272.484 312.219 271.436" fill="white"/>
<path d="M318.834 266.031C318.834 266.031 323.674 264.175 325.771 262.885C327.949 261.513 331.579 259.416 333.112 257.722C334.726 256.028 336.016 256.512 336.339 258.367C336.662 260.142 335.452 261.594 334 262.562C332.548 263.53 329.805 265.466 329.805 265.466C329.805 265.466 326.417 270.064 322.948 271.678C319.398 273.21 313.106 272.484 312.219 271.436" stroke="#191A19" stroke-width="2" stroke-linecap="round" stroke-linejoin="round"/>
<path d="M272.126 291.28C272.126 291.28 321.819 332.664 323.513 334.923C325.207 337.101 327.708 425.837 327.708 425.837L331.983 428.499C331.983 428.499 332.467 431 332.306 431.968C332.145 432.936 342.712 438.583 349.408 442.133C356.104 445.682 357.072 442.697 356.104 445.682C355.055 448.748 343.196 449.958 340.05 449.877C336.824 449.877 330.451 449.393 327.627 449.958C324.884 450.442 316.575 451.974 315.043 450.361C313.51 448.667 312.542 436.486 312.542 436.486C312.542 436.486 310.283 433.098 310.122 431.888C309.88 430.678 309.396 426.321 309.557 425.353C309.638 424.305 293.907 350.088 293.907 350.088L230.42 323.629L224.128 325.726C224.128 325.726 206.3 379.13 205.574 382.356C204.929 385.664 154.268 453.184 154.268 453.184C154.268 453.184 147.411 463.671 146.766 465.688C146.201 467.705 141.038 469.56 141.038 469.56C141.038 469.56 133.859 489.97 132.891 493.358C131.923 496.665 128.534 498.924 124.582 499.973C120.629 500.941 116.434 488.437 118.451 483.597C120.387 478.837 130.793 464.559 130.793 464.559C130.793 464.559 131.035 460.687 131.681 458.993C132.326 457.299 136.198 452.458 136.198 452.458L168.305 372.676L176.533 297.573C176.533 297.573 235.018 312.335 272.126 291.28Z" fill="#191A19" stroke="#191A19" stroke-width="2" stroke-linecap="round" stroke-linejoin="round"/>
<path d="M231.63 176.326C231.63 176.326 195.732 187.862 192.989 190.927C190.246 193.992 147.169 241.588 136.762 258.286C126.356 275.066 115.788 302.735 115.788 302.735L127.727 306.285C127.727 306.285 147.491 279.744 153.38 274.42C159.269 269.096 198.636 230.052 198.636 230.052L201.863 250.219L166.61 293.942C166.61 293.942 173.225 306.688 193.392 313.868C213.56 321.047 233.163 321.047 250.668 310.802C268.173 300.476 277.45 292.894 277.45 292.894C277.45 292.894 267.044 273.291 263.817 263.772C260.671 254.172 258.654 248.122 258.654 248.122C258.654 248.122 273.578 235.295 272.852 230.213C272.126 225.131 271.642 214.644 271.803 213.918C271.884 213.192 278.902 195.848 277.128 188.83C275.353 181.811 271.803 178.907 266.398 176.568C260.994 174.309 254.137 174.309 254.137 174.309L231.63 176.326Z" fill="white" stroke="#191A19" stroke-width="2" stroke-linecap="round" stroke-linejoin="round"/>
<path d="M244.86 250.058L209.85 258.932" stroke="#191A19" stroke-width="2" stroke-linecap="round" stroke-linejoin="round"/>
<path d="M255.427 247.315L250.668 248.525" stroke="#191A19" stroke-width="2" stroke-linecap="round" stroke-linejoin="round"/>
<path d="M231.469 258.044L200.572 266.03" stroke="#191A19" stroke-width="2" stroke-linecap="round" stroke-linejoin="round"/>
<path d="M235.664 171.324C235.664 171.324 232.034 173.18 229.291 176.245C226.548 179.391 221.547 207.706 223.644 214.16C225.741 220.613 227.355 220.291 230.42 219.081C233.486 217.79 246.877 208.271 246.877 208.271C246.877 208.271 263.656 215.854 267.69 214.644C271.723 213.434 267.528 196.009 264.06 185.764C260.51 175.519 260.752 174.309 253.492 169.469C246.232 164.709 235.664 171.324 235.664 171.324Z" fill="#CCCDCB" stroke="#191A19" stroke-width="2" stroke-linecap="round" stroke-linejoin="round"/>
<path d="M259.542 111.709C259.542 111.709 266.883 117.195 270.109 124.213C273.256 131.151 273.417 133.248 277.612 134.62C281.887 135.991 285.437 134.62 285.356 137.04C285.356 139.379 279.629 144.461 279.629 144.461C279.629 144.461 281.726 159.869 281.968 162.209C282.129 164.548 265.35 166.888 265.35 166.888C265.35 166.888 253.169 197.461 251.797 205.448C250.426 213.515 245.747 218.597 245.747 218.597L233.808 176.891L235.26 159.869C235.26 159.869 233.808 157.288 232.195 152.125C230.501 146.962 237.761 138.814 241.31 134.862C244.86 130.909 251.071 120.825 253.572 115.178C256.073 109.531 259.542 111.709 259.542 111.709Z" fill="white" stroke="#191A19" stroke-width="2" stroke-linecap="round" stroke-linejoin="round"/>
<path d="M265.35 166.888L257.525 167.694L261.559 174.551L265.35 166.888Z" fill="#191A19" stroke="#191A19" stroke-width="2" stroke-linecap="round" stroke-linejoin="round"/>
<path d="M270.755 133.168C271.239 134.862 270.916 136.394 270.109 136.636C269.222 136.878 268.173 135.668 267.689 134.055C267.205 132.361 267.528 130.747 268.335 130.505C269.141 130.263 270.271 131.473 270.755 133.168Z" fill="#191A19"/>
<path d="M264.785 128.731C264.785 128.731 266.318 125.827 268.657 126.633" stroke="#191A19" stroke-width="2" stroke-linecap="round" stroke-linejoin="round"/>
<path d="M269.948 145.752C269.948 145.752 272.126 149.543 276.24 148.817" stroke="#191A19" stroke-width="2" stroke-linecap="round" stroke-linejoin="round"/>
<path d="M247.442 147.93C247.442 147.93 253.33 144.945 253.572 141.396C253.895 137.766 246.877 132.926 250.426 128.973C253.895 125.02 261.317 121.309 261.075 109.773C260.833 98.2376 245.344 96.1402 237.519 97.2695C229.694 98.4796 213.076 105.74 208.478 118.163C203.961 130.586 205.574 140.912 209.93 148.172C214.367 155.352 222.111 159.143 227.032 160.192C231.953 161.16 236.632 163.822 239.536 162.612C242.359 161.402 242.359 156.158 242.359 153.577C242.359 150.996 247.442 147.93 247.442 147.93Z" fill="#191A19" stroke="#191A19" stroke-width="2" stroke-linecap="round" stroke-linejoin="round"/>
<path d="M251.475 150.512C251.475 150.512 243.004 142.848 240.262 144.784C237.519 146.64 235.663 151.722 239.939 155.675C244.134 159.627 249.377 157.046 250.829 154.868" fill="white"/>
<path d="M251.475 150.512C251.475 150.512 243.004 142.848 240.262 144.784C237.519 146.64 235.663 151.722 239.939 155.675C244.134 159.627 249.377 157.046 250.829 154.868" stroke="#191A19" stroke-width="2" stroke-linecap="round" stroke-linejoin="round"/>
<path d="M207.349 120.744C207.349 120.744 201.944 108.24 185.245 109.693C168.466 111.064 166.449 124.455 168.143 130.021C169.918 135.588 173.387 143.251 169.515 143.977C165.643 144.623 157.414 143.574 150.799 151.399C144.184 159.224 151.525 171.082 159.189 173.018C166.853 174.874 165.401 174.712 165.401 174.712C165.401 174.712 155.72 174.551 157.576 182.215C159.431 189.959 175.565 190.12 181.696 187.297C187.746 184.554 180.486 175.68 180.486 175.68C180.486 175.68 192.344 174.47 196.297 170.437C200.33 166.403 195.41 164.225 200.572 162.854C205.735 161.402 211.14 163.499 212.27 158.094C213.399 152.689 210.818 155.513 209.93 148.172C209.043 140.75 203.557 138.895 207.349 120.744Z" fill="#191A19" stroke="#191A19" stroke-width="2" stroke-linecap="round" stroke-linejoin="round"/>
<path d="M198.637 230.052L211.947 219.807L198.637 230.052Z" fill="white"/>
<path d="M198.637 230.052L211.947 219.807" stroke="#191A19" stroke-width="2" stroke-linecap="round" stroke-linejoin="round"/>
<path d="M127.727 306.285C127.727 306.285 127.485 315.481 127.808 317.417C128.211 319.353 129.905 323.79 131.196 326.049C132.487 328.308 135.794 331.292 134.423 332.664C133.132 334.035 130.551 332.26 129.664 331.05C128.776 329.921 126.598 325.565 126.598 325.565L125.388 345.168L123.129 346.297C123.129 346.297 122 345.168 122 343.554C121.919 342.022 120.548 329.84 120.548 329.84C120.548 329.84 116.434 347.991 115.869 348.717C115.385 349.524 112.723 348.878 112.804 347.749C112.804 346.62 114.256 330.97 114.256 330.97C114.256 330.97 109.577 346.055 109.254 346.781C108.931 347.507 106.753 348.152 106.108 347.104C105.463 346.136 106.753 343.151 106.753 343.151L110.222 331.05L103.204 342.264C103.204 342.264 101.187 342.586 101.59 340.731C101.913 338.875 107.479 327.259 107.479 327.259C107.479 327.259 107.56 320.402 108.205 318.95C108.851 317.498 115.788 302.735 115.788 302.735L127.727 306.285Z" fill="white" stroke="#191A19" stroke-width="2" stroke-linecap="round" stroke-linejoin="round"/>
</svg>
